<?xml version="1.0" encoding="UTF-8"?>
<svg width="20" height="20" version="1.1" xmlns="http://www.w3.org/2000/svg" xmlns:xlink="http://www.w3.org/1999/xlink"><defs><path id="a" d="m14 9.3v-2.6l-1.6-0.26c-0.12-0.44-0.29-0.85-0.5-1.2l0.93-1.3-1.8-1.8-1.3 0.91c-0.38-0.2-0.79-0.38-1.2-0.5l-0.26-1.6h-2.6l-0.26 1.6c-0.44 0.12-0.82 0.29-1.2 0.5l-1.3-0.9-1.8 1.8 0.93 1.3c-0.2 0.38-0.38 0.79-0.49 1.2l-1.6 0.24v2.6l1.6 0.26c0.12 0.44 0.29 0.82 0.5 1.2l-0.93 1.3 1.8 1.8 1.3-0.94c0.38 0.2 0.79 0.38 1.2 0.5l0.26 1.6h2.6l0.26-1.6c0.41-0.12 0.82-0.29 1.2-0.5l1.3 0.94 1.8-1.8-0.94-1.3c0.2-0.38 0.38-0.76 0.5-1.2l1.5-0.23zm-7 1.4c-1.5 0-2.7-1.2-2.7-2.7s1.2-2.7 2.7-2.7 2.7 1.2 2.7 2.7c0 1.5-1.2 2.7-2.7 2.7z"/></defs><g transform="matrix(1.4 0 0 1.4 0 -.095)" fill="#fff"><title>Layer 1</title><use y="-0.93333" width="100%" height="100%" fill="#ffffff" xlink:href="#a"/></g></svg>
