<?xml version="1.0" encoding="UTF-8"?>
<svg width="5.7mm" height="5.3mm" version="1.1" viewBox="0 0 5.7 5.3" xmlns="http://www.w3.org/2000/svg"><g transform="translate(88 14)"><path d="m-85-14c-0.42-0.016-0.9 0.32-0.87 0.77 0.092 0.19-0.33 0.26-0.0085 0.28 0.2 0.15-0.57 0.33-0.32 0.12 0.1-0.12-0.3-0.021-0.33-0.18-0.44-0.35-1.2-0.18-1.4 0.33-0.25 0.54-0.32 1.2-0.15 1.8 0.089 0.28 0.28 0.6 0.61 0.6 0.34 0.033 0.7-0.24 0.67-0.6 0.023-0.56-0.46-1-0.31-1.6 0.026-0.18 0.51-0.32 0.43-0.13-0.14 0.086-0.12 0.4 0.0036 0.13 0.15-0.22 0.3 0.014 0.15 0.17-0.14 0.28-0.07 0.61 0.15 0.83 0.18 0.26 0.44 0.48 0.54 0.78 0.0034 0.29 0.17 0.63 0.51 0.53 0.23 0.029 0.29-0.16 0.25-0.35v-1.8c-0.042-0.27-0.56-0.38-0.56-0.52 0.083 0.057 0.39 0.14 0.17-0.0096-0.36-0.17 0.22-0.37 0.41-0.31 0.29-0.065 0.55-0.24 0.84-0.33 0.31-0.072-0.18-0.25-0.3-0.33-0.16-0.067-0.33-0.11-0.5-0.12zm2.3 0.11c-0.5 0.02-0.99 0.0052-1.5 0.0092 0.17 0.1 0.32 0.28 0.54 0.22h0.35c-0.48 0.2-0.98 0.37-1.5 0.6-0.14 0.15-0.056 0.37-0.08 0.56v2.8c-0.43-0.0093-0.86 0.019-1.3-0.015-0.2-0.097-0.12-0.35-0.13-0.53v-0.89c-0.049-0.091-0.25-0.36-0.2-0.089 0.0094 0.53-0.019 1.1 0.015 1.6 0.094 0.21 0.36 0.14 0.55 0.15h1c0.028 0.23-0.072 0.51 0.09 0.71 0.32 0.069 0.6-0.2 0.91-0.27 0.41-0.16 0.81-0.34 1.2-0.47 0.2-0.21 0.064-0.53 0.1-0.79-5.3e-4 -1.1 0.0043-2.3-0.0031-3.4-0.018-0.094-0.082-0.2-0.19-0.21zm-3.5 0.0092c-0.24-0.0049-0.26 0.28-0.24 0.46v0.34c0.3 0.27 0.16-0.26 0.21-0.42 0.052-0.19 0.44-0.13 0.38-0.37h-0.35zm2 2.7c0.28-0.0048 0.31 0.47 0.021 0.49-0.32 0.026-0.33-0.48-0.021-0.49z" fill="#fff"/></g></svg>
