<?xml version="1.0" encoding="UTF-8"?>
<svg width="50.135mm" height="55.34mm" version="1.1" viewBox="0 0 50.135 55.34" xmlns="http://www.w3.org/2000/svg" xmlns:cc="http://creativecommons.org/ns#" xmlns:dc="http://purl.org/dc/elements/1.1/" xmlns:rdf="http://www.w3.org/1999/02/22-rdf-syntax-ns#">
 <metadata>
  <rdf:RDF>
   <cc:Work rdf:about="">
    <dc:format>image/svg+xml</dc:format>
    <dc:type rdf:resource="http://purl.org/dc/dcmitype/StillImage"/>
    <dc:title/>
   </cc:Work>
  </rdf:RDF>
 </metadata>
 <g transform="translate(-107.25 8.6847)">
  <path d="m132.12-8.6583c-2.0574-0.35791-6.226 3.0161-3.3161 4.3243 1.5524-0.4883 2.5235-2.4287 4.3724-1.9508 3.2343 0.47884-1.0868 3.3166-2.3258 4.2097-2.8475 1.1583-3.7387 4.8503-1.0509 6.743 1.0953 1.3438 5.3181 0.65255 2.7917-0.89026-3.1725-0.54879-2.17-4.5453 0.33648-5.2338 1.9095-1.0267 5.2682-2.6993 3.5285-5.2872-1.057-1.2755-2.6934-1.9469-4.3363-1.9149zm-18.253 8.6186c-2.6687-0.54141-5.4661 4.1564-2.7155 5.1681 1.0837-0.97692 0.38746-3.625 2.5589-3.7335 0.97972 2.3505-1.7922 5.9331 1.1895 7.283 1.4091 1.5091 5.2834-2.0597 2.2862-1.5219-3.358 1.2117-2.2649-3.4606-1.6818-5.238 0.25463-1.048-0.64194-1.9348-1.6373-1.9577zm36.666 0.11524c-2.2574 0.18845-0.38625 2.3967 1.1025 1.7943 1.4726 0.3692 2.117 2.5839-0.0832 2.0114-2.3097-0.57706-6.312-1.0073-5.8839 2.5592 0.40965 2.4823 2.9298 2.1881 1.4632-0.27292 1.0066-3.0139 4.4474-0.1395 6.5231-0.74905 2.5711-1.8448-0.43005-6.0023-3.1217-5.3428zm-19.194 8.4c-2.6386 0.94106 0.94507 4.3586 1.6182 1.5525 0.48553-0.83368-0.90318-1.4068-1.6182-1.5525zm12.415 0.47904c-2.2219 1.6113 1.8508 2.8201 1.0183 0.5674-6e-3 -0.63243-0.62708-0.47308-1.0183-0.5674zm-23.611 0.6997c-3.4775 1.0604 2.1226 2.8072 0.32557 0.076481h0.0326zm22.919 1.8097c-3.5221-0.12509-6.9646 2.2317-7.6388 5.781-0.22019 1.4264-3.451 0.21637-1.0103 1.3594 2.4835 1.7246-2.4995 1.4365-3.6563 1.4178-2.8033-1.3245 3.3774-1.0529-5e-3 -1.787-2.4445-1.5135-3.3692-4.8353-6.4368-5.5846-4.1184-1.7486-9.0452 0.15914-11.465 3.7929-3.711 4.822-6.3783 11.04-5.4032 17.219 0.51245 4.9418 7.9448 6.9528 10.786 2.861 2.7324-3.7589 1.364-8.5736 1.849-12.842 4e-3 -2.8385 1.4952-6.4392 4.8997-6.079 1.6646-0.12286 3.2417 1.6427 0.77693 1.8624-1.5502 0.29603-1.7586 2.5676-0.17644 0.95515 1.144-1.5555 3.9453-0.6407 2 1.1488-1.9209 1.7932-3.7236 4.2876-2.7746 7.0416 0.72594 3.4689 2.3481 6.7111 3.0161 10.169 0.0381 2.4704-2.0429 6.0328 1.3866 7.1563 2.7459 1.0199 6.4514 1.1959 8.617-1.0901 1.7523-2.402-2.1745-4.779-0.54034-7.3085 0.67912-3.7985 2.9892-7.2259 3.0251-11.139-0.0207-2.8625-3.5533-4.1299-3.7671-6.6892 0.94176 0.58566 3.5416 3.6556 2.033 0.8571-3.3791-2.4994 3.1191-2.9407 4.635-1.6833 3.1143 2.0938 2.2149 6.2985 2.1831 9.4835 0.0774 3.8785 0.91009 8.6118 4.7312 10.534 3.1736 1.5496 6.6934-0.94258 6.8899-4.3271 1.2522-5.6076-0.94011-11.272-3.4163-16.222-2.1489-3.2608-5.3904-6.2743-9.3947-6.8207l-0.57062-0.05073z" fill="#fff"/>
 </g>
</svg>
