<?xml version="1.0" encoding="UTF-8"?>
<svg width="381" height="298" version="1.1" viewBox="0 0 381 298" xml:space="preserve" xmlns="http://www.w3.org/2000/svg"><g transform="matrix(1.3 0 0 -1.3 -546 520)" style="fill:#fff"><path d="m495 390c-9.2-1.8-16-8.6-24-13-20-12-41-24-61-37-1.7-5.4 2.6-11 3.7-16 5.1-15 10-30 15-46 4.6-4.8 11 1.8 16 3.1 13 6.2 26 12 40 19 0.3-41-1.4-82-0.73-123 1.8-10 13-10 21-9.6 36 0.16 72-0.32 107 0.24 15 4.5 8 23 9.4 35-0.41 33-1.2 66-1.7 98 17-7.9 35-16 52-24 6.1 0.62 5.4 8.7 7.8 13 5.3 16 11 32 16 48-0.85 5.7-8 6.8-12 10-23 14-46 28-70 42-7.9 1.9-16 0.54-24 0.97-11-16-34-18-52-14-12-0.51-17 15-28 14h-14zm86-28c11-3.9 19-15 26-24 1.9-14-13-25-24-30-6.7 3 1.9 17-5.6 17-26 1.3-53 0.95-79 3.7-6 14 18 12 27 13 18 0.37 36 0.43 54 2.5-0.69 5.7-6.1 15 1.2 18zm-67-66c14-2 19-18 25-29 4.1-5.4 7.1-23 13-21 7.2 13 11 29 22 39 15 6.4 22-14 15-26-5.8-21-13-42-25-60-9.2-11-24-2.4-29 8.4-15 24-26 51-32 79-0.64 5.3 6.5 8.7 11 9z" fill="#fff" style="fill:#fff;paint-order:markers fill stroke"/></g></svg>
