<?xml version="1.0" encoding="UTF-8"?>
<svg width="6.8624mm" height="5.8208mm" version="1.1" viewBox="0 0 6.8624 5.8208" xmlns="http://www.w3.org/2000/svg" xmlns:cc="http://creativecommons.org/ns#" xmlns:dc="http://purl.org/dc/elements/1.1/" xmlns:rdf="http://www.w3.org/1999/02/22-rdf-syntax-ns#">
 <metadata>
  <rdf:RDF>
   <cc:Work rdf:about="">
    <dc:format>image/svg+xml</dc:format>
    <dc:type rdf:resource="http://purl.org/dc/dcmitype/StillImage"/>
    <dc:title/>
   </cc:Work>
  </rdf:RDF>
 </metadata>
 <g transform="translate(171.17 109.16)">
  <path d="m-170.16-109.16c-0.43468 0.0225-0.79671 0.38095-0.9621 0.76386-0.11552 0.17349-7e-3 0.30451 0.12584 0.41169 0.71859 0.7304 1.4487 1.4502 2.1289 2.2172 0.56125 0.16419 1.1262 0.31576 1.6914 0.4656 0.038-0.22933-0.16001-0.56462-0.23088-0.82188-0.14736-0.28276-0.2122-0.62914-0.432-0.86401-0.7648-0.71051-1.5151-1.4362-2.2601-2.1674l-0.061-5e-3zm-0.16948 0.20498c0.71627 0.66035 1.3894 1.3692 2.1078 2.0287 0.19816 0.19557-0.1949 0.1155-0.22892-0.0481-0.6493-0.62656-1.2974-1.2545-1.9386-1.8893-0.0508-0.0467 0.0188-0.0882 0.0597-0.0914zm4.1693 2.2124c-0.41483-0.0374-0.62205 0.42184-0.90953 0.64887-0.25821 0.19496 0.0478 0.60291 0.1056 0.81465 0.20896-0.028 0.6587 0.14223 0.48675-0.23066-0.0642-0.1382-0.0239-0.55504 0.13465-0.28026 0.037 0.26661-0.0156 0.65063 0.37637 0.5286 0.20268-0.10651 0.46105 0.17426 0.16471 0.17131-0.1505-3e-3 -0.301-6e-3 -0.4515-8e-3 -0.012 0.16732 0.20134 0.65691-0.0834 0.57171-0.0899-0.24327 0.0461-0.7069-0.36596-0.58082-0.42244 0.0169-0.81287-0.17858-1.2189-0.26803-0.34575 0.30356-0.61594 0.67994-0.93209 1.0122 0.16049 0.28385 0.66381-9e-3 0.94408 0.17299 0.51767 0.1576 0.93187 0.52104 1.345 0.85129 0.30345-0.24919 0.5584-0.56842 0.83893-0.8484 0.42067-0.48327 0.9324-0.87965 1.3196-1.3926 0.20832-0.30754-0.33704-0.6183-0.56919-0.79732-0.35748-0.20905-0.76628-0.36622-1.185-0.36511zm-1.7005 0.0232c0.089 0.23876 0.40074 0.56221 0.04 0.71561-0.1391 0.18475-0.25437 0.34235-0.49609 0.19461-0.2615 9.7e-4 -0.38303-0.18436-0.18122-0.38629 0.1643-0.21453 0.36164-0.46362 0.6373-0.52393z" fill="#fff" stroke-width=".004591"/>
 </g>
</svg>
