<?xml version="1.0" encoding="UTF-8"?>
<svg width="201mm" height="206mm" version="1.1" viewBox="0 0 201 206" xmlns="http://www.w3.org/2000/svg"><g transform="translate(1,-41)" style="fill:#fff"><path d="m100 41c-4.3 3.7-4.1 8.9-11 6.8h-34c-0.14-12-7-3.6-8.9 0-13 0.095-27-0.19-40 0.15-7.6 1.5-5.8 10-6 16v34h200c-0.098-15 0.2-29-0.15-44-1.9-7.6-11-5.4-17-5.8h-31c0.75-10-8-5.5-8.6 0h-40c-3e-3 -2.5-0.34-6.5-3.5-6.8zm-86 14h33c0.2 11 7 3.4 8.9 0h40c0.2 11 7.2 3.5 9.2 0h39c0.2 11 7.2 3.5 9.2 0 11 0.096 21-0.19 32 0.15 7.6 1.5 5.8 10 6 16-0.61 5.7 1.6 12-2.2 17-5.2 3.7-12 1.5-18 2.1h-157c-7.5 0.12-8-8-7.5-14 0.48-6.1-1.2-13 1.3-18 1.4-2 3.8-3.2 6.2-3.2zm-15 46v139c0.082 7.4 8.3 7.6 14 7.2h179c7.5 0.12 8-8 7.5-14v-133h-200zm13 6.1h29c7.3 0.85 5 9.2 5.3 14 0.98 5.5-1.5 12-8.2 11-9.5-0.27-19 0.56-29-0.44-5.3-3.6-2.6-11-3.3-16-0.33-3.7 0.56-8.6 5.3-8.6zm47 0c11 0.27 22-0.55 33 0.44 5.3 3.6 2.6 11 3.3 16 1.4 6.5-4.8 9.7-11 8.6-9.3-0.26-19 0.54-28-0.44-5.3-3.6-2.6-11-3.3-16-0.33-3.7 0.56-8.6 5.3-8.6zm49 1e-3h30c7.3 0.85 5 9.2 5.3 14 0.98 5.5-1.5 12-8.2 11-9.9-0.28-20 0.56-30-0.44-5.3-3.6-2.6-11-3.3-16-0.33-3.7 0.55-8.6 5.3-8.6zm49 0c10 0.27 21-0.55 31 0.44 5.3 3.6 2.6 11 3.3 16 1.4 6.5-4.8 9.7-11 8.6-8.7-0.26-17 0.54-26-0.44-5.3-3.6-2.6-11-3.3-16-0.33-3.7 0.55-8.6 5.3-8.6zm-145 33h29c7.3 0.85 5 9.2 5.3 14 1.2 5.8-2.3 12-8.8 10-9.3-0.27-19 0.56-28-0.44-5.3-3.6-2.6-11-3.3-16-0.35-3.6 0.85-8.1 5.3-8.1zm47 0c11 0.27 22-0.55 33 0.44 5.3 3.6 2.6 11 3.3 16 1.4 6.8-5.6 9-11 8.1-9.1-0.26-18 0.54-27-0.44-5.3-3.6-2.6-11-3.3-16-0.35-3.6 0.85-8.1 5.3-8.1zm49 0h30c7.3 0.85 5 9.2 5.3 14 1.2 5.8-2.3 12-8.8 10-9.7-0.28-19 0.56-29-0.44-5.3-3.6-2.6-11-3.3-16-0.35-3.6 0.85-8.1 5.3-8.1zm49 0c10 0.27 21-0.55 31 0.44 5.3 3.6 2.6 11 3.3 16 1.4 6.8-5.6 9-11 8.1-8.5-0.26-17 0.54-25-0.44-5.3-3.6-2.6-11-3.3-16-0.35-3.6 0.85-8.1 5.3-8.1zm-74 1.5c-9.5 0.62-29-0.65-25 14 4.2 8.9 16 9.1 25 7.5 12 0.24 12-18-0.33-15-7.3 5.6 12 4.6 1 9.4-7.1 2.4-22 2.6-21-7.7 5.8-6.6 17-1 23-5.4 0.82-1.6-0.86-3.7-2.6-3.5zm-71 31h29c7.3 0.85 5 9.2 5.3 14 0.98 5.5-1.5 12-8.2 11-9.5-0.27-19 0.56-29-0.44-5.3-3.6-2.6-11-3.3-16-0.33-3.7 0.55-8.6 5.3-8.6zm47 0c11 0.27 22-0.55 33 0.44 5.3 3.6 2.6 11 3.3 16 1.4 6.5-4.8 9.7-11 8.6-9.3-0.26-19 0.54-28-0.44-5.3-3.6-2.6-11-3.3-16-0.33-3.7 0.55-8.6 5.3-8.6zm49 0h30c7.3 0.85 5 9.2 5.3 14 0.98 5.5-1.5 12-8.2 11-9.9-0.28-20 0.56-30-0.44-5.3-3.6-2.6-11-3.3-16-0.33-3.7 0.55-8.6 5.3-8.6zm49 0c10 0.27 21-0.55 31 0.44 5.3 3.6 2.6 11 3.3 16 1.4 6.5-4.8 9.7-11 8.6-8.7-0.26-17 0.54-26-0.44-5.3-3.6-2.6-11-3.3-16-0.33-3.7 0.55-8.6 5.3-8.6zm-26 1.8c-9.8-0.069-30 0.5-24 16 5.6 8.4 18 8.1 27 5.5 12-1.8 5.1-20-4.5-13-1.5 5.2 12 2.3 3.8 7.6-7 3.4-26 2.6-20-8.6 4.3-5 25 1.9 20-7.6zm-119 31h29c7.3 0.85 5 9.2 5.3 14 1.2 5.8-2.1 12-8.8 11-9.3-0.27-19 0.56-28-0.44-5.3-3.6-2.6-11-3.3-16-0.35-3.6 0.74-8.4 5.3-8.3zm47 0c11 0.27 22-0.55 33 0.44 5.3 3.6 2.6 11 3.3 16 1.5 6.9-5.5 9.3-11 8.3-9.1-0.26-18 0.54-27-0.44-5.3-3.6-2.6-11-3.3-16-0.35-3.6 0.74-8.4 5.3-8.3zm49 0h30c7.3 0.85 5 9.2 5.3 14 1.2 5.8-2.1 12-8.8 11-9.7-0.28-19 0.56-29-0.44-5.3-3.6-2.6-11-3.3-16-0.35-3.6 0.74-8.4 5.3-8.3zm49 0c10 0.27 21-0.55 31 0.44 5.3 3.6 2.6 11 3.3 16 1.5 6.9-5.5 9.3-11 8.3-8.5-0.26-17 0.54-25-0.44-5.3-3.6-2.6-11-3.3-16-0.35-3.6 0.74-8.4 5.3-8.3zm-122 1.2c-8.3 2.1-23-2.5-25 8.9-2.4 11 11 15 19 14 7.8 1.2 21-7.7 12-15-5.7-5-13 5.4-3.6 4.1 5.6 5.6-12 7.6-17 5.3-15-5.2 0.78-16 10-12 3.7 1.2 12-2.5 4.5-5.1z" fill="#fff" style="fill:#fff;paint-order:markers fill stroke"/></g></svg>
