<?xml version="1.0" encoding="UTF-8"?>
<svg width="5.4mm" height="5.8mm" version="1.1" viewBox="0 0 5.4 5.8" xmlns="http://www.w3.org/2000/svg"><g transform="translate(37 2.3)" style="fill:#fff"><path d="m-37-2.3c-0.3 0.17-0.14 0.57-0.19 0.85-0.019 0.95-0.026 1.9-0.033 2.9 0.05 0.33 0.4 0.35 0.67 0.33 0.18 0.027-0.074 0.35-0.087 0.5-0.14 0.37-0.3 0.73-0.45 1.1 0.1 0.24 0.56 0.1 0.56-0.16 0.19-0.45 0.39-0.9 0.55-1.4 0.17-0.21 0.49-0.09 0.73-0.11 0.17 0.064 0.59-0.12 0.53 0.16-0.0018 0.52-0.0077 1-9e-3 1.6 0.12 0.12 0.55 0.12 0.44-0.17 0.015-0.51 0.013-1 0.027-1.5 0.38 5e-5 0.76-0.059 1.1-0.028 0.21 0.22 0.28 0.56 0.43 0.83 0.14 0.28 0.23 0.57 0.39 0.84 0.15 0.16 0.64 0.17 0.4-0.14-0.17-0.47-0.42-0.92-0.56-1.4 0.049-0.26 0.58 0.035 0.57-0.32 0.13-0.93 0.056-1.9 0.086-2.8-0.0074-0.3 0.032-0.61-0.039-0.91-0.25-0.12-0.55-0.053-0.82-0.081-1.4-0.014-2.9-0.01-4.3-0.016zm2.6 0.27c0.73 0.016 1.5-0.024 2.2 0.073 0.26 0.099 0.11 0.51 0.16 0.74-8.1e-4 0.73-0.0038 1.5-0.037 2.2 0.011 0.35-0.37 0.45-0.65 0.41-1.2-7e-3 -2.4 0.01-3.7 0.0079-0.37 0.072-0.49-0.27-0.45-0.57-0.03-0.9-0.016-1.8 0.0094-2.7 0.085-0.21 0.44-0.065 0.63-0.12 0.6-0.02 1.2-0.024 1.8-0.018zm-1.9 0.34c-0.24 0.18-0.1 0.54-0.14 0.8-6.1e-4 0.58-0.019 1.2 0.018 1.7 0.13 0.27 0.48 0.2 0.73 0.21 0.95-0.015 1.9 0.016 2.9-0.015 0.3 0.0091 0.48-0.28 0.45-0.56 0.017-0.61 0.057-1.2 0.024-1.8 0.032-0.34-0.34-0.42-0.6-0.38-0.93 0.023-1.9 0.016-2.8 0.0035-0.18 0.0044-0.36-0.0085-0.54 0.029zm2.3 0.093c0.21 0.099 0.53 0.39 0.28 0.61-0.14 0.22-0.36 0.22-0.29-0.067-0.4-0.018-0.8-0.02-1.2-0.052-0.1-0.28 0.45-0.16 0.63-0.2 0.22-0.042 0.68 0.11 0.53-0.25 0.013-0.017 0.03-0.05 0.058-0.046zm-0.96 0.97c0.27 0.1 0.31 0.45 0.45 0.67 0.11 0.23 0.17-0.25 0.26-0.33 0.059-0.33 0.53-0.2 0.39 0.11-0.086 0.34-0.19 0.69-0.4 0.98-0.32 0.21-0.48-0.26-0.6-0.48-0.12-0.28-0.26-0.57-0.28-0.87 0.041-0.055 0.11-0.1 0.18-0.087z" fill="#fff" style="fill:#fff"/></g></svg>
