<?xml version="1.0" encoding="UTF-8"?>
<svg width="72.034mm" height="65.533mm" version="1.1" viewBox="0 0 72.034 65.533" xmlns="http://www.w3.org/2000/svg" xmlns:cc="http://creativecommons.org/ns#" xmlns:dc="http://purl.org/dc/elements/1.1/" xmlns:rdf="http://www.w3.org/1999/02/22-rdf-syntax-ns#">
 <metadata>
  <rdf:RDF>
   <cc:Work rdf:about="">
    <dc:format>image/svg+xml</dc:format>
    <dc:type rdf:resource="http://purl.org/dc/dcmitype/StillImage"/>
    <dc:title/>
   </cc:Work>
  </rdf:RDF>
 </metadata>
 <g transform="translate(-123.49 -14.769)">
  <path d="m159.77 14.915c-3.491 0.43988-6.3889 2.727-9.2708 4.5837-3.1134-0.3913-8.8726 3.0994-7.0461 5.8312h16.317c0.69826-4.4884-6.6166-5.5963-7.4495-6.1657 3.1466-1.6956 6.917-3.97 10.511-2.1282 1.611 0.81277 7.1911 2.7792 2.6442 2.7099-2.5022-0.13718-7.2831 4.0909-4.93 5.5839h28.439c3.5263-2.0414 1.5968-6.4912-2.3077-5.8331-3.6836-0.10319-8.2739 0.80489-10.001 4.4601-0.23558 3.1387-0.51951-2.6502-2.5318-2.8154-3.802-1.4655-7.4815-2.6195-10.86-5.1298-1.1051-0.52234-2.2706-1.0609-3.5142-1.0966zm29.215 10.415v14.716c4.2189-0.22057 5.8914-4.9395 6.289-8.5073 0.25275-2.7706 0.23542-7.7766-3.4968-7.8179-1.0843 0.19774-1.9939 0.89007-2.7922 1.6093zm0 14.716v19.538c4.5247-0.10935 6.3015-5.2885 6.3816-9.0828 0.12741-3.8421-0.92473-8.9848-5.1037-10.298-0.41694-0.1069-0.84771-0.15746-1.2779-0.15729zm0 19.538v14.716c2.7953 3.6459 6.9422 0.22111 6.3625-3.5704 0.11561-4.0037-0.83903-9.0603-4.8638-10.894-0.48112-0.16929-0.98999-0.25138-1.4987-0.25104zm0 14.716h-12.543c0.25435 4.0165 4.8583 5.4955 8.2578 5.8046 3.1426 0.97992 8.8027-1.6933 4.9976-5.0956l-0.33518-0.34882zm-12.543 0h-16.672c0.0998 4.4873 5.3397 6.1385 9.1164 5.8336 3.3217-0.13958 7.587-1.9232 7.5554-5.8336zm-16.672 0h-16.899c0.0953 4.3761 5.1433 6.0319 8.845 5.8508 3.4601-0.06256 8.0484-1.7398 8.0537-5.8508zm-16.899 0h-13.15c-4.0144 2.6392-0.31444 6.8 3.5102 5.8561 3.6486-0.09171 8.446-1.1446 9.5785-5.1469zm-13.15 0v-14.716c-4.1288 0.31435-5.5695 5.0363-5.9816 8.5073-0.21151 2.718-0.35368 7.6918 3.3052 7.8179 1.0502-0.20219 1.9166-0.89835 2.6764-1.6093zm0-14.716v-19.538c-4.1781 0.13677-5.7458 4.8908-5.9826 8.3974-0.22435 3.9686 0.45764 9.1492 4.567 10.927l0.68417 0.16115zm0-19.538v-14.716c-2.7423-3.6905-6.6736-0.08988-6.0616 3.5704-0.0711 3.9638 0.74589 8.9367 4.6456 10.894l0.68473 0.18667zm0-14.716h13.15c-0.29178-4.0682-4.9759-5.4935-8.4058-5.8046-2.8661-0.68522-8.7774 1.0574-5.7038 4.7582 0.29175 0.37352 0.61781 0.71908 0.96005 1.0465zm41.051 1.2583c-3.6899-0.13082-7.2959 2.3385-8.0024 6.0566-0.15577 1.532-3.715 0.17639-1.0585 1.4239 3.0889 1.7689-5.055 2.3989-4.464 0.50039 2.3995-0.34046 1.6413-0.47276-0.14199-1.3282-1.9254-2.2688-3.6257-4.9653-6.7518-5.6897-4.3812-1.4058-9.1442 0.90714-11.55 4.6573-3.8439 5.2332-6.7076 12.046-5.0978 18.6 1.4038 5.1342 9.8347 6.0147 11.793 0.7997 2.5746-5.3837-0.50829-11.857 2.6188-17.091 0.95222-2.7011 8.6394-1.1033 4.5264 0.45398-2.3404 1.0351-1.161 2.3996 0.50255 0.5777 4.4052-1.4395 0.0308 3.3126-1.0632 4.6303-1.8102 3.5348 0.67122 7.3995 1.5617 10.859 1.4656 2.925 1.2635 6.1018 0.3762 9.1648 0.8527 3.0595 4.7704 3.4075 7.433 3.1503 2.7596 0.0675 5.7367-2.7388 3.6543-5.3973-1.945-3.3481 0.82972-7.0452 1.6253-10.366 1.3208-2.9506 1.8969-6.7593-0.7978-9.152-1.2498-0.51601-3.2232-4.741-0.85471-2.2602 1.1515 2.0386 2.3633 1.1016 0.61282-0.45061-2.4944-2.5817 4.7666-2.6889 5.9695-0.80541 2.998 3.2951 0.98358 7.9775 1.7243 11.907 0.26005 3.9925 2.676 9.2145 7.361 8.9305 3.8776-0.07788 4.8297-4.5319 5.0191-7.6286 0.12904-5.3765-1.8812-10.641-4.5424-15.22-2.4976-3.2525-6.1044-6.4046-10.454-6.3212zm-20.657 29.689c-1.6388 4.3554-5.8547 7.0416-10.06 8.5113-4.0938 1.6595-2.7231 6.9473 1.5916 6.1601 2.5554-0.03241 8.1135-1.3428 6.4314-4.7691-0.82931-1.8851-6.6674-1.0661-2.6668-2.2833 2.7957-1.584 5.5832-4.016 4.7035-7.6189zm19.196 0c-0.95264 3.9247 2.6449 6.9002 5.9257 8.0937 0.52272 0.4051-5.9016 0.80806-4.1506 3.8717 2.3182 2.6075 6.6152 3.4441 9.7853 2.0007 3.6158-3.4078-2.9991-6.3464-5.7257-7.4085-2.5833-1.4849-4.7467-3.7613-5.8347-6.5575z" fill="#fff"/>
 </g>
</svg>
