<?xml version="1.0" encoding="UTF-8"?>
<svg class="svg-inline--fa fa-youtube-square fa-w-14" width="448" height="448" aria-hidden="true" data-icon="youtube-square" data-prefix="fab" focusable="false" role="img" version="1.1" viewBox="0 0 448 448" xmlns="http://www.w3.org/2000/svg"><path d="m187 170c32 18 63 36 95 54-32 18-63 36-95 54v-108zm261-122c-0.16 119 0.33 238-0.25 357-2 28-30 47-57 43-116-0.16-232 0.33-348-0.25-28-2-47-30-43-57 0.16-116-0.33-232 0.25-348 2-28 30-47 57-43 116 0.16 232-0.33 348 0.25 24 2 44 24 43 48zm-42 176c-1.3-32 0.25-66-11-97-10-23-38-27-60-28-78-4.7-156-5.1-234 1.2-23-0.16-47 14-52 38-9.3 53-8.7 108-1.8 162 1.2 24 21 45 45 46 74 7.5 149 6.4 223 3.5 26-2.8 58 1.3 76-21 15-22 12-49 15-74 0.46-10 0.74-20 0.78-30z" style="fill:#fff"/></svg>
