<?xml version="1.0" encoding="UTF-8"?>
<svg class="svg-inline--fa fa-instagram-square fa-w-14" width="448" height="448" aria-hidden="true" data-icon="instagram-square" data-prefix="fab" focusable="false" role="img" version="1.1" viewBox="0 0 448 448" xmlns="http://www.w3.org/2000/svg"><path d="m224 171c-29-0.77-55 26-53 55 0.089 29 28 54 56 52 29-0.95 53-29 50-58-2-27-26-49-53-48zm125-41c-8.1-22-31-35-54-35-42-3-84-1.6-126-1.2-23 0.38-49 4-63 24-16 22-12 53-14 79 1.8 41-4.4 83 6.6 122 8.1 22 31 35 54 35 42 3 84 1.6 126 1.2 23-0.38 49-4 63-24 16-22 12-53 14-79-1.9-41 4.5-83-6.7-122zm-125 176c-39 0.8-76-31-81-70-6.7-39 19-80 57-91 37-12 82 6.9 98 43 18 35 5.6 81-27 103-14 9.5-30 15-47 15zm85-148c-14 0.69-25-17-16-29 7.1-13 28-11 33 1.9 6.2 12-3.5 28-17 27zm91-158c-119 0.19-238-0.38-357 0.29-25 2.1-45 27-43 52 0.19 118-0.38 236 0.29 353 2.1 25 27 45 52 43 118-0.19 236 0.38 353-0.29 25-2.1 45-27 43-52-0.19-118 0.38-236-0.29-353-2.2-24-24-43-48-43zm-17 290c0.62 38-23 78-61 88-38 9.2-78 4.9-117 6-39-1-84 3.7-113-27-32-31-26-78-27-118 1.4-39-3.7-79 7.4-117 12-37 52-58 89-57 49-0.82 99-3 148 2.1 40 4.7 72 41 73 81 2.8 47 2.1 94 0.7 141z" style="fill:#fff"/></svg>
