<?xml version="1.0" encoding="UTF-8"?>
<svg class="svg-inline--fa fa-facebook-square fa-w-14" width="448" height="448" aria-hidden="true" data-icon="facebook-square" data-prefix="fab" focusable="false" role="img" version="1.1" viewBox="0 0 448 448" xmlns="http://www.w3.org/2000/svg"><path d="m400 0h-352a48 48 0 0 0-48 48v352a48 48 0 0 0 48 48h137v-152h-63v-72h63v-55c0-62 37-96 94-96 27 0 56 4.8 56 4.8v61h-31c-31 0-40 19-40 39v47h69l-11 72h-58v152h137a48 48 0 0 0 48-48v-352a48 48 0 0 0-48-48z" fill="currentColor" style="fill:#fff"/></svg>
