<?xml version="1.0" encoding="UTF-8"?>
<svg width="166" height="125" version="1.1" viewBox="0 0 166 125" xmlns="http://www.w3.org/2000/svg" xmlns:cc="http://creativecommons.org/ns#" xmlns:dc="http://purl.org/dc/elements/1.1/" xmlns:rdf="http://www.w3.org/1999/02/22-rdf-syntax-ns#">
 <metadata>
  <rdf:RDF>
   <cc:Work rdf:about="">
    <dc:format>image/svg+xml</dc:format>
    <dc:type rdf:resource="http://purl.org/dc/dcmitype/StillImage"/>
    <dc:title/>
   </cc:Work>
  </rdf:RDF>
 </metadata>
 <g stroke-linecap="round" stroke-linejoin="round" stroke-width="2.5">
  <path d="m108 123c-4.2-0.488-6.43-2.39-7.5-4.46-0.575-1.11-0.101-2.94 1.31-4.51 0.922-1.03 2.97-2.34 4.21-2.57 0.154-0.0555 2.58-0.742 2.94-0.858-6.57 1.12 0.42 0.85-6.51-8.89-1.37-1.59-1.86-1.76-4.63-4.04-0.53-0.826-5.83-0.485-6.4 6.84-3.72-6.6-1.85-11.7-0.0509-16-3.44 7-2.04 13.5 1.06 17.7-6.03-8.9-9.99-6.2-18.1-6.44 10.8 0.0281 14.9 0.315 18.1 6.44 2.89 5.94-1.76 13.4-9.83 15.7-2.65 0.765-4.94 0.976-8.97 0.824-5.94-0.224-9.42-0.901-12.7-2.48-3.33-1.58-5.47-3.49-6.63-5.91-1.07-2.23-1.02-5.45 0.124-7.92 0.554-1.2 1.41-1.82 4.85-3.53 4.67-2.19 11.9-2.93 15.1-3.13-3.24 0.176-10.5 0.976-15.1 3.13-3.44 1.72-4.18 1.39-4.85 3.53 1.07-2.55 1.52-7.2 1.19-9.85-1.07-4.25-2.48-8.61-2.46-16.2 9e-3 -5.39-0.564-7.85-3.94-16.9-2.16-5.78-2.38-10.2-0.803-16.1 1.06-3.94 2.74-9.61 7.82-12.3l6.69-2.2c-2.65 1.05-5.04 1.58-6.69 2.2-1.36-2.06-3.12-6.19-2.47-6.68-2.36-0.489 1.08-0.304 1.63-0.911-0.52 0.412-0.95 0.793-2.31 1.48-3.55 1.79-5.36 3.7-6.23 5.05-0.271 0.529-1.26 2.46-1.31 2.41-0.0545-0.0545 0.209-1.49 0.478-2.02 0.265-1.12 2.88-4.47 5.47-6.22 0.793-0.534 1.89-1.26 1.9-1.36-4.13-1.31-4.92-1.6-7.54-2.26-2.85-0.241-3.22-0.268-5.6 0.459-0.533 0 1.28 0.44-3.19-8.53 0.458 0.967 2.04 7.6 2.21 8.68 1.66 10.5 0.648 13.6 4.67 25.5 1.5 4.46 3.06 10.3 5.01 14.8 1.84 4.22 2.94 7.65 3.1 12.5 0.159 4.87 0.444 9.04-0.991 13.4-2.16 6.51-6.12 11.8-11.3 15.3-2.56 1.69-2.55 1.7-6.15 2.79-0.526 0.116-1.7 0.149-3.38 0.451 1.41-0.244 0.345-0.108 3.38-0.451 6.4-0.724 14.6 2.34 15.2 6.15 0.107 0.631-0.384 3.2-0.762 3.93-1.28 2.49-5.12 4.39-10.8 4.14-2.96-0.133-12-0.673-13.4-0.993-1.22-0.274-4.59-1.28-5.09-1.92-1.58-2.01-2.04-7.8 3.46-9.74 1.23 0.101 6.35-0.838 8.04-1.1-3.09 0.247-5.42 0.858-8.04 1.1-7.52-1.15-14.8-6.2-18.2-13-1.59-3.16-2.72-6.67-2.9-10.3-0.282-5.77 1.05-12.5 5.54-22.8 3.03-7 4.46-8.76 4.29-15.5-0.0755-2.95-0.0598-5.97-0.484-9.51-0.973-8.14-0.621-13.1 0.649-17.8 1.02-3.76 2.94-7.03 5.85-8.47 2.09-1.03 5.41-1.88 8.47-1.88 25.1 2.57 9.85-0.887 11.7 4.85-0.108 2e-3 -0.812-2.54 2.73-3.68 3.92 0.927 5.29 1.26 6.91 1.83 4.46 1.57 8.67 3.75 11.2 6.35 2.71 3.11 2.13 2.92 3.58 2.79 2.33 0.0733 7.99 0.608 8.21 1.35 0.128 0.422-2.59-0.501-3.54-0.646-5.29-0.536-5-0.47-7.35 0.374-1.5 0.54-5.39 1.96-5.39 1.96s3.12-0.361 5.95-1.08c2.22-0.559 4.3 1.23 7.53 2.72 5.86 2.86 7.73 0.947 1.93 2.75-0.388 0.128-5.9 1.58-5.87 1.66-1.88 0.474-4.25 1.47 0 0l5.87-1.66c5.3-1.78 10.2-0.285 14.5 0.981-4.37-1.28-7.35-2.07-12.3-1.96 5.9 0.44 12.4-2.31 14.9-6.01 0.692-1.52 0.84-1.28 4.05-0.43-4.29-1.76-10-0.297-12.6-0.031 0.104-0.0923 1.43-0.537 2.41-0.797 7.7-1.2 5.87 1.23 6.12 1.26-2e-3 -0.698 3.97-8.45 5.05-10.2 4.02-6.4 10.9-10.9 19.3-12.7 1.71-0.364 2.74-0.446 5.75-0.456 4.21-0.0146 6.05 0.27 9.12 1.41 10.2 3.79 19.6 12.1 26.4 23.3 2.07 3.4 6.24 13.2 8.56 20.1 3.44 10.2 4.51 17.2 4.05 26.2-0.397 7.79-1.65 12.8-4.26 17-1.31 2.13-4.46 5.27-5.96 5.93-2.6 1.15-6.21 1.42-9.12 0.676-5.35-1.36-10.5-5.58-12.9-10.7-2.3-4.78-3.78-10.4-4.52-17.3-0.616-5.7-0.748-10.9-0.656-26.1 0.0465-7.68-3.41-14.5-9.31-18.4-0.787-0.515-1.81-1.27-2.28-1.67-1.72-1.48-3.48-2.08-6.14-2.08-1.94-3e-3 -4.59 0.607-8.5 1.95-4.01 1.2-8.26 5.58-7.86 5.46 1.32-2.17-0.209-1.88-2.68-3.03 2.47 1.11 8.92 4.92 10.9 6.56 1.77 1.49 2.92 2.87 3.73 4.48 0.646 1.29 1.32 3.41 1.09 3.41-0.0946 0-0.32-0.513-0.5-1.14-0.763-2.65-1.62-4.52-4.31-6.75-1.22-0.467-7.55-5.24-8.19-3.53-3.07 5.31 0.439 9.77 2.51 11.9-3.36-3.4-7.92-5.23-11.8-6.5 3.94 1.3 11.6 2.59 16.7 13.9 0.959 1.9 2.15 5.6 2.57 7.97 0.466 2.64 0.474 7.12 0.0176 9.43-0.966 4.88-2.38 8.24-7.08 16.8-2.47 4.52-4.17 7.82-4.16 8.07 5e-3 0.084 3.61-6.95 4.16-8.07-2.24 9.91 4.5 8.97 6.04 14.5-5.28 2.65-2.42 3.53 0.883 6.78l6.51 8.9c3.63-0.724 7.95-0.631 10.6 0.671 2.09 0.979 4.25 3.84 4.93 5.24 0.588 1.21 0.812 2.86 0.234 3.99-0.8 1.56-3.9 2.78-8.35 2.97-2.62 0.0666-5.59-0.0756-8.35-0.472zm44.5-40.5c1.85-0.903 3.37-3.25 4.16-6.42 0.599-2.39 0.643-8.44 0.079-10.8-0.824-3.52-5.07-15.4-7.8-21.8-3.02-7.1-7.56-15.5-10.5-19.4-5.48-7.3-12.1-11.3-19.6-12-6.72-0.674-18.7 1.31-25.5 8.19 6.77-6.87 17.3-8.89 25.5-8.19 7.51 0.87 15.6 6.69 19.6 12 1.39 2.86 7.8 10.5 4.17 10.2-2.23 0.0773-4.13-0.334-6.01-0.507 1.84 0.681 4.88-0.512 7.32 2.56 3.97 3.64-3.34 3-4.52 2.99 1.4 0.49 3.67-0.828 6.05 1.27 5.96 5.62 5.78 13.9 6.3 15.6 0.166 0.549-0.235 0.703-1.16 0.447-1.15-0.318 0.469-3.67-2.3-7.41-2.88-3.88-7.86-4.27-8.13-4.27-0.319 0 4.97 2.37 5.82 2.81 1.56 0.811 2.04 1.88 3.23 3.28 1.23 1.43-3.21 1.9-4.43 0.724-0.822-0.795-3.37-2.3-3.66-2.3-0.183 0 7.01 5.3 7.43 6.12 0.767 1.48 0.586-0.0514 3.8 3.16 5.03 5.02 1.15 6.91 2.22 9.72 0.725 1.91 0.898 5.81 0.211 7.28-1.4 3-3.06 3.03-8.48-3.9-3.21-4.11-5.19-6.74-5.46-6.34-0.34 0.505 0.282 2.34 0.752 3.48 0.938 2.28 2.97 4.42 7.26 9.14 1.36 1.5 4.79 1.88 4.68 1.95-0.506-0.375-2.99 0.892-3.49 0.672-1.4-0.618-5.37-0.28-9.2-5.44-1.47-1.45-4.01-5.6-4.03-4.62 0.059 3.89 7.07 8.81 10.3 10.7 2.14 1.25 3.71 2 5.42 1.17zm0.269-9.52c-3.01-1.83-5.13-6.65-0.859-3.42 1.74 1.37 0.82 0.758 1.07 0.418 0.438-0.599 0.306-1.54-0.42-2.99-0.901-1.79 2.59-2.03-1.2-6.01-1.72-1.81-8.33-4.5-9.1-5.42-1.62-1.94-2.9-2.65-3.07-2.48-0.371 0.697 20.3 14.4 10.6 10.3 1.21 1.23 0.83 3.22 0.77 3.28 3.86-0.742 2.02 0.118-1.76-0.884-1.39-1.36-6.13-5.06-6.72-4.15 14.5 13.7 1.53 6.41 12.9 16.2 0.177 0-2.24-4.7-2.18-4.85zm-95.6-47c-2.4 0.591-1.53 0.841-1.03 0.644-0.359 0.262-1.27 0.655-0.721 0.942 11.6-6.36 1.52-1.5 1.75-1.59zm-1.03 0.644c-0.983-1.36-1.54-1.61-2.46-2.54-2.88-2.84-4.4-3.86-6.84-5.12-2.75-1.18-3.37-1.16-6.45-2.05l-3.3-0.331 3.3 0.331c2.58 0.709 5.36 1.5 6.45 2.05 4.44 2.62 3.58 2.19 6.84 5.12 1.27 1.16 1.55 1.31 2.46 2.54z" fill="#ff4800" stroke="#fff" style="paint-order:markers fill stroke"/>
  <ellipse transform="rotate(-2.57)" cx="67.1" cy="54.6" rx="3.44" ry="6.25" fill="#fff" style="paint-order:markers stroke fill"/>
  <ellipse transform="rotate(96.1)" cx="42.9" cy="-87.9" rx="2.68" ry="5.58" fill="#fff" style="paint-order:markers stroke fill"/>
 </g>
</svg>
