<?xml version="1.0" encoding="UTF-8" standalone="no"?>
<!-- Created with Inkscape (http://www.inkscape.org/) -->

<svg
   xmlns:dc="http://purl.org/dc/elements/1.1/"
   xmlns:cc="http://creativecommons.org/ns#"
   xmlns:rdf="http://www.w3.org/1999/02/22-rdf-syntax-ns#"
   xmlns:svg="http://www.w3.org/2000/svg"
   xmlns="http://www.w3.org/2000/svg"
   xmlns:sodipodi="http://sodipodi.sourceforge.net/DTD/sodipodi-0.dtd"
   xmlns:inkscape="http://www.inkscape.org/namespaces/inkscape"
   width="7.5256557mm"
   height="5.2916751mm"
   viewBox="0 0 7.5256557 5.2916751"
   version="1.1"
   id="svg4709"
   inkscape:version="0.92.4 (5da689c313, 2019-01-14)"
   sodipodi:docname="about.svg">
  <defs
     id="defs4703" />
  <sodipodi:namedview
     id="base"
     pagecolor="#ffffff"
     bordercolor="#666666"
     borderopacity="1.0"
     inkscape:pageopacity="0.0"
     inkscape:pageshadow="2"
     inkscape:zoom="2.8"
     inkscape:cx="-23.687678"
     inkscape:cy="37.896527"
     inkscape:document-units="mm"
     inkscape:current-layer="layer1"
     showgrid="false"
     fit-margin-top="0"
     fit-margin-left="0"
     fit-margin-right="0"
     fit-margin-bottom="0"
     inkscape:window-width="1920"
     inkscape:window-height="1001"
     inkscape:window-x="-9"
     inkscape:window-y="-9"
     inkscape:window-maximized="1" />
  <metadata
     id="metadata4706">
    <rdf:RDF>
      <cc:Work
         rdf:about="">
        <dc:format>image/svg+xml</dc:format>
        <dc:type
           rdf:resource="http://purl.org/dc/dcmitype/StillImage" />
        <dc:title></dc:title>
      </cc:Work>
    </rdf:RDF>
  </metadata>
  <g
     inkscape:label="Layer 1"
     inkscape:groupmode="layer"
     id="layer1"
     transform="translate(-108.28019,-41.744967)">
    <path
       style="fill:#ffffff;fill-opacity:1;stroke:#ffffff;stroke-width:0.04144862px;stroke-linecap:butt;stroke-linejoin:miter;stroke-opacity:1"
       d="m 113.64654,41.765692 c -0.43919,1.03e-4 -0.92845,0.222421 -1.06785,0.669195 -0.0746,0.166898 -0.0858,0.398347 -0.31036,0.283831 -0.29704,0.0376 0.49248,0.155346 0.11631,0.319295 -0.21489,-0.05437 -0.59055,0.115861 -0.69839,-0.0871 0.0432,-0.165968 0.52113,-0.01674 0.18606,-0.158098 -0.34853,-0.06137 -0.43584,-0.607692 -0.81354,-0.737041 -0.5314,-0.361432 -1.30054,-0.236795 -1.72761,0.232268 -0.5357,0.567317 -0.88611,1.307352 -1.01671,2.0741 -0.023,0.365672 -0.042,0.795096 0.17604,1.104483 0.32026,0.408822 1.01639,0.512246 1.38617,0.120546 0.37319,-0.430722 0.34954,-1.0281 0.3164,-1.56031 0.0226,-0.381066 0.0113,-0.800725 0.22718,-1.132064 0.19044,-0.249312 0.75038,-0.309169 0.87418,-0.02409 -0.14065,0.04454 -0.55425,0.193177 -0.40976,0.345044 0.1406,-0.114936 0.61265,-0.459402 0.53897,-0.04642 -0.21668,0.280634 -0.57194,0.526727 -0.53324,0.92694 0.0418,0.491664 0.27684,0.940591 0.39265,1.416803 0.19328,0.355825 0.0247,0.688417 -0.022,1.039703 0.0728,0.360273 0.5061,0.434865 0.8143,0.463139 0.30903,-6.42e-4 0.71489,-0.05908 0.85416,-0.377287 0.0788,-0.340697 -0.3386,-0.576349 -0.15365,-0.933752 0.0907,-0.524637 0.36632,-0.998146 0.45353,-1.521573 0.0641,-0.347146 -0.16667,-0.638533 -0.40112,-0.863905 -0.12583,-0.08492 -0.29237,-0.494899 -0.0309,-0.243372 0.0788,0.129205 0.38264,0.435684 0.22113,0.102382 -0.0817,-0.140393 -0.42462,-0.332143 -0.0609,-0.348078 0.33444,-0.121877 0.76608,-0.06088 0.93745,0.289035 0.22616,0.411512 0.0583,0.893241 0.11007,1.335903 0.0207,0.50604 0.16814,1.092948 0.62967,1.371475 0.34,0.19117 0.87517,0.09785 0.99562,-0.315315 0.33346,-0.784083 0.0715,-1.658336 -0.25759,-2.396962 -0.18632,-0.51446 -0.60757,-0.914619 -1.06687,-1.191589 -0.20366,-0.102404 -0.43128,-0.157467 -0.65935,-0.157177 z m 0.023,0.544823 c 0.54495,-0.0075 0.94501,0.454812 1.16217,0.908252 0.2275,0.456167 0.43453,0.934051 0.53689,1.434238 0.0466,0.263164 -0.0755,0.7394 -0.42961,0.588615 -0.20622,-0.07633 -0.45625,-0.563047 -0.30057,-0.630817 0.0873,0.1119 0.41933,0.463541 0.47628,0.241025 -0.18594,-0.220444 -0.54064,-0.349366 -0.57429,-0.666778 0.1373,-0.141134 0.36831,0.505082 0.54834,0.295608 -0.087,-0.263315 -0.50223,-0.377339 -0.53499,-0.609477 0.12827,0.027 0.47723,0.394757 0.46606,0.24534 -0.0809,-0.156889 -0.51138,-0.412548 -0.36969,-0.52683 0.10485,0.08407 0.30159,0.165052 0.13709,-0.02616 -0.0822,-0.09368 -0.38853,-0.415412 -0.078,-0.380973 -0.29206,-0.225849 -0.41544,-0.670795 -0.82342,-0.736477 -0.37222,-0.08632 -0.7618,0.03829 -1.07658,0.237879 0.0865,-0.296941 0.59027,-0.342147 0.8603,-0.373442 z"
       id="path4684"
       inkscape:connector-curvature="0" />
  </g>
</svg>
