<?xml version="1.0" encoding="UTF-8" standalone="no"?>
<!-- Created with Inkscape (http://www.inkscape.org/) -->

<svg
   xmlns:dc="http://purl.org/dc/elements/1.1/"
   xmlns:cc="http://creativecommons.org/ns#"
   xmlns:rdf="http://www.w3.org/1999/02/22-rdf-syntax-ns#"
   xmlns:svg="http://www.w3.org/2000/svg"
   xmlns="http://www.w3.org/2000/svg"
   xmlns:sodipodi="http://sodipodi.sourceforge.net/DTD/sodipodi-0.dtd"
   xmlns:inkscape="http://www.inkscape.org/namespaces/inkscape"
   width="4.4434547mm"
   height="5.2916207mm"
   viewBox="0 0 4.4434548 5.2916207"
   version="1.1"
   id="svg46"
   inkscape:version="0.92.4 (5da689c313, 2019-01-14)"
   sodipodi:docname="contest.svg">
  <defs
     id="defs40" />
  <sodipodi:namedview
     id="base"
     pagecolor="#ffffff"
     bordercolor="#666666"
     borderopacity="1.0"
     inkscape:pageopacity="0.0"
     inkscape:pageshadow="2"
     inkscape:zoom="1.979899"
     inkscape:cx="-3.0319628"
     inkscape:cy="154.953"
     inkscape:document-units="mm"
     inkscape:current-layer="layer1"
     showgrid="false"
     fit-margin-top="0"
     fit-margin-left="0"
     fit-margin-right="0"
     fit-margin-bottom="0"
     inkscape:window-width="1920"
     inkscape:window-height="1001"
     inkscape:window-x="-9"
     inkscape:window-y="-9"
     inkscape:window-maximized="1" />
  <metadata
     id="metadata43">
    <rdf:RDF>
      <cc:Work
         rdf:about="">
        <dc:format>image/svg+xml</dc:format>
        <dc:type
           rdf:resource="http://purl.org/dc/dcmitype/StillImage" />
        <dc:title></dc:title>
      </cc:Work>
    </rdf:RDF>
  </metadata>
  <g
     inkscape:label="Layer 1"
     inkscape:groupmode="layer"
     id="layer1"
     transform="translate(-62.326349,-165.28932)">
    <path
       style="fill:#ffffff;stroke:#ffffff;stroke-width:0.02265985px;stroke-linecap:butt;stroke-linejoin:miter;stroke-opacity:1"
       d="m 64.834842,165.30078 c -0.431331,0.005 -0.864467,0.0156 -1.29367,0.0486 -0.272691,-0.005 -0.240935,0.33042 -0.369836,0.40309 -0.240577,-0.10974 -0.565407,-0.0919 -0.70632,0.14205 -0.17957,0.19231 -0.117068,0.45984 -0.115735,0.68996 0.05069,0.51032 0.416863,1.00527 0.974341,1.16248 0.270028,0.10834 0.627826,0.13965 0.76424,0.41186 0.235754,0.42412 0.160377,0.94488 -0.09615,1.34732 -0.143864,0.28895 -0.324098,0.5761 -0.363325,0.89483 0.11551,0.19356 0.469418,0.14768 0.691179,0.16863 0.412932,-0.005 0.851012,-0.008 1.226524,-0.18186 0.194388,-0.10107 -0.02517,-0.3316 -0.07564,-0.4596 -0.215624,-0.33136 -0.546248,-0.64054 -0.537188,-1.05006 -0.0015,-0.33477 0.03204,-0.71062 0.288041,-0.97265 0.288105,-0.17137 0.653018,-0.24999 0.882782,-0.4975 0.25974,-0.22765 0.529198,-0.47274 0.605632,-0.80485 0.09084,-0.32969 0.08219,-0.76788 -0.268114,-0.97403 -0.196166,-0.14801 -0.441885,-0.0202 -0.61847,0.0207 -0.02177,-0.2808 -0.318495,-0.36611 -0.590096,-0.34467 -0.132673,-0.004 -0.265459,-0.005 -0.3982,-0.004 z m 0.09487,0.10032 c 0.174362,0.0154 0.518795,-0.0391 0.590237,0.0982 -0.220631,0.18126 -0.547525,0.18737 -0.829619,0.22171 -0.396927,0.0177 -0.834499,0.05 -1.182827,-0.15574 -0.07283,-0.16741 0.330678,-0.10643 0.468858,-0.13099 0.317657,-0.0139 0.635141,-0.0337 0.953351,-0.0332 z m 1.154213,0.56159 c 0.222251,0.0922 0.199903,0.4024 0.133882,0.58452 -0.114035,0.28618 -0.347839,0.51692 -0.570552,0.73903 -0.140167,-0.0712 0.07513,-0.38524 0.07187,-0.54489 0.05602,-0.23448 -0.03714,-0.55208 0.189117,-0.72173 0.05197,-0.0309 0.111839,-0.0577 0.175684,-0.0569 z m -2.958259,0.0524 c 0.196868,0.12287 0.06715,0.43268 0.156412,0.62913 0.06725,0.25662 0.09964,0.52543 0.249212,0.75766 0.150088,0.23864 -0.276832,0.007 -0.317929,-0.0886 -0.287473,-0.27274 -0.409942,-0.66741 -0.394661,-1.03701 0.0044,-0.15129 0.134646,-0.27215 0.306966,-0.26118 z m 1.408015,0.15317 c 0.128769,0.076 0.192645,0.39609 0.431305,0.22053 0.463312,-0.45415 0.069,0.6447 -0.0772,0.89159 -0.183802,0.12759 -0.52501,0.22501 -0.682807,0.0171 -0.105904,-0.22814 -0.222945,-0.45307 -0.266342,-0.69864 -0.13799,-0.25229 0.166239,-0.14633 0.309905,-0.11461 0.202422,-0.0152 0.134854,-0.27714 0.285143,-0.31598 z m 0.564251,3.49336 c 0.177558,0.1348 -0.181602,0.23761 -0.30611,0.24086 -0.257587,0.0249 -0.542795,0.0213 -0.767469,-0.10889 0.002,-0.22121 0.387264,0.0367 0.554312,-0.0296 0.177753,0.001 0.363506,-0.0203 0.519267,-0.10234 z m 0.244095,0.48721 c 0.146035,0.25028 -0.346266,0.27117 -0.536959,0.2725 -0.318403,0.009 -0.644524,0.005 -0.953555,-0.0683 -0.131042,-0.31209 0.348396,-0.10667 0.545329,-0.1412 0.315779,0.007 0.638387,0.0156 0.945185,-0.063 z"
       id="path33"
       inkscape:connector-curvature="0"
       sodipodi:nodetypes="cccccccccccccccccccccccccccccccccccccccccccccccccccccccc" />
  </g>
</svg>
