<?xml version="1.0" encoding="UTF-8" standalone="no"?>
<!-- Created with Inkscape (http://www.inkscape.org/) -->

<svg
   xmlns:dc="http://purl.org/dc/elements/1.1/"
   xmlns:cc="http://creativecommons.org/ns#"
   xmlns:rdf="http://www.w3.org/1999/02/22-rdf-syntax-ns#"
   xmlns:svg="http://www.w3.org/2000/svg"
   xmlns="http://www.w3.org/2000/svg"
   xmlns:sodipodi="http://sodipodi.sourceforge.net/DTD/sodipodi-0.dtd"
   xmlns:inkscape="http://www.inkscape.org/namespaces/inkscape"
   version="1.1"
   id="svg2"
   xml:space="preserve"
   width="969.33331"
   height="577.33331"
   viewBox="0 0 969.33331 577.33331"
   sodipodi:docname="blackboard.svg"
   inkscape:export-filename="blackboard.svg.png"
   inkscape:export-xdpi="96"
   inkscape:export-ydpi="96"
   inkscape:version="0.92.4 (5da689c313, 2019-01-14)"><metadata
     id="metadata8"><rdf:RDF><cc:Work
         rdf:about=""><dc:format>image/svg+xml</dc:format><dc:type
           rdf:resource="http://purl.org/dc/dcmitype/StillImage" /><dc:title></dc:title></cc:Work></rdf:RDF></metadata><defs
     id="defs6" /><sodipodi:namedview
     pagecolor="#ffffff"
     bordercolor="#666666"
     borderopacity="1"
     objecttolerance="10"
     gridtolerance="10"
     guidetolerance="10"
     inkscape:pageopacity="0"
     inkscape:pageshadow="2"
     inkscape:window-width="1920"
     inkscape:window-height="1001"
     id="namedview4"
     showgrid="false"
     inkscape:zoom="1.100052"
     inkscape:cx="420.76586"
     inkscape:cy="345.0941"
     inkscape:window-x="-9"
     inkscape:window-y="-9"
     inkscape:window-maximized="1"
     inkscape:current-layer="g10" /><g
     id="g10"
     inkscape:groupmode="layer"
     inkscape:label="ink_ext_XXXXXX"
     transform="matrix(1.3333333,0,0,-1.3333333,0,577.33333)"><g
       id="g12"
       transform="scale(0.1)"><path
         d="m 5478.55,14.6016 c 9.42,6.3672 9.77,11.7187 2,28.789 -14.03,30.7383 -11.84,38.4805 9.72,34.3789 17.97,-3.4414 19.07,-1.7578 15.67,25.0395 -6.17,48.941 -2.58,114.453 9.22,168.75 6.25,28.632 14.84,77.222 19.14,108 4.33,30.82 9.88,65 12.34,76.019 2.46,10.981 5.98,27.192 7.81,35.981 1.84,8.82 9.03,42.339 15.94,74.531 6.95,32.18 12.62,76.289 12.62,98 0,30.359 2.85,39.5 12.42,39.5 17.19,0 75.43,-34.18 75.51,-44.301 0.11,-13.398 34.26,-12.109 56.01,2.109 26.33,17.192 192.07,180.192 192.07,188.911 0,6.832 55.78,76.211 98.79,122.89 l 23.6,25.621 20.82,-16.371 c 38.36,-30.148 71.64,-39.801 105.82,-30.578 17.03,4.57 30.97,11.207 30.97,14.719 0,3.519 8.09,10.16 17.97,14.769 9.92,4.61 45.55,31.991 79.22,60.861 67.89,58.2 98.44,109.02 105.86,176.05 7.54,68.56 -26.13,136.65 -84.8,171.53 -11.96,7.11 -23.68,17.93 -26.06,24.06 -2.34,6.13 9.73,40.55 26.8,76.45 47.42,99.61 48.71,103.9 36.33,120.86 -10.36,14.14 -9.42,77.1 1.64,108.39 14.57,41.37 16.99,367.86 3.04,416.02 -5.7,19.8 -10.97,45 -11.68,55.98 -1.83,29.29 -19.96,88 -27.14,88 -3.4,0 -28.48,21.8 -55.71,48.48 -29.22,28.59 -53.32,46.09 -58.75,42.73 -5.43,-3.32 -7.03,-2.18 -3.94,2.86 5.78,9.33 -30.47,39.96 -98.79,83.47 -55.47,35.32 -96.13,69.18 -193.52,161.21 -77.26,73.01 -158.63,141.64 -176.87,149.26 -5.28,2.19 -31.21,17.97 -57.62,35.08 -41.84,27.11 -66.21,44.88 -105.66,77.03 -5.32,4.34 -12.86,7.89 -16.76,7.89 -3.91,0 -13.6,7.19 -21.56,16.02 -7.97,8.79 -18.17,15.97 -22.62,15.97 -4.49,0 -13.83,5.16 -20.78,11.45 -6.96,6.29 -21.64,16.29 -32.62,22.19 -109.3,58.67 -372.19,226.52 -391.76,250.11 -5.19,6.25 -33.47,19.22 -62.85,28.83 -29.37,9.61 -59.61,22.93 -67.19,29.53 -26.32,22.93 -70.47,8.09 -155.5,-52.26 -43.29,-30.71 -88.13,-65.35 -99.69,-76.96 -20.24,-20.27 -21.6,-20.54 -36.92,-6.99 -28.12,24.92 -113.16,129.1 -126.68,155.28 -16.29,31.44 -20.97,142.1 -9.1,215.15 8.24,50.82 9.46,52.78 41.1,66.72 22.34,9.88 70.78,17.15 153.9,23.16 107.23,7.78 129.1,7.19 188.01,-5.27 84.57,-17.81 181.25,-47.85 224.84,-69.84 35.94,-18.09 127.11,-72.07 133.83,-79.18 9.57,-10.16 111.41,-86.8 146.68,-110.39 73.48,-49.18 126.25,-71.1 237.35,-98.52 78.75,-19.45 90.07,-18.9 130.15,6.21 56.88,35.67 69.38,54.34 81.45,121.53 13,72.61 13.24,83.47 2.85,124.88 -7.5,29.88 -6.6,32.69 17.07,51.99 18.83,15.39 27.66,31.95 35.9,67.31 14.22,61.17 7.89,103.59 -27.54,185.07 -7.66,17.62 -20.31,50 -28.17,72 -7.81,22.03 -20.5,48.16 -28.16,58.08 -29.02,37.54 -192.77,141.25 -266.8,168.95 -60,22.46 -200.62,42.22 -304.76,42.89 -90.78,0.58 -163.63,-14.42 -240,-49.34 -17.62,-8.05 -48.21,-21.17 -68.01,-29.18 -19.8,-7.97 -45,-20.39 -55.98,-27.58 -11.01,-7.18 -63.2,-34.1 -116.01,-59.84 -52.81,-25.7 -97.81,-49.02 -100,-51.76 -2.19,-2.73 -27.42,-11.79 -56.02,-20.11 -28.59,-8.33 -62.15,-23.44 -74.61,-33.64 -12.42,-10.15 -27.73,-18.47 -33.98,-18.47 -6.29,0 -11.45,-4.5 -11.52,-10 -0.2,-17.54 -15.63,12.65 -15.75,30.89 -0.08,9.3 -8.75,29.57 -19.29,45.12 -18.44,27.19 -18.75,29.92 -8.29,74.92 5.98,25.67 9.22,53.99 7.23,62.89 -5.47,24.57 -12.15,60.86 -17.26,94.18 -2.54,16.53 -7.97,30 -12.04,30 -4.1,0 -5.35,3.36 -2.81,7.46 2.54,4.11 0.86,9.73 -3.67,12.54 -4.53,2.82 -6.21,8.44 -3.67,12.54 5.39,8.71 -34.18,47.46 -48.52,47.46 -25.35,0 -26.68,-20.62 -3.43,-55.19 12.85,-19.14 21.28,-38.09 18.78,-42.15 -2.5,-4.02 -0.31,-12.46 4.89,-18.71 7.65,-9.22 12.85,-85.35 8.86,-129.92 -2.57,-28.67 -59.29,19.68 -61.56,52.42 -3.4,49.57 -29.53,75.62 -75.12,75 -25.27,-0.35 -35.31,3.98 -48.59,20.86 -9.22,11.72 -18.67,30.94 -21.05,42.77 -2.35,11.84 -10.63,23.17 -18.36,25.2 -8.48,2.22 -16.1,14.65 -19.26,31.4 -2.85,15.24 -15.78,39.57 -28.75,54.07 -21.25,23.78 -27.74,26.32 -66.72,25.97 -44.88,-0.39 -106.37,-15.08 -123.24,-29.41 -5.39,-4.57 -27.85,-20.9 -49.92,-36.29 -22.07,-15.39 -40.2,-32.5 -40.24,-38.01 -0.04,-5.51 -3.12,-10 -6.8,-10 -3.71,0 -10.78,-8.9 -15.74,-19.76 -4.96,-10.86 -26.79,-46.61 -48.51,-79.46 -21.76,-32.81 -41.96,-70.66 -44.89,-84.14 -2.96,-13.44 -8.71,-26.52 -12.77,-29.02 -4.06,-2.5 -7.42,-12.46 -7.5,-22.11 -0.08,-9.61 -4.77,-30.78 -10.39,-46.99 -9.8,-28.17 -10.74,-28.75 -20.59,-13.01 -5.66,9.06 -16.71,36.72 -24.61,61.48 l -14.29,45 30.39,2.43 c 33.75,2.69 50.43,16.87 42.93,36.44 -3.95,10.31 -13.91,12.19 -50.2,9.53 -78.55,-5.78 -239.22,-5.82 -413.12,-0.12 -92.42,3.05 -225.59,5.2 -296.02,4.77 -316.25,-1.84 -390.78,-1.48 -472.65,2.34 -90.39,4.18 -547.66,10.04 -1295.32,16.61 -237.61,2.07 -468,5.74 -512.032,8.16 -43.976,2.42 -163.59,5.66 -265.777,7.23 -213.789,3.2 -210.191,4.25 -194.301,-57.35 5.391,-20.93 11.211,-68.63 12.93,-106.01 3.281,-71.1 2.89,-340.75 -0.539,-396.02 -1.102,-17.62 -4.571,-69.8 -7.742,-116.01 -3.2,-46.18 -7.579,-163.21 -9.797,-260 -2.231,-96.8 -4.492,-193.99 -5.082,-215.98 -0.59,-21.99 1.949,-103.01 5.66,-180 3.68,-76.99 7.859,-163.4 9.219,-191.99 1.371,-28.64 4.531,-122.23 7.031,-208.01 2.5,-85.82 7.43,-199.22 10.98,-251.99 8.91,-133.56 5.121,-546.92 -5.23,-573.25 -9.031,-22.96 -0.711,-67.81 12.109,-65.27 38.352,7.62 383.821,18.83 396.051,12.85 3.012,-1.44 -6.211,-23.28 -20.43,-48.51 -29.218,-51.68 -85.082,-167.42 -85.082,-176.25 0,-5.82 -16.558,-38.28 -53.316,-104.53 -10.703,-19.26 -17.852,-36.57 -15.902,-38.48 1.921,-1.91 -6.911,-14.88 -19.649,-28.83 C 425.43,1087.42 415,1072.14 415,1067.38 c 0,-13.32 -19.262,-51.68 -25.98,-51.76 -3.321,0 -6.008,-5.43 -6.008,-12.03 0,-6.602 -2.973,-12.031 -6.602,-12.031 -3.601,0 -18.75,-26.098 -33.64,-57.969 C 327.891,901.672 311.051,870.809 305.352,864.988 299.648,859.172 295,850.578 295,845.852 295,836.871 278.359,800.969 173.359,583.59 138.281,510.969 104.609,440.77 98.5898,427.57 68.3594,361.629 39.0195,294.02 39.0195,290.27 c 0,-2.309 -7.1797,-13.282 -15.8984,-24.379 -8.7422,-11.09 -13.94141,-23.403 -11.5195,-27.262 2.3789,-3.867 0.4687,-7.07 -4.26176,-7.07 -14.48828,0 -5.82031,-51.137 11.05856,-64.969 11.6407,-9.531 21.9102,-11.25 38.8711,-6.36 12.6524,3.629 45.2305,4.532 72.3785,2.032 99.454,-9.184 111.762,-8.172 113.442,9.297 3.238,33.242 20.82,83.472 46.558,132.89 14.653,28.121 34.692,78.121 44.571,111.129 9.84,33.012 24.332,74.371 32.191,91.992 14.211,31.918 42.891,103.871 68.512,171.989 16.129,42.972 38.277,91.57 100.238,220 25.461,52.82 66.481,139.221 91.129,192.001 24.652,52.81 48.242,101.4 52.422,108 4.141,6.61 20.738,38.13 36.879,70 16.129,31.92 32.5,58.01 36.359,58.01 3.871,0 7.071,6.76 7.071,15 0,8.28 5.511,19.65 12.269,25.24 19.02,15.78 69.492,110.39 63.832,119.57 -2.851,4.64 3,8.51 13.399,8.9 45.269,1.8 238.47,-1.33 366.48,-5.9 150.7,-5.39 176.6,-5.86 231.99,-4.37 19.81,0.51 106.21,-0.43 192.03,-2.15 85.78,-1.68 182.97,-3.4 215.98,-3.75 l 60,-0.62 3.71,-53.95 c 5.55,-80.2 0.9,-435.778 -6.68,-513.981 -6.21,-64.028 -5.7,-193.09 2.5,-627.188 2.7,-142.851 5.9,-185.6718 14.65,-194.4218 7.62,-7.5703 36.25,-12.1094 89.14,-14.0976 42.89,-1.5625 75.86,-0.7813 73.28,1.7578 -2.54,2.582 0.51,10.3515 6.8,17.3125 13.75,15.1481 14.33,26.6371 1.83,34.3671 -6.83,4.223 -9.64,175.082 -10.85,657.852 -1.1,434.999 -4.46,657.349 -10,667.779 -13.13,24.45 -10.59,26.44 25.62,20.15 18.71,-3.24 170.82,-7.11 338.01,-8.63 167.19,-1.49 336.4,-4.42 376.01,-6.52 39.57,-2.08 124.89,-6.25 189.57,-9.3 64.69,-3.01 117.23,-7.62 116.76,-10.28 -1.37,-7.34 10.59,-33.16 33.63,-72.77 25.2,-43.32 48.17,-99.76 51.96,-127.62 4.92,-36.36 74.22,-247.38 92.69,-282.259 4.07,-7.66 7.39,-18.871 7.39,-24.961 0,-6.101 7.46,-34.031 16.56,-62.109 9.14,-28.09 17.77,-56.449 19.22,-63.051 1.4,-6.601 10.15,-33.48 19.41,-59.73 9.22,-26.25 16.8,-52.262 16.8,-57.77 0,-5.55 9.37,-30.859 20.82,-56.289 26.44,-58.711 28.55,-64.332 54.69,-146.211 11.95,-37.379 23.9,-73.398 26.52,-80 2.66,-6.601 5.7,-17.379 6.76,-23.98 1.01,-6.602 5.78,-22.82 10.5,-36.02 4.77,-13.199 19.85,-58.199 33.56,-100 13.71,-41.8 28.16,-80 32.07,-84.84 3.91,-4.89 8.48,-20.351 10.08,-34.378 2.97,-25.391 20.23,-44.3325 46.99,-51.5239 7.7,-2.0664 14.02,-0.3867 14.02,3.793 0,4.4883 6.06,4.2578 15.16,-0.5898 8.32,-4.4922 34.45,-10.3907 58.01,-13.1602 35,-4.1016 46.21,-2.3125 60.82,9.8398 l 17.93,14.8477 -19.38,40.0004 c -10.66,22.031 -25.27,61.601 -32.5,88 -11.79,43.281 -23.75,75.281 -57.22,153.211 -5.98,13.859 -10.82,27.73 -10.82,30.781 0,3.039 -6.68,15.121 -14.85,26.789 -12.26,17.539 -19.88,36.84 -28.87,73.25 -0.5,2.18 -6.71,14.762 -13.75,27.969 -25.82,48.511 -107.69,317.261 -114.57,376.011 -1.05,8.789 -6.09,26.801 -11.25,40 -5.15,13.2 -14.41,38.399 -20.54,56.02 -42.19,121.29 -79.03,219.37 -89.73,239.02 -15.7,28.75 -66.44,171.76 -66.44,187.23 0,9.53 12.26,10.43 73.98,5.31 40.7,-3.36 86.6,-7.11 101.99,-8.32 76.64,-6.06 248.95,-3.32 262.97,4.18 12.42,6.64 14.69,13.83 11.02,34.49 -7.39,41.21 -1.14,251.29 10.04,338.09 2.81,21.64 13.63,181.6 15.31,225.97 0.97,26.1 15.82,23.21 117.97,-23.12 49.88,-22.66 95.04,-41.25 100.35,-41.37 5.31,-0.08 11.52,-4.96 13.75,-10.82 2.26,-5.9 10.15,-10.66 17.5,-10.66 7.38,0 39.02,-12.23 70.27,-27.11 94.53,-45.08 148.91,-68.91 157.07,-68.91 9.65,0 9.73,-8.51 0.2,-23.59 -5.32,-8.36 -0.32,-18.32 18.12,-35.98 13.99,-13.44 44.49,-47.81 67.82,-76.44 60.5,-74.26 128.98,-150 227.42,-251.53 47.18,-48.63 106.56,-110.08 131.99,-136.44 41.76,-43.4 177.42,-170.78 238.2,-223.71 13.21,-11.49 42.03,-32.97 64.03,-47.74 21.99,-14.72 46.83,-34.37 55.15,-43.63 8.36,-9.221 31.68,-26.49 51.88,-38.319 20.19,-11.8 40.35,-24.453 44.84,-28.05 4.45,-3.629 16.91,-13.282 27.62,-21.481 l 19.53,-14.89 -17.07,-87.098 C 5171.76,710.578 5167.11,683.98 5162.3,643.59 c -2.07,-17.621 -5.78,-37.418 -8.2,-44.031 -4.45,-12.137 -12.73,-159.61 -12.42,-221.989 0.08,-18.711 -1.56,-33.98 -3.59,-33.98 -2.07,0 -11.29,6.988 -20.51,15.582 -34.46,32.109 -72.03,44.457 -130.59,42.969 -73.63,-1.911 -108.47,-9.262 -128.01,-27.032 -8.78,-8.007 -23.86,-17.5 -33.51,-21.05 -24.06,-8.911 -106.45,-89.418 -115.27,-112.618 -3.95,-10.39 -7.19,-29.492 -7.19,-42.382 0,-12.93 -3.36,-23.481 -7.42,-23.481 -7.15,0 -4.93,-46.367 2.57,-53.828 2.04,-2.031 31.37,-5.191 65.24,-7.07 33.87,-1.84 64.72,-5.309 68.59,-7.731 3.87,-2.39 7.03,-1.25 7.03,2.5 0,3.711 30.78,7.34 68.4,8 79.34,1.449 91.56,-8.32 56.41,-45.0271 l -21.29,-22.1914 30.23,-12.7422 c 16.64,-7.0274 35.63,-13 42.23,-13.3164 6.6,-0.3516 75,-2.2617 151.99,-4.3321 77.03,-2.0312 176.02,-5.8203 220,-8.3984 47.35,-2.76952 84.73,-1.49218 91.56,3.1602 z m -223.9,44.5703 c -72.42,2.5781 -152.07,8.6679 -177.07,13.5195 -44.65,8.668 -45.31,9.1797 -37.54,29.8396 17.58,46.797 43.44,73.668 94.22,97.809 44.22,21.058 56.83,23.68 91.99,19.18 67.5,-8.668 99.49,-19.329 104.41,-34.918 2.58,-8.043 13.6,-18.672 24.5,-23.633 10.93,-5 19.84,-12.071 19.84,-15.699 0,-3.68 7.5,-14.731 16.68,-24.571 24.49,-26.2888 33.67,-63.3592 16.64,-67.2693 -7.34,-1.6797 -15.27,-2.1094 -17.66,-1.0078 -2.42,1.1289 -63.59,4.1679 -136.01,6.75 z m -167.66,35.9375 c 0,4.6523 -3.59,8.4806 -7.97,8.4806 -4.41,0 -8,-1.602 -8,-3.559 0,-1.9099 3.59,-5.7419 8,-8.4724 4.38,-2.6992 7.97,-1.1367 7.97,3.5508 z M 3657.27,130.422 c -7.62,7.187 -5.28,14.957 10.58,35.199 11.17,14.258 23.48,25.938 27.35,25.938 6.95,0 23.67,-49.77 23.75,-70.629 0.07,-12.578 -45.86,-5.508 -61.68,9.492 z m 1783.12,55.387 c 3.95,17.582 8.63,48.601 10.43,68.871 7.34,84.058 13.91,167.308 16.13,204.879 7.15,121.179 13.56,180.39 23.64,218.601 6.21,23.399 9.92,49.531 8.32,58.012 -3.52,18.117 13.79,20.656 27.54,4.058 13.2,-15.859 18.12,-91.531 8.16,-124.851 -4.61,-15.27 -13.4,-58.391 -19.61,-95.82 -6.17,-37.379 -13.48,-80.039 -16.21,-94.758 -8.79,-47.231 -27.38,-164.063 -31.99,-201.211 -2.5,-19.809 -7.74,-45.82 -11.68,-57.852 -4.34,-13.289 -4.22,-23.636 0.35,-26.449 4.14,-2.578 7.46,-8.949 7.34,-14.18 -0.08,-5.23 -6.79,-0.937 -14.88,9.61 -12.03,15.66 -13.4,24.922 -7.54,51.09 z m -3445,-50.887 c -4.57,7.457 31.91,40.656 44.69,40.656 14.69,0 6.01,-30 -11.06,-38.238 -23,-11.102 -28.04,-11.449 -33.63,-2.418 z m 2766.99,34.598 c -3.28,3.289 -7.18,17.039 -8.67,30.55 -2.26,20.551 3.75,30.821 36.72,62.93 61.13,59.531 121.87,90.352 186.95,94.809 51.45,3.55 56.53,2.3 93.99,-23.25 21.79,-14.84 39.61,-31.25 39.61,-36.399 0.04,-5.199 5.35,-14.769 11.83,-21.25 10.35,-10.351 9.46,-13.281 -7.73,-24.57 -10.74,-7.031 -23.24,-12.781 -27.78,-12.781 -4.57,0 -8.28,-2.969 -8.28,-6.637 0,-3.672 -8.63,-11.25 -19.14,-16.871 -10.5,-5.629 -23.63,-18.672 -29.18,-29.031 -8.55,-16.051 -17.07,-19.098 -58.86,-21.09 -90.36,-4.371 -203.4,-2.418 -209.46,3.59 z m -1171.05,48.05 c -0.16,3.282 4.18,6.02 9.69,6.02 5.5,0 20.31,16.359 32.93,36.332 25.66,40.578 37.46,42.066 47.85,5.93 5.54,-19.332 3.86,-28.012 -7.89,-41.293 -8.21,-9.219 -23.91,-27.457 -34.89,-40.469 l -20,-23.668 -13.67,25.59 c -7.54,14.058 -13.83,28.238 -14.02,31.558 z m -1631.41,-2.07 -0.86,55.898 39.89,40.082 c 21.91,22.071 41.67,40.079 43.94,40.079 2.27,0 4.1,-24.297 4.06,-53.989 -0.04,-37.968 -4.18,-60.191 -13.98,-74.84 -14.45,-21.531 -58.09,-62.46 -67.07,-62.89 -2.81,-0.16 -5.51,24.879 -5.98,55.66 z m 3377.74,22.07 c -13.83,9.879 -30.32,18.008 -36.68,18.008 -25.9,0 -62.46,17.774 -55.28,26.871 3.99,5 5.82,16.332 4.1,25.121 -5.39,27.352 -4.84,117.071 1.14,183.989 8.75,98.121 10.27,108.511 23.44,160 6.75,26.402 14.37,62.421 16.91,80 8.28,57.07 11.91,79.613 16.44,101.871 l 4.5,21.879 37.3,-19.887 c 20.55,-10.902 40.98,-20 45.43,-20.152 4.42,-0.161 18.83,-9.098 32.03,-19.891 l 24.03,-19.609 -1.22,-82.098 c -0.66,-45.16 -3.51,-98.293 -6.36,-118.094 -2.85,-19.808 -8.64,-64.808 -12.89,-100 -4.26,-35.199 -9.5,-74.808 -11.64,-88.008 -3.25,-19.691 -18.6,-161.992 -19.61,-181.519 -0.35,-6.762 -27.85,7.301 -61.64,31.519 z M 135.039,216.871 c -0.039,5.231 64.18,38.707 74.262,38.707 6.211,0 -1.641,-23.949 -12.461,-37.93 -7.699,-9.957 -61.801,-10.66 -61.801,-0.777 z m -64.3788,36.68 c 8.6015,25.23 18.0507,33.828 59.3008,54.019 26.949,13.2 55.98,23.008 64.488,21.84 8.481,-1.172 17.461,0.621 20,3.981 2.5,3.398 15.75,12.379 29.461,19.961 l 24.879,13.828 -15.738,-31.84 C 242.621,314.25 227.461,299.02 208.16,290.109 192.109,282.77 170,270.809 159.02,263.59 148.012,256.398 123.711,246.09 105,240.699 86.2891,235.34 71.0195,226.871 71.0195,221.91 c 0,-4.961 -2.3906,-6.64 -5.3203,-3.711 -2.8906,2.93 -0.6601,18.821 4.961,35.352 z M 3559.02,295.23 c 0,6.911 -7.22,32.258 -16.01,56.329 -8.79,24.101 -15.9,47.421 -15.82,51.91 0.11,4.453 13.36,26.051 29.45,48.011 l 29.26,39.879 10.19,-23.91 c 15.39,-36.129 13.17,-48.39 -13.67,-75.23 -13.51,-13.547 -23.4,-30.899 -21.91,-38.629 4.26,-21.961 32.93,-16.879 44.84,7.969 13.67,28.589 23.99,27.812 36.88,-2.821 9.37,-22.34 8.75,-26.558 -6.41,-42.418 -9.26,-9.691 -25.43,-27.929 -35.94,-40.55 -18.24,-21.829 -19.61,-22.219 -30,-8 -5.97,8.16 -10.86,20.5 -10.86,27.46 z m 1626.18,-7.66 c 0.66,8.789 3.9,16.02 7.22,16.02 3.32,0 9.88,-7.231 14.57,-16.02 7.23,-13.48 6.1,-16.011 -7.22,-16.011 -10.82,0 -15.39,5 -14.57,16.011 z m 1.32,68.668 c -0.58,16.883 2.46,26.684 7.78,24.891 4.76,-1.57 8.36,-7.07 7.89,-12.231 -0.43,-5.117 -1.33,-18.949 -1.99,-30.66 -1.68,-29.929 -12.5,-15.707 -13.68,18 z M 1957.15,341.871 c -2.07,7.848 -0.98,21.367 2.42,30 6.37,16.168 74.57,91.719 82.81,91.719 2.54,0 4.61,-12.969 4.61,-28.828 0,-23.442 -6.99,-36.133 -37.54,-68.012 -41.44,-43.238 -46.83,-45.82 -52.3,-24.879 z M 114.84,359.172 c 18.172,51.406 28.91,68.129 36.25,56.25 6.961,-11.25 24.531,-3.902 115.39,48.129 39.692,22.73 46.411,24.648 41.02,11.597 -3.551,-8.558 -8.789,-26.058 -11.641,-38.828 -4.3,-19.14 -12.23,-25.621 -45.039,-36.718 -21.871,-7.422 -61.211,-26.68 -87.34,-42.774 -26.14,-16.09 -50.281,-29.258 -53.64,-29.258 -3.36,0 -1.09,14.219 5,31.602 z M 5187.77,493.59 c 0.63,64.41 5.98,122.93 14.5,158.832 7.42,31.277 12.73,60.066 11.75,64.019 -1.48,6.207 5.24,46.399 13.95,83.118 16.37,69.07 23.2,88.011 31.91,88.011 14.77,0 21.84,-15.121 12.39,-26.48 -4.46,-5.391 -10.16,-33.168 -12.66,-61.762 -2.46,-28.59 -9.53,-71.719 -15.7,-95.859 -14.26,-55.739 -22.43,-105.86 -24.81,-151.758 -1.01,-19.883 -4.72,-46.871 -8.28,-60 -6.37,-23.441 -9.45,-46.402 -11.02,-82.152 -0.42,-9.879 -3.55,-18 -6.91,-18 -3.4,0 -5.66,45.89 -5.12,102.031 z m -3237.42,0 c -0.35,34.101 -1.4,72.582 -2.34,85.5 -1.29,18.48 6.05,30.98 34.61,58.75 19.96,19.379 42.58,38.64 50.31,42.781 12.34,6.559 14.06,3.59 14.06,-24.062 0,-25.707 -5.58,-37.348 -29.92,-62.309 -16.45,-16.871 -28.95,-33.672 -27.77,-37.379 1.21,-3.672 -5.28,-8.633 -14.38,-11.019 -9.1,-2.383 -15.23,-8.364 -13.59,-13.321 1.68,-4.922 5.43,-8.043 8.36,-6.953 2.93,1.094 9.84,1.992 15.39,1.992 5.54,0 19.8,8.989 31.64,20 11.87,11.02 23.55,20 25.94,20 2.38,0 4.33,-18.199 4.33,-40.468 0,-24.532 -3.08,-38.551 -7.85,-35.622 -4.34,2.692 -23.24,-9.609 -42.03,-27.308 -18.75,-17.692 -36.8,-32.301 -40.12,-32.422 -3.28,-0.078 -6.29,27.738 -6.64,61.84 z M 155.352,449.559 c 3.007,9.929 8.628,21.453 12.539,25.632 3.91,4.18 7.109,15.547 7.109,25.309 0,20.121 42.93,57.5 92.27,80.391 17.46,8.089 33.55,16.64 35.742,19.031 8.867,9.68 62.886,38.078 66.168,34.797 6.761,-6.758 -19.219,-72.34 -36.758,-92.731 -9.723,-11.289 -42.621,-33.789 -73.121,-49.968 -30.512,-16.211 -64.653,-36.282 -75.903,-44.68 -26.988,-20.199 -34.609,-19.61 -28.046,2.219 z M 3498.4,484.25 c -2.23,12.809 -5.78,29.141 -7.89,36.25 -3.83,12.66 35.97,63.09 49.76,63.09 3.75,0 11.68,-10.942 17.58,-24.301 10.04,-22.66 8.95,-27.269 -15.7,-67.969 -27.42,-45.23 -36.92,-46.761 -43.75,-7.07 z m -43.67,153.91 c 8.2,2.731 15.93,10.149 38.59,37.149 16.02,19.062 24.49,14.679 30.16,-15.508 4.41,-23.52 1.25,-32.781 -20.71,-60.512 l -25.89,-32.699 -15.36,34.34 c -9.88,21.992 -12.3,35.39 -6.79,37.23 z M 245,638.629 c 8.551,11.519 22.379,24.609 30.781,29.101 8.36,4.489 29.61,17.149 47.231,28.161 45.816,28.629 91.988,48.668 91.988,39.918 0,-22.93 -23.441,-50.539 -64.262,-75.778 -25.386,-15.66 -48.508,-28.472 -51.359,-28.472 -2.859,0 -18.52,-9.071 -34.809,-20.161 -25.55,-17.418 -29.961,-18.359 -32.34,-6.949 -1.531,7.262 4.219,22.61 12.77,34.18 z m 1698.01,60.93 c 0,26.761 3.47,44.031 8.83,44.031 4.84,0 26.95,16.289 49.1,36.211 22.15,19.918 42.22,34.289 44.61,31.91 8.94,-8.981 6.68,-56.641 -3.25,-68.121 -92.14,-106.371 -99.29,-109.531 -99.29,-44.031 z m 1475.9,4.421 c -4.38,20 -1.72,27.032 15.39,40.469 11.4,8.942 20.7,21.051 20.7,26.832 0,9.891 22.97,24.028 29.06,17.891 7.66,-7.652 7.54,-58.16 -0.19,-67.934 -25.43,-32.148 -45.78,-50.039 -52.31,-46.008 -4.02,2.5 -9.72,15.43 -12.65,28.75 z M 305.199,769.559 c 22.531,43.992 39.102,67 49.68,68.953 8.75,1.636 21.332,8.828 28.012,16.008 12.89,13.871 103.199,60.71 107.808,55.902 1.492,-1.563 -3.629,-17.262 -11.359,-34.844 -7.738,-17.617 -18.211,-42.148 -23.289,-54.566 -6.09,-14.961 -13.942,-21.602 -23.121,-19.731 -7.66,1.598 -17.539,-1.793 -21.91,-7.461 -12.11,-15.621 -118.598,-89.3 -129.848,-89.8 -5.66,-0.282 4.418,27.339 24.027,65.539 z m 5258.351,6.531 c -61.91,31.051 -144.96,74.18 -184.53,95.82 -39.61,21.641 -84.61,45.192 -100,52.379 -15.43,7.152 -43.51,23.441 -62.42,36.133 -18.9,12.738 -36.44,23.168 -38.9,23.168 -11.92,0 -224.73,166.83 -298.91,234.33 -130.55,118.83 -391.84,392.39 -463.79,485.59 -10.98,14.22 -35.43,44.33 -54.3,66.87 -38.63,46.14 -32.3,57.5 14.07,25.36 35.82,-24.81 68.24,-24.89 68.24,-0.16 0,11.91 -15.24,23.51 -60,45.66 -33.01,16.33 -64.61,29.81 -70.28,30 -5.62,0.2 -42.81,16.53 -82.57,36.33 -39.81,19.81 -76.57,36.02 -81.76,36.06 -5.16,0 -19.61,5.39 -32.11,11.91 -24.45,12.73 -177.03,81.95 -265.27,120.31 -29.22,12.74 -166.76,51.72 -182.35,51.72 -6.99,0 -11.48,9.06 -11.91,23.99 -0.74,26.44 3.9,29.84 17.38,12.65 4.88,-6.25 28.79,-13.16 53.16,-15.43 48.29,-4.41 72.74,-9.22 127.7,-24.92 94.22,-26.99 108.55,-31.56 116.02,-37.07 4.41,-3.24 26.01,-13.01 48,-21.68 22,-8.71 64.38,-26.99 94.18,-40.66 29.81,-13.68 59.34,-24.89 65.59,-24.89 6.29,0 14.3,-4.88 17.81,-10.86 3.52,-5.93 24.42,-16.75 46.41,-24.02 21.99,-7.26 67.89,-29.14 101.95,-48.59 75.78,-43.32 91.49,-48.6 106.68,-35.98 10.35,8.59 9.61,12.27 -5.78,28.67 -9.69,10.31 -23.91,18.79 -31.6,18.79 -7.66,0 -15.12,2.7 -16.6,6.02 -1.45,3.28 -21.57,14.68 -44.65,25.35 -38.4,17.69 -53.95,32.62 -33.99,32.62 4.38,0 7.97,3.82 7.97,8.51 0,4.65 9.38,28.99 20.78,53.99 11.45,25.03 26.29,58.12 33.05,73.51 6.72,15.39 16.8,33.4 22.38,40 5.55,6.6 28.68,48.01 51.33,91.99 65.9,127.97 76.41,144.77 131.02,210.08 68.16,81.56 195.35,193.95 219.45,193.95 2.93,0 25.98,14.45 51.21,32.18 53.28,37.39 101.52,56.49 118.79,47.11 6.6,-3.59 42.62,-21.36 80,-39.53 93.12,-45.15 131.88,-68.16 188.01,-111.48 26.4,-20.39 68.71,-50.74 93.98,-67.46 25.31,-16.72 46.02,-33.4 46.02,-37.07 0,-3.67 7.85,-9.18 17.5,-12.23 9.61,-3.05 43.2,-29.41 74.69,-58.55 131.25,-121.61 220.85,-203.29 245.15,-223.48 14.22,-11.84 60.27,-53.99 102.27,-93.67 42.03,-39.69 100.08,-91.1 128.98,-114.26 28.95,-23.16 74.65,-66.72 101.52,-96.76 50.12,-55.94 132.93,-160.82 127.04,-160.82 -1.8,0 16.99,-20.9 41.79,-46.44 89.73,-92.46 93.79,-104.85 54.77,-167 -23.36,-37.22 -76.02,-149.02 -82.66,-175.46 -2.65,-10.59 -8.04,-21.22 -11.95,-23.64 -3.91,-2.42 -7.11,-11.4 -7.11,-19.92 0,-8.55 -2.7,-15.59 -5.98,-15.59 -3.32,-0.03 -10.07,-8.16 -15.04,-18 -4.96,-9.89 -16.91,-33.6 -26.56,-52.7 -27.11,-53.75 -69.1,-109.76 -150.9,-201.25 -41.32,-46.211 -77.07,-88.871 -79.49,-94.8 -4.65,-11.532 -5.04,-11.961 -100.55,-111.68 -67.26,-70.238 -81.01,-80.899 -104.96,-81.289 -8.47,-0.121 -66.09,25.187 -127.97,56.289 z M 3391.88,800.5 c -9.42,27.031 -6.06,39.059 10.93,39.059 5.98,0 18.67,12.621 28.21,28.011 20.86,33.75 28.75,35.121 34.33,6.02 4.1,-21.449 -14.84,-66.02 -28.08,-66.02 -3.44,0 -6.25,-5.121 -6.25,-11.332 0,-10.109 -10.24,-18.238 -25.24,-20.039 -2.85,-0.347 -9.1,10.59 -13.9,24.301 z m -1445.9,22.379 c 1.95,47.543 13.67,72.699 33.82,72.699 5.94,0 22.62,12.973 37,28.832 l 26.21,28.828 5.15,-34.847 c 4.34,-29.18 1.92,-39.692 -15.07,-64.801 -11.14,-16.531 -23.44,-30 -27.31,-30 -3.87,0 -16.87,-10.75 -28.9,-23.871 -12.04,-13.129 -24.34,-23.91 -27.35,-23.981 -3.05,-0.078 -4.61,21.133 -3.55,47.141 z m 1413.71,81.531 c -5.39,18.039 -11.99,38.469 -14.65,45.391 -3.56,9.258 -1.29,11.211 8.48,7.461 8.94,-3.442 22.38,4.258 41.21,23.629 l 27.89,28.749 8.2,-21.562 c 4.49,-11.84 8.2,-27.808 8.2,-35.469 0,-17.89 -46.29,-81.05 -59.45,-81.05 -5.51,0 -14.45,14.8 -19.88,32.851 z M 365.82,893.59 c 3.481,7.691 13.239,29.289 21.758,47.969 8.473,18.711 21.762,36.05 29.492,38.55 7.731,2.539 41.758,20.391 75.66,39.691 33.872,19.29 63.051,33.67 64.77,31.91 1.762,-1.72 -3.051,-19.53 -10.699,-39.57 C 534.57,980.109 525.59,971.52 471.949,940.34 438.441,920.852 403.789,899.328 395,892.488 372.93,875.34 357.891,875.93 365.82,893.59 Z m 1585.2,57.34 c 0,39.261 6.48,56.64 21.09,56.64 6.29,0 13.75,6.13 16.64,13.67 5.59,14.57 42.23,49.65 52.27,50.08 3.28,0.12 5.97,-15.15 5.97,-33.98 0,-30.16 -4.76,-39.262 -39.8,-76.02 -21.92,-22.968 -43.52,-41.761 -48.01,-41.761 -4.49,0 -8.16,14.113 -8.16,31.371 z m 1376.48,54.14 c -9.22,23.48 -8.36,27.35 10.74,47.93 11.41,12.34 20.78,26.8 20.78,32.19 0,5.39 6.84,13.48 15.24,17.97 13.01,6.95 16.56,4.49 23.9,-16.64 9.38,-26.88 8.64,-29.3 -22.3,-70.94 -11.45,-15.39 -21.25,-30.701 -21.84,-34.021 -0.54,-3.289 -1.48,-8.52 -2.03,-11.61 -1.64,-9.328 -13.83,8.129 -24.49,35.121 z m 2777.85,5.55 c -9.1,10.47 -21.48,20.86 -27.46,23.08 -8.67,3.21 -8.2,6.25 2.42,14.97 31.99,26.28 166.68,269.49 166.68,301.01 0,18.36 20.94,19.18 50.16,1.91 32.15,-18.94 61.87,-73.28 61.87,-113.12 0,-41.8 -39.53,-109.06 -88,-149.88 -24.22,-20.35 -45.2,-39.73 -46.68,-43.01 -1.45,-3.32 -6.14,-6.02 -10.36,-6.02 -8.04,0 -23.04,-10.97 -45.54,-33.32 -19.38,-19.22 -44.06,-17.541 -63.09,4.38 z m -5642.03,60.35 c 23.668,44.41 29.34,49.34 90.469,79.18 35.859,17.5 66.25,30.82 67.539,29.61 1.293,-1.21 -3.398,-16.56 -10.43,-34.18 -9.918,-24.77 -22.148,-37.03 -54.339,-54.49 -22.848,-12.42 -57.579,-32.66 -77.11,-45.04 -19.57,-12.35 -36.871,-22.46 -38.469,-22.46 -1.601,0 8.43,21.29 22.34,47.38 z m 1532.93,115.7 c 20.86,19.73 40.82,34.1 44.34,31.92 3.55,-2.19 6.4,-25.04 6.4,-50.78 0,-46.53 -0.23,-47 -41.99,-83.05 l -41.99,-36.21 -2.35,51.13 -2.38,51.17 z m 1294.02,-70.82 c -13.32,38.32 -13.9,46.29 -2.85,39.46 9.34,-5.79 57.15,40.03 49.65,47.53 -2.62,2.62 -1.09,4.73 3.32,4.73 9.06,0 26.6,-34.57 26.6,-52.38 0,-6.41 -3.59,-11.6 -7.97,-11.6 -4.41,0 -8.08,-4.53 -8.12,-10 -0.16,-13.32 -34.06,-54.26 -42.74,-51.57 -3.75,1.18 -11.79,16.37 -17.89,33.83 z m -2771.008,57.74 c 0.117,3.28 11.828,27.18 26.008,53.12 23.64,43.21 31.019,49.77 88.402,78.71 34.449,17.35 64.379,29.77 66.488,27.66 7.61,-7.58 -46.289,-92.42 -67.539,-106.37 -28.672,-18.79 -100.043,-57.58 -107.621,-58.44 -3.281,-0.39 -5.898,2 -5.738,5.32 z m 2745.038,22.34 c -13.91,30.55 -11.64,40.66 15.23,68.16 23.36,23.91 25.04,24.42 35.74,10.28 6.18,-8.13 11.33,-18.01 11.49,-21.95 0.31,-9.26 -42.27,-76.8 -48.48,-76.84 -2.58,0 -8.87,9.18 -13.98,20.35 z m -1305.28,48.36 c 0,23.98 6.21,34.41 37.97,63.67 20.9,19.22 39.96,35.12 42.39,35.28 10.85,0.82 6.99,-59.54 -5.04,-78.6 -17.46,-27.62 -43.87,-48.67 -61.33,-48.9 -10.78,-0.12 -13.99,6.48 -13.99,28.55 z m 1272.78,64.14 c -7.27,26.25 -5.9,31.13 15.23,53.71 22.81,24.42 31.56,25.47 34.81,4.18 0.89,-5.94 4.18,-14.84 7.3,-19.84 3.13,-5 0.31,-13.56 -6.21,-18.99 -6.56,-5.43 -11.91,-16.32 -11.91,-24.22 0,-12.85 -9.34,-21.25 -25.63,-23.08 -3.09,-0.35 -9.22,12.38 -13.59,28.24 z m -1272.78,43.32 c 0,26.02 3.44,33.56 17.97,39.1 9.92,3.79 24.89,14.49 33.24,23.79 19.57,21.72 26.06,21.33 30.51,-1.83 2.19,-11.61 -2.77,-26.1 -13.08,-38.01 -16.1,-18.56 -59.73,-55.24 -65.75,-55.24 -1.6,0 -2.89,14.5 -2.89,32.19 z M 592.93,1325.58 c 1.558,3.28 7.968,16.8 14.261,30 12.731,26.8 39.797,65.23 39.797,56.52 0,-3.08 10.473,1.84 23.242,10.94 12.782,9.1 27.192,16.52 32.04,16.52 4.839,0 21.949,7.07 38.039,15.71 47.5,25.43 52.191,7.34 11.961,-46.18 -23.75,-31.6 -171.45,-109.02 -159.34,-83.51 z m 2602.73,63.12 c -7.42,19.38 16.49,50.86 38.68,50.86 10.43,0 21.01,-5.39 23.55,-11.99 2.81,-7.3 0.04,-11.99 -7.15,-11.99 -6.44,0 -11.72,-3.36 -11.72,-7.42 0,-9.22 -22.77,-32.58 -31.72,-32.58 -3.63,0 -8.86,5.9 -11.64,13.12 z m -1236.64,64.89 c 0.04,19.49 3.21,22.15 28.01,23.4 32.66,1.68 34.06,-1.88 10.59,-26.92 -23.48,-24.96 -38.64,-23.59 -38.6,3.52 z m -1286.129,17.97 c 15.898,29.76 19.488,32.03 51.597,32.03 18.992,0 34.532,-1.41 34.532,-3.05 0,-1.68 -19.801,-13.09 -44.02,-25.31 -24.18,-12.27 -43.98,-25.28 -43.98,-28.99 0,-3.67 -3.442,-6.68 -7.622,-6.68 -4.179,0 0.122,14.42 9.493,32 z m 2858.829,-5 c 2.3,6.01 -11.29,28 -30.24,48.82 -38.82,42.66 -102.26,125.39 -102.38,133.56 -0.12,6.33 52.42,-6.41 77.15,-18.67 9.49,-4.73 21.21,-6.14 26.05,-3.13 10.04,6.21 20.94,-3.59 48.6,-43.55 10.62,-15.43 21.4,-29.81 23.98,-32.03 9.81,-8.44 56.14,-75.43 56.14,-81.18 0,-3.32 -22.5,-7.34 -50,-8.9 -27.5,-1.56 -50.79,-3.52 -51.76,-4.38 -0.98,-0.82 0.15,3.4 2.46,9.46 z m 81.52,76.32 c -9.72,20.43 -65.9,96.68 -71.29,96.68 -6.05,0 -1.33,112.27 5,118.6 3.95,3.98 133.56,-127.78 153.99,-156.53 16.13,-22.73 17.26,-30.23 11.21,-74.45 -9.1,-66.56 -20.2,-71.13 -62.46,-25.74 -18.83,20.19 -35.24,38.83 -36.45,41.44 z m -272.93,-63.2 c -3.67,3.36 -2.77,8.52 1.99,11.45 14.15,8.75 10.28,18.32 -19.29,47.93 -15.39,15.39 -28.01,30.15 -28.01,32.85 0,2.69 -16.13,25.86 -35.86,51.48 l -35.82,46.56 29.84,-1.87 c 16.41,-1.06 45.16,-2.5 63.83,-3.2 18.75,-0.71 34.03,-5.28 34.03,-10.16 0,-4.88 8.98,-15.94 20,-24.57 10.97,-8.67 20,-20.31 20,-25.94 0,-5.58 7.18,-16.68 15.97,-24.65 8.83,-7.97 16.02,-17.5 16.02,-21.17 0,-3.67 13.08,-23.83 29.1,-44.76 l 29.14,-38.05 -47.11,-4.45 c -49.41,-4.65 -82.58,-1.64 -93.83,8.55 z m -195.31,3.87 c -5.51,1.95 -10,9.92 -10.04,17.77 -0.04,7.85 -15.9,39.45 -35.27,70.24 -19.38,30.82 -42.58,67.69 -51.6,82.03 l -16.33,25.97 25.62,0.86 c 67.82,2.27 103.28,-1.56 120.86,-13.08 17.97,-11.76 55.94,-62 60.31,-79.77 1.1,-4.41 4.46,-9.8 7.47,-11.99 3.04,-2.23 19.21,-22.89 35.93,-46.02 16.72,-23.08 33.71,-41.99 37.74,-41.99 4.02,0 7.3,-2.81 7.3,-6.25 0,-6.33 -163.36,-4.3 -181.99,2.23 z m -174.49,8.44 c -18.52,2.85 -32.62,14.88 -58.09,49.64 -18.47,25.28 -45.9,62.07 -60.94,81.84 -15.03,19.73 -23.9,37.97 -19.76,40.55 4.18,2.57 43.01,5.54 86.29,6.64 l 78.67,1.91 24.77,-38.59 c 24.37,-37.93 48.59,-89.49 53.63,-113.99 1.4,-6.83 5.15,-19.06 8.36,-27.15 5.39,-13.59 2.26,-14.33 -41.29,-9.64 -25.94,2.77 -58.17,6.72 -71.64,8.79 z M 775,1495.58 c 0,4.37 3.59,8.01 8.012,8.01 4.41,0 8.008,-3.64 8.008,-8.01 0,-4.41 -3.598,-8.01 -8.008,-8.01 -4.422,0 -8.012,3.6 -8.012,8.01 z m 1929.88,30.66 c -10,11.72 -23.98,32.11 -31.13,45.32 -7.11,13.2 -23.28,35.82 -35.86,50.27 -12.58,14.45 -22.89,29.88 -22.89,34.3 0,4.96 32.38,7.11 85.59,5.7 l 85.54,-2.27 50.08,-71.99 c 27.54,-39.61 50.24,-76.95 50.43,-83.05 0.31,-9.02 -14.45,-10 -81.64,-5.31 -75.55,5.24 -83.44,7.38 -100.12,27.03 z m -373.24,57.93 c -38.52,44.38 -68.12,82.58 -65.78,84.92 2.38,2.39 35.27,4.38 73.12,4.5 65.67,0.15 69.89,-0.9 90.63,-22.93 30.59,-32.46 65.39,-80.47 65.39,-90.24 0,-4.53 7.77,-15.47 17.27,-24.29 18.55,-17.31 14.92,-21.06 -25.28,-26.45 -83.2,-11.21 -79.18,-13.12 -155.35,74.49 z m -102.62,-73.94 c -12.11,0.74 -21.13,4.02 -20.04,7.34 3.09,9.42 -46.4,86.02 -78.63,121.68 l -29.22,32.31 h 59.34 c 56.56,0 60.19,-1.1 78.91,-24.54 10.78,-13.51 25.93,-31.52 33.63,-40 7.69,-8.51 13.98,-17.38 13.98,-19.76 0,-6.52 35.12,-55.31 42.03,-58.36 3.28,-1.45 5.98,-7.23 5.98,-12.85 0,-9.61 -22.27,-10.82 -105.98,-5.82 z m 325.51,11.99 c 14.1,10.31 14.1,11.45 -0.43,33.63 -14.3,21.8 -22.11,30.98 -70.51,82.97 -11.32,12.15 -20.58,24.49 -20.58,27.42 0,6.6 61.6,6.84 86.01,0.28 9.89,-2.66 17.97,-9.42 17.97,-15.04 0,-5.59 5.43,-12.27 11.99,-14.81 10.79,-4.14 84.03,-109.22 84.03,-120.5 0,-2.54 -27.7,-4.61 -61.53,-4.61 -53.24,0 -59.57,1.44 -46.95,10.66 z m -497.54,3.98 c -22.3,23.32 -47.34,54.11 -54.96,67.54 -3.87,6.84 -20.9,27.39 -37.85,45.67 -16.91,18.24 -29.53,34.29 -27.97,35.66 6.49,5.67 134.14,-6.09 130.47,-12.03 -2.19,-3.55 1.25,-9.45 7.7,-13.05 15.11,-8.43 74.1,-90.78 84.37,-117.69 l 7.85,-20.74 h -47.81 c -35.86,0 -51.29,3.67 -61.8,14.64 z m -210,13.36 c 0,12.46 -4.53,20 -11.99,20 -6.6,0 -11.99,4.5 -12.03,10 0,11.92 -41.49,62 -51.33,62 -9.1,0 -28.05,25.39 -28.4,38 -0.27,11.14 132.35,14.57 148.79,3.87 8.52,-5.51 46.13,-53.36 76.99,-97.85 7.62,-11.02 19.73,-28.13 26.92,-38.01 l 13.01,-18.01 h -161.96 z m -172.03,-4.1 c 2.27,7.15 -2.19,20 -9.92,28.56 -7.7,8.55 -24.77,29.96 -37.89,47.57 -13.13,17.58 -32.54,40.08 -43.17,49.97 l -19.29,18 h 60.74 c 54.3,0 63.12,-2.18 83.16,-20.78 12.35,-11.4 21.8,-23.12 21.06,-25.97 -1.95,-7.54 26.72,-32.93 32.5,-28.75 2.65,1.91 3.24,1.32 1.33,-1.37 -1.96,-2.7 5.23,-18.83 15.97,-35.82 10.75,-17.03 19.57,-34.45 19.57,-38.67 0,-4.38 -27.69,-7.31 -64.1,-6.72 -55.27,0.82 -63.51,2.73 -59.96,13.98 z m -168.94,10.12 c -8.72,9.88 -26.22,33.55 -38.91,52.58 -12.73,19.06 -30.55,40.74 -39.61,48.28 -9.06,7.5 -22.54,20.7 -29.92,29.37 -13.28,15.55 -12.54,15.71 55.97,10.47 38.21,-2.93 73.95,-5.62 79.46,-6.01 5.51,-0.39 10,-4.69 10,-9.57 0,-4.93 13.71,-25.59 30.47,-46.02 16.79,-20.43 38.28,-50.62 47.73,-67.11 l 17.27,-30 h -58.36 c -50.47,0 -60.47,2.42 -74.1,18.01 z m -219.54,-9.73 c -8.51,4.57 -15.46,13.17 -15.46,19.14 0,5.98 -10.82,22.46 -24.03,36.57 -13.2,14.14 -23.98,28.28 -23.98,31.4 0,3.17 -10.78,17.81 -23.95,32.54 -13.16,14.77 -22.97,27.85 -21.76,29.06 1.22,1.21 45.04,3.13 97.35,4.22 93.24,2.03 95.12,1.72 96.4,-15.74 0.71,-9.8 9.42,-25.39 19.38,-34.65 17.23,-16.05 72.58,-97.22 72.58,-106.44 0,-8.05 -160.82,-4.5 -176.53,3.9 z m -137.93,-0.27 c -8.9,0 -13.98,2.23 -11.25,4.96 4.97,4.96 -44.37,70.55 -91.75,122.03 l -24.89,26.99 51.45,-3.24 c 55.04,-3.51 62.89,-8.32 106.05,-64.96 12.46,-16.29 25.9,-27.62 29.93,-25.12 4.02,2.5 6.48,1.57 5.46,-2.07 -1.01,-3.63 4.3,-18.12 11.8,-32.18 7.5,-14.11 13.67,-28.09 13.67,-31.1 0,-3.05 -16.72,-3.2 -37.14,-0.39 -20.4,2.77 -44.42,5.08 -53.33,5.08 z m -187.652,5.19 c -23.828,2.86 -41.488,8.91 -40.738,13.91 2.692,17.66 -12.43,41.64 -50.43,79.81 -21.289,21.4 -38.71,41.71 -38.71,45.11 0,3.4 34.601,6.68 76.871,7.31 74.839,1.13 77.461,0.54 98.009,-21.57 22.42,-24.14 89.1,-117.96 89.1,-125.39 0,-5.93 -82.11,-5.43 -134.102,0.82 z M 755.43,1564.8 c -5.86,23.28 -43.668,81.56 -63.75,98.2 -24.059,20 -13.2,25.43 41.332,20.7 69.328,-6.01 80.109,-9.61 86.129,-28.55 2.738,-8.59 11.91,-19.34 20.39,-23.87 8.52,-4.57 15.469,-13.04 15.469,-18.86 0,-5.86 8.91,-23.72 19.77,-39.73 l 19.761,-29.1 h -66.91 c -65.711,0 -66.961,0.35 -72.191,21.21 z m -367.539,-1.56 c -4.879,8.59 -13.442,20.62 -19.02,26.68 -5.551,6.09 -19.961,23.94 -31.992,39.72 -12.039,15.78 -31.758,38.6 -43.867,50.7 -20.121,20.12 -21.992,27.15 -21.992,82.62 0,34.77 3.359,60.63 7.929,60.63 4.371,0 17.852,-11.45 30,-25.43 12.141,-13.99 28.352,-31.99 36.051,-40 7.699,-8.01 14.02,-18.01 14.02,-22.19 0,-4.18 4.5,-10.47 10,-13.98 5.468,-3.56 13.601,-12.19 17.968,-19.3 22.973,-36.92 88.91,-132.5 97.742,-141.64 5.579,-5.78 13.79,-8.24 18.2,-5.51 9.531,5.86 10.859,33.52 1.8,37.38 -7.39,3.09 -41.531,50.43 -55.242,76.53 -9.258,17.61 -8.468,18.12 27.973,17.93 41.918,-0.2 64.809,-14.26 84.258,-51.8 6.832,-13.2 20.742,-34.06 30.859,-46.41 16.051,-19.49 20.274,-21.01 32.774,-11.83 13.359,9.8 11.918,13.75 -21.801,58.36 -19.879,26.32 -36.211,50.35 -36.321,53.36 -0.589,14.8 62.301,-5.9 86.051,-28.36 20.43,-19.26 73.707,-99.53 73.707,-111.02 0,-1.17 -74.289,-2.11 -165.078,-2.11 -155.539,0 -165.621,0.9 -174.019,15.67 z m -116.871,32.34 c 0,48.79 8.511,66.99 18.82,40.12 2.738,-7.15 10.238,-10.04 18.871,-7.23 11.801,3.79 12.23,3.12 2.418,-3.75 -10.078,-7.15 -8.789,-11.72 8.832,-30.78 11.41,-12.31 22.93,-28.67 25.629,-36.37 4.25,-12.11 -0.43,-13.98 -34.852,-13.98 H 271.02 Z m 3412.77,78.51 c -15.55,18.99 -36.52,38.91 -46.6,44.3 -10.08,5.39 -27.11,22.66 -37.85,38.36 -10.79,15.7 -26.72,31.17 -35.47,34.42 -11.57,4.25 -16.25,13.98 -17.19,35.42 -0.7,16.22 1.6,31.29 5.16,33.52 3.55,2.19 4.45,9.26 1.95,15.7 -2.58,6.8 0.12,11.76 6.41,11.76 15.74,0 158.71,-148.67 159.33,-165.7 0.31,-7.85 1.21,-29.61 2.03,-48.32 0.78,-18.67 -1.01,-33.99 -4.02,-33.99 -3.01,0 -18.2,15.55 -33.75,34.53 z M 6195,1791.56 c -13.2,15.19 -25.78,31.64 -28.01,36.56 -5.9,13.16 -99.1,115.35 -105.27,115.39 -2.89,0.04 -22.7,17.3 -43.99,38.44 -21.28,21.09 -54.92,51.32 -74.72,67.22 -36.06,28.91 -61.92,52.07 -143.99,129.18 -24.22,22.7 -78.08,71.88 -119.72,109.26 -41.64,37.38 -106.45,96.33 -144.03,131.06 -61.56,56.87 -155.23,131.79 -208.28,166.56 -10.97,7.22 -30.78,22.77 -43.98,34.57 -28.36,25.31 -88.6,67.77 -96.21,67.77 -2.93,0 -14.89,6.72 -26.57,14.96 -11.68,8.24 -42.11,26.06 -67.57,39.61 -73.99,39.3 -91.45,57.74 -104.65,110.63 -6.41,25.74 -17.7,63 -25.08,82.81 -34.57,92.77 -50.94,245.78 -27.81,260.04 17.77,11.01 152.58,-58.36 209.84,-107.97 7.7,-6.64 91.02,-58.87 185.16,-116.09 184.92,-112.35 324.33,-203.83 423.63,-277.93 89.96,-67.11 70.7,-50.71 221.25,-188.91 19.8,-18.2 42.3,-35.12 50,-37.66 7.7,-2.5 14.02,-7.14 14.02,-10.27 0,-3.12 20.08,-20 44.65,-37.46 175.04,-124.45 203.63,-154.92 221.25,-235.74 17.19,-78.71 24.57,-144.92 22.78,-204.03 -3.36,-111.83 -9.38,-195.47 -17.74,-247.46 l -8.91,-55.51 -41.01,43.68 c -22.58,24.02 -51.84,56.09 -65.04,71.29 z m -2870.2,-87.97 c -250.7,25.5 -255.74,25.78 -262.96,14.37 -5.39,-8.51 -6.61,-8.47 -6.72,0.08 -0.04,5.78 -3.67,8.28 -8.05,5.59 -9.02,-5.59 -254.57,-16.18 -368.05,-15.82 -150.43,0.43 -990.04,13.32 -1080,16.56 -50.62,1.83 -313.43,4.45 -584.02,5.78 -270.59,1.33 -512.539,5.39 -537.621,8.98 l -45.617,6.57 5.078,112.93 c 9.019,200.89 3.43,670.78 -9.809,824.96 -11.48,133.86 -14.652,212.89 -14.019,347.97 0.66,150.43 7.578,308.12 15,343.59 5.578,26.64 11.328,174.1 11.718,300.43 0.5,158.09 -6.921,145.62 89.758,151.29 166.293,9.69 263.91,12.73 525.512,16.4 147.42,2.07 287.81,6.53 311.99,9.85 58.52,8.08 549.96,8.08 776.02,0 98.98,-3.52 185.39,-6.49 191.99,-6.53 120.2,-1.13 498.36,-17.77 540,-23.78 30.82,-4.42 126.21,-9.54 211.99,-11.37 220.71,-4.73 416.49,-12.11 440.51,-16.64 l 20.51,-3.83 -1.92,-460.98 c -1.01,-253.51 -3.98,-504.45 -6.52,-557.69 -2.58,-53.21 -6.52,-139.92 -8.79,-192.74 -2.23,-52.81 -6.13,-120 -8.67,-149.33 l -4.61,-53.36 -40.9,24.1 c -73.05,43.09 -106.8,52.07 -171.8,45.82 -54.14,-5.23 -60.15,-7.73 -86.71,-36.41 -34.5,-37.18 -38.91,-47.85 -57.93,-139.29 -10.71,-51.64 -12.39,-73.48 -6.02,-78.64 20.55,-16.64 67.89,-39.37 93.4,-44.88 15.12,-3.24 34.65,-9.84 43.48,-14.65 8.78,-4.84 21.4,-8.98 28,-9.18 6.57,-0.23 15.59,-2.61 20,-5.35 4.38,-2.69 43.99,-12.93 87.97,-22.73 44.03,-9.81 83.24,-20.82 87.15,-24.49 6.64,-6.22 6.33,-86.65 -0.74,-179.61 -1.68,-22 -4.96,-72.23 -7.31,-111.61 -4.33,-72.73 -13.55,-104.72 -27.69,-96.01 -4.3,2.65 -73.4,11.48 -153.6,19.65 z M 283.711,1866.2 c -9.492,3.64 -12.691,16.06 -12.691,49.11 0,24.33 2.769,44.25 6.171,44.25 3.399,0 32.188,-26.87 63.981,-59.72 58.008,-59.92 63.867,-72.85 52.539,-115.24 -4.84,-18.08 -7.301,-16.68 -51.172,28.87 -25.391,26.33 -51.84,50.04 -58.828,52.73 z m 3353.589,3.13 -77.69,77.26 3.12,52.31 c 3.25,54.22 9.69,63.59 33.99,49.49 13.4,-7.81 13.44,-8.36 0.27,-8.59 -19.92,-0.31 -17.3,-21.88 4.03,-33.28 21.52,-11.57 65.35,-53.95 105.23,-101.88 26.21,-31.52 28.71,-38.55 25.39,-71.99 -2.03,-20.39 -3.91,-40.39 -4.14,-44.41 -0.59,-8.72 6.25,-14.85 -90.2,81.09 z m -3296.28,84.84 c -23.129,23.44 -48.321,44.92 -56.02,47.74 -8.48,3.12 -14.219,13.9 -14.609,27.42 -0.352,12.23 -1.25,34.3 -1.993,49.02 -0.777,14.69 0.942,28.21 3.793,29.96 2.887,1.76 22.688,-17.38 44.02,-42.54 21.328,-25.11 49.961,-57.53 63.59,-71.95 23.008,-24.37 24.179,-28.28 16.058,-54.26 -4.839,-15.39 -9.687,-28 -10.82,-28 -1.129,0 -20.937,19.18 -44.019,42.61 z m 3356.32,7.23 c -16.68,18.63 -41.99,44.96 -56.25,58.52 -20.04,19.02 -23.75,26.79 -16.4,34.14 5.23,5.23 14.18,9.53 19.92,9.53 5.7,0 10.39,3.59 10.39,7.97 0,10.43 35.98,10.15 74.65,-0.59 24.33,-6.76 29.41,-11.29 24.76,-21.95 -3.24,-7.39 -7.53,-37.74 -9.53,-67.46 -2.03,-29.69 -6.72,-53.99 -10.47,-53.99 -3.71,0 -20.39,15.24 -37.07,33.83 z m 560.86,58.98 c 2.39,6.14 0.59,11.18 -3.98,11.18 -4.65,0 -6.06,7.03 -3.2,16.01 2.77,8.79 1.6,16.02 -2.62,16.02 -16.68,0 -25.04,39.1 -29.85,140 -1.91,39.57 -7.81,100.78 -13.16,135.97 -5.31,35.2 -9.57,67.62 -9.41,72 1.17,34.33 18.47,77.89 47.46,119.21 32.5,46.41 143.4,164.81 154.37,164.81 2.85,0 4.42,-37.46 3.44,-83.24 -1.33,-62.66 0.98,-85.47 9.3,-92.39 20.54,-17.07 34.29,17.11 31.13,77.62 -1.56,29.69 -2.38,68.4 -1.84,86.02 3.95,125 0.32,202.34 -9.76,208.55 -4.03,2.5 -5.31,7.81 -2.85,11.8 4.25,6.83 -8.83,38.83 -19.42,47.62 -2.65,2.22 -9.61,13.32 -15.43,24.64 -24.8,48.25 -142.22,159.38 -168.36,159.38 -4.53,0 -11.09,4.8 -14.61,10.7 -3.51,5.9 -26.29,23.32 -50.62,38.75 -44.73,28.4 -98.87,86.56 -121.49,130.55 -24.68,48.05 -46.28,97.97 -46.28,106.87 0,5.24 12.96,9.11 30.5,9.11 21.41,0 46.29,9.57 83.56,32.03 29.18,17.58 55.54,31.99 58.59,31.99 3.09,0 10.12,6.21 15.67,13.79 8.32,11.4 13.28,12.19 28.86,4.49 36.76,-18.12 50.67,-18.75 60.71,-2.66 8.24,13.21 6.87,17.74 -9.03,30.24 -10.27,8.08 -24.22,25.39 -30.97,38.44 -13.68,26.44 -13.91,27.42 -13.91,56.25 0,16.75 -3.32,20.07 -18.01,18 -15.82,-2.26 -17.97,-7.22 -17.97,-41.48 0,-36.02 -2.65,-41.25 -36.01,-70.82 -57.66,-51.17 -95.55,-66.8 -153.99,-63.52 -17.5,1.02 -22.03,5.16 -22.03,20.28 0,10.47 -5.39,23.51 -11.99,28.98 -6.6,5.47 -11.99,14.26 -11.99,19.49 0,22.31 -69.18,70.43 -116.02,80.75 l -23.98,5.27 65.04,61.25 c 35.78,33.67 67.38,66.64 70.19,73.24 2.85,6.6 21.02,33.6 40.39,60 19.38,26.41 50.24,76.8 68.56,111.99 18.32,35.2 38.4,69.69 44.57,76.64 6.17,6.96 11.25,16.76 11.25,21.8 0,14.26 35.31,97.54 41.37,97.54 6.87,0.04 50.7,-43.63 66.56,-66.29 6.64,-9.49 12.11,-33.55 12.18,-53.48 0.16,-52.96 7.27,-71.75 29.3,-77.26 13.67,-3.44 24.85,0.16 37.54,12.07 23.71,22.3 29.69,21.56 57.31,-7.27 19.02,-19.88 21.64,-26.87 14.33,-38.55 -14.33,-22.97 1.76,-43.28 29.53,-37.15 30.9,6.76 35.86,-3.2 59.89,-120.04 16.28,-79.3 22.73,-199.02 13.59,-252.34 -10.31,-59.96 -12.5,-114.1 -4.96,-121.64 2.54,-2.54 5.58,-24.85 6.72,-49.53 1.79,-38.52 7.38,-52.62 39.25,-99.3 20.43,-29.88 46.22,-59.22 57.27,-65.12 11.06,-5.94 20.12,-14.76 20.12,-19.65 0,-15.78 116.68,-124.45 181.99,-169.41 34.65,-23.91 44.1,-27.23 54.02,-19.02 19.89,16.52 13.95,26.64 -34.1,58.16 -25.23,16.56 -56.72,39.26 -69.92,50.39 l -23.98,20.31 40,36.41 c 21.99,20.04 58.63,48.63 81.44,63.51 22.81,14.89 43.75,30.67 46.49,35.12 2.73,4.46 10.7,8.13 17.61,8.13 10.55,0 11.84,-7.03 7.82,-42.03 -2.66,-23.09 -1.45,-56.37 2.69,-73.99 4.14,-17.62 9.88,-53.59 12.73,-80 2.82,-26.4 10.4,-58.28 16.8,-70.82 15.82,-31.01 34.65,-91.44 38.52,-123.67 3.04,-25.63 1.52,-27.23 -46.84,-48.95 -51.21,-22.96 -190.35,-111.68 -233.28,-148.67 -61.56,-53.12 -131.99,-125.66 -131.99,-135.94 0,-2.96 -9.57,-15.54 -21.29,-27.93 -11.68,-12.38 -32.38,-44.21 -45.98,-70.7 -62.54,-121.76 -73.01,-141.56 -76.72,-145.31 -7.93,-7.93 -33.08,-52.31 -37.46,-66.02 -2.42,-7.69 -7.61,-13.98 -11.48,-13.98 -3.91,0 -7.07,-4.22 -7.07,-9.38 0,-5.15 -4.81,-15.03 -10.67,-21.99 -5.82,-6.95 -17.22,-30.62 -25.31,-52.65 -27.69,-75.39 -36.52,-92.62 -44.8,-87.5 -4.57,2.81 -6.37,10.15 -4.03,16.32 z m -110.04,34.34 c -75.89,35.78 -118.24,53.91 -153.16,65.55 -17.58,5.86 -35.59,13.04 -40,16.01 -9.06,6.1 -130.31,40.59 -194.65,55.39 -30.55,7.03 -40.19,12.27 -33.98,18.44 4.76,4.77 8.63,10.63 8.63,13.05 0,2.42 -21.91,27.81 -48.67,56.4 -49.03,52.43 -79.88,93.32 -104.92,139.14 -14.26,26.02 -20.12,113.32 -7.07,105.28 4.06,-2.5 27.46,-31.29 52.07,-63.99 24.61,-32.69 49.21,-64.22 54.68,-70.07 5.43,-5.86 18.56,-28.56 29.14,-50.47 10.59,-21.96 24.26,-49.77 30.47,-61.88 6.18,-12.11 9.22,-25.31 6.72,-29.3 -7.97,-12.93 4.85,-32.69 21.17,-32.69 9.18,0 17.7,6.76 20.08,15.98 2.31,8.82 8.28,16.13 13.28,16.25 4.96,0.15 3.36,3.59 -3.63,7.65 -6.99,4.1 -11.8,15.71 -10.66,25.78 1.09,10.08 2.3,31.84 2.69,48.32 0.51,23.79 7.19,36.53 32.23,61.57 28.36,28.39 34.02,30.86 55.9,24.61 14.49,-4.18 26.17,-3.99 28.9,0.43 7.93,12.85 32.07,8.12 74.18,-14.61 42.5,-22.93 113.21,-105.32 141.49,-164.93 13.4,-28.28 14.76,-29.02 29.02,-16.13 19.81,17.97 18.95,25.86 -7.07,64.77 -64.53,96.48 -102.58,138.2 -144.22,158.12 -23.2,11.1 -45.7,20.2 -50,20.2 -18.63,0 -5.35,15.54 20.67,24.14 34.17,11.25 62.93,5.15 96.75,-20.55 24.34,-18.55 61.49,-82.3 61.49,-105.59 0,-6.28 7.93,-14.45 17.65,-18.16 21.41,-8.12 26.18,-31.72 27.5,-135.86 0.94,-73.01 5.04,-106.83 15.04,-123.98 2.58,-4.42 5.32,-11.6 6.14,-16.02 0.78,-4.41 3.98,-14.3 7.07,-21.99 7.53,-18.75 2.46,-17.89 -54.93,9.14 z m -3789.961,18.91 c -20.23,18.67 -48.16,42.93 -62.07,53.94 -13.938,10.98 -27.301,26.21 -29.719,33.87 -7.82,24.69 -9.219,126.13 -1.719,126.13 12.188,0 110.188,-107.38 106.789,-116.99 -1.75,-4.96 5.508,-13.63 16.18,-19.34 17.34,-9.29 19.328,-15.62 19.328,-61.01 0,-27.85 -2.687,-50.63 -5.968,-50.63 -3.321,0.04 -22.579,15.35 -42.821,34.03 z m 3195.981,29.29 c -12.73,4.03 -42.97,12.93 -67.19,19.77 -183.01,51.72 -224.02,65.27 -253.94,83.83 -33.36,20.66 -33.87,21.68 -29.5,57.07 6.53,53 34.61,103.51 67.35,121.05 50.27,26.95 109.37,18.05 192.11,-28.98 62.15,-35.35 132.89,-135.35 144.29,-204.1 8.72,-52.31 -4.21,-64.14 -53.12,-48.64 z m 92.62,94.65 c -0.16,7.7 -10.94,28.13 -24.03,45.43 -13.08,17.27 -23.75,35.12 -23.75,39.61 0,4.49 -11.56,20.12 -25.66,34.65 -23.13,23.87 -24.41,27.66 -13.28,38.83 11.17,11.13 14.37,9.76 32.73,-14.1 11.21,-14.54 35.2,-41.88 53.28,-60.75 18.09,-18.9 32.93,-36.68 32.93,-39.49 0,-2.85 7.82,-13.48 17.39,-23.67 14.96,-15.94 15.5,-18.63 3.98,-19.49 -23.71,-1.8 -27.93,-2.89 -34.06,-9.03 -10.28,-10.27 -19.3,-6.6 -19.53,8.01 z m -3284.652,48.17 c -21.527,20.97 -54.339,50.66 -72.929,65.97 l -33.828,27.85 -2.661,78.17 c -1.832,52.58 0.079,77.26 5.79,75.39 4.679,-1.53 32.609,-31.29 62.101,-66.17 34.379,-40.67 59.18,-63.17 69.18,-62.82 14.418,0.51 15.711,-5.58 16.57,-78 0.539,-43.21 -0.391,-78.56 -2.07,-78.56 -1.641,0 -20.629,17.15 -42.153,38.17 z m 3365.472,131.83 c -31.1,47.7 -68.17,98.13 -114.89,156.25 -37.18,46.25 -45.58,61.95 -42.65,79.69 1.99,12.11 4.02,34.65 4.53,50.08 0.94,27.85 1.01,27.89 14.65,10.74 110.82,-138.99 151.64,-202.19 157.85,-244.38 9.14,-62.18 9.92,-78.39 3.91,-78.39 -3.56,0 -14.07,11.71 -23.4,26.01 z M 286.988,2512.73 c 0,3.75 -4.527,6.83 -10.078,6.83 -5.5,0 -14.101,6.45 -19.019,14.34 -11.95,19.14 -22.692,113.67 -12.93,113.67 4.141,0 23.32,-18.9 42.617,-41.99 19.301,-23.13 51.832,-60 72.344,-81.99 29.058,-31.21 38.129,-47.46 41.098,-73.75 2.101,-18.56 2.07,-35.55 -0.122,-37.7 -4.957,-4.96 -113.91,91.29 -113.91,100.59 z m 3839.142,-44.92 c -23.32,44.18 -78.98,75.78 -133.55,75.78 -30.39,0 -34.53,1.91 -29.77,13.98 17.07,43.17 9.92,125.35 -15.9,182.23 -15.5,34.18 -113.36,131.76 -132.11,131.76 -11.79,0 -15.97,13.43 -20.42,65.5 -2.39,27.78 -5.63,64.77 -7.27,82.23 -1.6,17.46 -1.25,34.41 0.78,37.7 2.03,3.32 5.43,79.02 7.58,168.28 2.15,89.25 4.92,171.29 6.17,182.3 1.25,11.02 -0.23,23.6 -3.32,28.01 -9.37,13.28 1.64,123.98 12.3,123.98 16.37,0 73.72,-54.22 84.26,-79.68 5.55,-13.36 12.35,-24.3 15.16,-24.3 2.77,0 9.84,-11.72 15.7,-26.02 20.12,-49.25 28.6,-66.05 40.9,-80.82 6.8,-8.16 11.13,-15.39 9.61,-16.01 -3.44,-1.45 15.98,-45.47 26.68,-60.39 26.84,-37.39 115.98,-119.57 148.71,-137.11 50.59,-27.07 170.2,-124.49 188.56,-153.56 33.86,-53.67 64.02,-127.61 68.59,-168.24 3.91,-34.73 2.34,-39.53 -17.46,-53.63 -11.95,-8.52 -30.43,-28.17 -41.06,-43.63 -10.58,-15.51 -23,-29.18 -27.57,-30.4 -8.4,-2.22 -70.47,-68.67 -125.67,-134.45 -16.48,-19.69 -30,-42.07 -30,-49.76 0,-7.7 -3.48,-13.99 -7.69,-13.99 -4.22,0 -6.68,-12.62 -5.47,-28.01 2.97,-37.57 -4.81,-35.23 -27.74,8.25 z m -339.14,157.34 c 0,121.48 2.81,176.41 9.34,182.93 17.22,17.23 97.85,-52.31 119.49,-103.05 18.24,-42.77 11.37,-138.51 -13.2,-183.47 -10.24,-18.68 -21.25,-33.99 -24.53,-33.99 -3.29,0 -10.71,-4.73 -16.53,-10.51 -18.4,-18.36 -42.03,-29.41 -58.55,-27.42 -15.47,1.88 -16.02,7.89 -16.02,175.51 z m -82.22,-47.27 c -10.04,14.14 -35.67,49.22 -56.96,77.93 -60.54,81.76 -72.69,110.43 -69.22,163.48 1.68,25.04 4.53,47.07 6.37,48.91 5.63,5.62 70.24,-85.78 94.49,-133.68 12.54,-24.76 20.59,-47.22 17.89,-49.92 -2.69,-2.69 5.78,-7.07 18.79,-9.65 23.64,-4.72 23.67,-4.88 25.59,-67.93 2.07,-70.11 -4.3,-75.15 -36.95,-29.14 z m -3352.469,1.49 c -13.903,15.27 -25.313,30.86 -25.313,34.61 0,3.75 -19.718,25.08 -43.867,47.38 -42.57,39.38 -44.019,42.07 -47.262,89.38 -1.879,26.83 -0.55,50.54 2.93,52.69 6.371,3.95 67.813,-52.97 120.941,-111.95 24.918,-27.7 29.45,-39.06 34.219,-85.9 6.52,-63.99 -2.269,-69.53 -41.648,-26.21 z m 3353.949,174.26 c -42.38,65.54 -90.2,147.11 -92.58,157.96 -1.48,6.61 -8.98,14.58 -16.68,17.74 -12.15,4.96 -13.9,17.07 -13.51,91.99 0.39,69.77 2.3,83.44 10,71.52 5.23,-8.08 22.11,-32.03 37.54,-53.2 34.68,-47.69 40,-55.55 81.32,-120.08 18.32,-28.59 36.45,-53.24 40.24,-54.72 3.79,-1.53 4.76,-14.1 2.19,-28.01 -2.58,-13.91 -6.02,-32.46 -7.62,-41.25 -1.6,-8.83 -3.2,-27.7 -3.52,-41.99 -0.82,-33.4 -15.82,-33.36 -37.38,0.04 z m -3387.23,26.21 c -33,28.43 -66.321,53.75 -74.02,56.25 -11.051,3.59 -14.102,14.1 -14.531,50.04 -0.309,25 -1.797,54.68 -3.321,65.93 -1.488,11.29 -0.347,31.72 2.582,45.39 5.071,23.83 5.93,24.3 21.29,11.49 8.781,-7.35 35.23,-37.7 58.71,-67.42 23.508,-29.77 49.059,-58.56 56.79,-64.03 10.671,-7.54 15.39,-26.72 19.691,-79.92 3.09,-38.51 2.738,-69.88 -0.781,-69.73 -3.551,0.16 -33.442,23.52 -66.41,52 z m 0.589,204.33 c -27.89,31.14 -59.609,59.96 -70.55,64.14 -14.489,5.51 -18.75,11.8 -15.7,23.4 2.262,8.71 0.621,15.86 -3.629,15.86 -4.421,0 -5.351,7.74 -2.152,17.77 3.082,9.81 5.352,38.6 5,64.03 -0.387,25.39 1.832,46.09 4.883,45.97 4.961,-0.19 15.59,-13.67 57.539,-72.77 6.602,-9.3 17.539,-22.89 24.301,-30.23 34.328,-37.27 51.789,-78.25 55.777,-130.78 2.262,-29.69 2.07,-53.99 -0.348,-53.99 -2.46,0 -27.269,25.47 -55.121,56.6 z m 3362.691,38.79 c -8.2,15.74 -24.88,41.13 -37.07,56.45 -12.22,15.27 -22.22,31.13 -22.22,35.23 0,4.06 -9.49,19.88 -21.1,35.08 -11.64,15.23 -21.01,37.19 -20.86,48.75 1.02,88.71 2.74,113.09 7.97,113.05 3.28,-0.04 13.52,-11.72 22.74,-26.02 49.33,-76.29 73.94,-116.37 84.69,-137.93 6.56,-13.2 20.27,-38.4 30.43,-56.01 13.35,-23.05 18.98,-46.49 20.19,-83.99 0.94,-28.59 -0.12,-55.23 -2.38,-59.22 -5.04,-8.79 -42.11,35.55 -62.39,74.61 z M 292.539,3195.58 c -22.187,26.41 -43.32,47.11 -46.949,45.98 -10.391,-3.13 -11.102,45.62 -2,140.89 l 4.89,50.9 25.27,-27.11 c 33.52,-35.97 61.84,-74.45 88.52,-120.39 20.269,-34.88 21.402,-41.25 14.8,-84.8 -3.91,-25.9 -4.648,-53.91 -1.601,-62.27 3.051,-8.36 3.793,-18.16 1.679,-21.79 -4.957,-8.56 -34.097,18.51 -84.609,78.59 z m 3398.481,12.81 c -4.42,7.62 -17,31.21 -28.01,52.5 -10.98,21.29 -22.19,40.47 -24.92,42.7 -2.7,2.18 -15.67,23.79 -28.83,47.97 -19.65,36.13 -23.28,50.78 -20.31,81.79 3.75,39.14 8.67,39.46 31.64,1.88 5.27,-8.6 24.21,-39.77 42.11,-69.26 17.92,-29.49 36.13,-55.82 40.46,-58.52 23.09,-14.25 58.09,-125.5 49.65,-157.77 -3.98,-15.23 -6.52,-13.98 -29.06,14.1 -13.63,16.96 -28.36,37.03 -32.73,44.61 z m 1878.32,75.55 c -73.48,24.26 -131.33,53.59 -160.9,81.6 -5.82,5.51 -14.81,10.08 -20,10.16 -5.2,0.07 -23.56,14.49 -40.82,31.99 -17.31,17.54 -34.07,31.87 -37.27,31.87 -3.2,0 -20.47,12.23 -38.32,27.15 -65.23,54.49 -217.62,121.06 -361.01,157.62 -55.55,14.18 -266.02,11.64 -371.92,-4.53 -23.44,-3.56 -29.57,-2.5 -23.01,4.06 4.89,4.88 17.46,10 27.89,11.33 27.82,3.51 163.32,50.15 199.73,68.75 17.19,8.75 31.29,14.26 31.29,12.15 0,-2.11 24.3,6.48 54.02,19.06 60.51,25.62 160.51,52.58 167.86,45.23 2.61,-2.65 -2.39,-4.8 -11.22,-4.8 -11.64,0 -15.62,-4.88 -14.64,-18.01 1.25,-16.72 4.64,-17.85 47.89,-15.78 25.58,1.25 61.25,5.66 79.29,9.8 50,11.57 70.35,9.11 38.79,-4.68 -27.58,-12.07 -33.4,-25 -14.57,-32.23 11.76,-4.49 100,24.14 128.6,41.76 25.07,15.39 75.97,17.5 75.97,3.12 0,-4.37 -12.58,-8 -27.97,-8 -15.43,0 -28,-3.52 -28,-7.86 0,-4.29 -8.75,-10.03 -19.42,-12.69 -23.12,-5.82 -33.28,-26.13 -16.33,-32.66 6.61,-2.54 21.84,-0.82 33.87,3.83 12.03,4.65 40.74,10.78 63.87,13.67 23.08,2.85 43.98,8.48 46.44,12.46 7,11.33 32.54,8.52 43.56,-4.72 8.55,-10.35 5.43,-12.03 -22.46,-12.03 -19.18,0 -37.7,-5.28 -45.32,-12.93 -22.34,-22.35 -9.84,-31.18 41.29,-29.26 37.62,1.4 47.82,-0.7 47.82,-10 0,-7.31 -7.86,-11.84 -20.67,-11.92 -11.37,-0.07 -26.05,-3.67 -32.65,-8 -19.5,-12.78 5.15,-23.6 53.98,-23.75 23.09,-0.08 41.99,-3.71 41.99,-8.13 0,-4.41 -3.79,-8.01 -8.47,-8.01 -4.65,0 -6.18,-3.71 -3.36,-8.2 2.77,-4.53 -3.32,-15.23 -13.56,-23.75 l -18.59,-15.51 20,-0.82 c 36.05,-1.48 63.12,-6.4 76.72,-14.02 10.82,-6.09 7.81,-8.56 -15.67,-12.97 -45.94,-8.59 -36.52,-27.73 16.1,-32.62 15.74,-1.48 32.73,-6.91 37.73,-12.11 6.95,-7.14 1.56,-8.75 -22.69,-6.68 -25.32,2.15 -32.35,-0.19 -34.61,-11.44 -1.96,-9.92 5.66,-17.7 25.54,-26.02 39.92,-16.68 50.9,-15.04 77.5,11.53 25.51,25.54 30.43,56.83 11.37,72.61 -6.6,5.47 -11.99,18.25 -11.99,28.32 0,10.12 -5.08,28.6 -11.25,41.06 -6.21,12.42 -15.78,32.42 -21.25,44.41 -11.21,24.49 -77.74,102.23 -87.46,102.23 -3.48,0 -34.61,15.74 -69.18,35.04 -49.89,27.81 -76.88,37.11 -130.86,45.23 -95.16,14.26 -335.43,11.53 -373.28,-4.29 -15.78,-6.61 -38.13,-12.04 -49.69,-12.07 -11.56,-0.04 -40.82,-9.34 -65.04,-20.63 -60,-28.05 -297.03,-107.62 -305.31,-102.46 -11.64,7.19 -7.23,25.12 7.3,29.88 43.01,14.06 102.7,39.03 170,71.06 41.8,19.92 86.8,38.67 100,41.72 13.21,3.04 43.83,14.88 68.01,26.25 58.91,27.69 115.2,42.07 165.47,42.18 22.81,0.04 51.21,3.79 63.08,8.28 32.07,12.19 170.67,18.44 207.47,9.34 103.63,-25.59 194.84,-53.16 219.49,-66.37 15.54,-8.36 31.17,-15.15 34.76,-15.15 11.41,0 88.79,-52.85 116.1,-79.3 38.04,-36.87 121.64,-186.17 121.64,-217.27 0,-7.14 5.35,-23.71 11.87,-36.79 8.32,-16.68 11.1,-42.78 9.3,-87.23 -3.28,-82.19 -19.22,-111.76 -75.43,-140.04 -35.04,-17.62 -47.3,-16.01 -159.41,20.98 z m -1891.96,111.64 c -9.06,17.58 -19.29,33.79 -22.69,35.98 -3.4,2.22 -6.88,7.61 -7.78,12.03 -2.53,12.42 -32.46,69.76 -48,91.99 -16.53,23.59 -25.9,79.8 -15.98,95.86 10.62,17.19 30.78,-12.11 93.24,-135.74 30,-59.3 60.71,-113.99 68.21,-121.49 8.35,-8.4 12.5,-22.34 10.7,-36.13 -1.64,-12.38 -3.28,-26.09 -3.67,-30.51 -1.1,-12.46 -55.55,52.31 -74.03,88.01 z M 375,3333.59 c 0,3.28 -20.512,27.58 -45.59,53.98 -84.289,88.79 -83.238,86.64 -77.808,159.69 2.617,35.35 5.738,65.31 6.949,66.48 4.34,4.42 28.437,-8.08 28.437,-14.72 0,-3.75 18.91,-34.07 42.032,-67.35 66.058,-95.23 69.652,-103.16 66.289,-145.78 -1.68,-21.09 -3.321,-42.81 -3.668,-48.32 C 390.98,3327.06 375,3323.2 375,3333.59 Z m 3307.81,214.68 c -28.08,56.49 -49.65,104.11 -47.97,105.79 1.68,1.71 12.04,-3.56 23.01,-11.72 18.99,-14.07 85.16,-121.92 85.16,-138.75 0,-4.42 2.81,-8.01 6.29,-8.01 7.85,0 11.83,-46.06 4.96,-57.19 -8.17,-13.24 -17.11,0.51 -71.45,109.88 z m -3350.232,35.51 c -29.918,39.49 -59.609,71.8 -66.019,71.8 -9.649,0 -11.008,14.02 -8.118,81.99 1.911,45.12 3.707,83.32 4.02,84.96 1.68,9.1 30.039,-24.65 61.211,-72.81 19.566,-30.27 46.058,-61.05 58.828,-68.36 21.25,-12.23 39.922,-57.77 23.629,-57.77 -3.359,0 -5.859,-17.11 -5.617,-38.01 0.738,-57.62 -0.942,-74.02 -7.5,-73.79 -3.321,0.12 -30.512,32.5 -60.434,71.99 z M 5815,3570.38 c 0,10.71 -53.87,117.54 -63.16,125.2 -2.66,2.19 -10.24,13.44 -16.84,25 -26.09,45.66 -67.38,81.37 -145.9,126.21 -45.15,25.78 -94.69,50.82 -110.08,55.63 -159.1,49.8 -164.02,50.82 -252.03,51.95 -112.5,1.48 -260.58,-14.96 -311.99,-34.61 -21.99,-8.44 -74.18,-28.2 -115.98,-43.95 -74.18,-27.97 -106.17,-41.64 -188,-80.35 -22,-10.39 -50.82,-22.34 -64.03,-26.56 -13.2,-4.22 -30.27,-10.23 -37.97,-13.36 -8.47,-3.44 -14.02,-2.07 -14.02,3.44 0,5 6.21,11.48 13.83,14.41 7.62,2.89 21.09,12.93 30,22.27 8.9,9.33 37.77,25.47 64.18,35.86 57.11,22.54 170.54,77.65 277.15,134.72 42.46,22.74 81.6,41.33 87.03,41.33 5.39,0 30.08,10.08 54.84,22.38 24.73,12.31 50.39,22 56.99,21.53 6.57,-0.51 15.71,1.83 20.28,5.19 34.53,25.2 246.13,24.69 331.64,-0.78 15.39,-4.57 35.97,-8.32 45.78,-8.32 9.8,0 36.83,-8.48 60.04,-18.83 23.24,-10.35 47.65,-21.09 54.26,-23.82 6.6,-2.78 26.4,-13.99 43.98,-24.97 17.62,-10.97 42.81,-25.97 56.02,-33.32 13.2,-7.3 40.43,-26.21 60.46,-41.99 31.33,-24.57 40.16,-38.47 62.07,-97.85 39.93,-108.24 47.86,-196.52 21.45,-239.26 -7.19,-11.56 -20,-9.76 -20,2.85 z m -2080,13.4 c 0,4.03 5.39,5.24 11.95,2.7 6.57,-2.54 9.93,-7.85 7.46,-11.88 -5.19,-8.4 -19.41,-1.64 -19.41,9.18 z m 1751.99,87.78 c 0,4.41 3.4,8 7.54,8 4.14,0 9.77,-3.59 12.46,-8 2.74,-4.38 -0.66,-7.97 -7.5,-7.97 -6.87,0 -12.5,3.59 -12.5,7.97 z m -1778.71,32.03 c -7.81,13.16 -11.09,23.98 -7.34,23.98 3.79,0 5.47,11.84 3.79,26.33 -2.46,20.94 12.03,108.83 25.35,153.67 1.29,4.42 5.27,22.38 8.87,40 8.04,39.77 30.5,93.24 45.54,108.52 6.25,6.33 19.3,27.69 29.03,47.5 9.72,19.76 28.43,46.48 41.6,59.29 13.12,12.86 23.9,28.25 23.9,34.18 0,5.98 8.99,14.96 20,19.96 10.98,5 20,11.49 20,14.42 0,2.93 20.67,14.73 45.98,26.21 54.18,24.61 101.56,26.68 124.34,5.47 14.02,-13.09 15.31,-21.13 10.58,-67.38 -5.27,-51.37 -56.05,-184.34 -81.01,-212.19 -5.94,-6.6 -14.61,-22.03 -19.26,-34.26 -15.12,-39.73 -94.42,-152.73 -134.03,-190.98 -84.33,-81.32 -131.87,-97.89 -157.34,-54.72 z m -106.37,-12.07 c -2.53,6.6 -7.81,9.96 -11.75,7.54 -3.95,-2.43 -7.15,6.6 -7.15,20.03 0,13.48 3.59,24.5 8.01,24.5 4.37,0 8,-1.37 8,-3.05 0,-1.64 5.43,-16.05 12.07,-31.99 7.43,-17.78 8.91,-28.99 3.75,-28.99 -4.57,0 -10.39,5.39 -12.93,11.96 z m 18.29,71.05 c -7.08,21.45 -11.22,41.76 -9.15,45.08 2.07,3.36 -1.13,10.16 -7.1,15.12 -5.98,4.96 -17.23,26.09 -25.04,46.91 -7.78,20.86 -17.5,42.19 -21.61,47.42 -13.78,17.58 -36.95,105.59 -28.59,108.36 4.41,1.49 19.34,1.33 33.17,-0.35 22.42,-2.69 28,-9.18 51.67,-59.8 14.57,-31.25 24.81,-63.32 22.74,-71.29 -2.31,-8.79 3.4,-20.12 14.57,-28.91 17.3,-13.59 18.01,-17.85 12.42,-74.84 -9.06,-92.39 -19.45,-99.03 -43.08,-27.7 z m -3262.739,-2.34 c -16.762,17.97 -30.473,37.11 -30.473,42.5 0,5.43 -11.09,20.43 -24.687,33.36 -36.481,34.72 -39.762,44.49 -44.449,132.65 -4.961,92.82 1.839,98.95 36.718,33.01 11.989,-22.66 31.41,-53.79 43.129,-69.18 11.711,-15.35 21.321,-31.76 21.321,-36.48 0,-4.69 2.699,-8.52 5.98,-8.56 3.32,0 12.031,-15.31 19.379,-33.98 15.82,-40.24 23.82,-125.98 11.75,-125.98 -4.488,0 -21.91,14.69 -38.668,32.66 z m 3110.899,86.83 c -19.26,7.31 -33.13,30.59 -68.91,115.51 -26.05,61.84 -24.1,66.1 31.57,68.09 37.38,1.36 48,-0.82 48,-9.85 0,-6.36 11.1,-33.98 24.65,-61.32 21.21,-42.7 47.35,-107.27 47.35,-116.92 0,-6.17 -63.75,-2.69 -82.66,4.49 z m -168.67,9.61 c 2.54,4.1 -2.23,19.03 -10.59,33.17 -8.36,14.14 -17.19,32.93 -19.65,41.72 -2.46,8.82 -12.15,35.07 -21.48,58.39 l -17.03,42.35 54.02,-2.35 c 46.33,-2.03 53.71,-4.37 51.68,-16.36 -1.29,-7.74 1.02,-14.03 5.08,-14.03 7.11,0 45.08,-83.39 45.51,-100 0.11,-4.37 3,-12.5 6.44,-18 3.48,-5.47 4.06,-13.6 1.33,-17.97 -2.7,-4.42 -0.23,-8.64 5.55,-9.38 5.74,-0.74 -11.14,-3.47 -37.54,-6.09 -52.66,-5.2 -70.35,-2.81 -63.32,8.55 z m -171.21,23.67 c -9.61,18.01 -17.46,37.82 -17.46,43.99 0,6.17 -3.83,11.25 -8.48,11.25 -4.65,0 -6.68,2.93 -4.45,6.52 3.94,6.37 -9.89,53.21 -20.63,69.85 -13.28,20.58 7.34,29.37 58.56,24.96 28.04,-2.39 51.95,-4.57 53.08,-4.85 1.95,-0.47 28.05,-56.48 54.88,-117.69 6.06,-13.87 11.02,-34.57 11.02,-46.02 0,-20.35 -1.13,-20.78 -54.49,-20.78 h -54.53 z m -148.75,-16.09 c -4.3,3.95 -3.6,11.02 1.68,17.38 9.29,11.21 4.37,45.94 -6.49,45.94 -3.4,0 -8.4,8.83 -11.13,19.65 -2.7,10.82 -8.99,29.69 -13.99,41.99 -18.94,46.76 -16.48,50.35 34.73,50.35 41.17,0 47.66,-2.18 53.79,-18 10.51,-27.27 30.59,-80 37.27,-97.97 3.28,-8.83 5.35,-18.87 4.57,-22.35 -0.75,-3.47 2.46,-13.43 7.11,-22.15 4.64,-8.71 6.32,-19.29 3.75,-23.51 -5.47,-8.87 -100.16,-1.45 -111.29,8.67 z m -125.82,60 c -12.35,30.43 -22.54,61.41 -22.66,68.83 -0.16,7.46 -3.83,15.78 -8.24,18.48 -4.42,2.73 -8.01,10.15 -8.01,16.48 0,8.44 10.35,11.52 38.71,11.52 34.3,0 39.96,-2.5 49.45,-21.99 5.86,-12.11 11.22,-23.79 11.84,-26.01 11.99,-42.58 19.18,-73.56 22.62,-97.5 3.67,-25.75 1.99,-29.89 -13.21,-32.39 -34.29,-5.58 -47.69,6.25 -70.5,62.58 z m -62.89,-37.69 c 0,8.24 -6.92,30.74 -15.4,50 -8.43,19.25 -17.89,48.86 -21.01,65.78 -5.04,27.42 -4.02,30.47 9.37,27.73 8.95,-1.83 14.07,-8.59 12.66,-16.8 -1.29,-7.53 1.09,-13.71 5.31,-13.71 7.46,0 27.62,-37.97 52.03,-98 l 12.19,-30 h -27.58 c -21.64,0 -27.57,3.24 -27.57,15 z m -129.03,21.01 c -1.33,13.2 -5.97,28.87 -10.35,34.81 -4.37,5.93 -8.75,14.96 -9.76,20 -1.02,5.04 -5.47,21.09 -9.93,35.62 -9.33,30.55 -2.3,36.25 39.69,32.15 22.46,-2.23 29.06,-8.32 46.76,-43.28 22.85,-45.16 27.65,-62.62 25.55,-92.85 -0.71,-10 -9.77,-14.18 -34.93,-15.98 -41.01,-2.97 -43.98,-1.09 -47.03,29.53 z m -2155.431,-6.91 c 2.621,10.39 1.761,18.9 -1.868,18.9 -6.171,0 -73.671,119.96 -73.671,130.94 0,2.81 15.89,5.08 35.308,5.08 32.891,0 37.192,-2.58 63.012,-38.01 15.23,-20.9 37.18,-56.91 48.82,-80 11.61,-23.08 25.36,-41.99 30.59,-41.99 5.941,0 6.641,-2.77 1.84,-7.5 -8.25,-8.16 -70.668,-14.41 -94.18,-9.41 -10.941,2.3 -13.398,7.81 -9.851,21.99 z m -109.61,-2.07 c -14.019,16.99 -85.929,143.79 -85.929,151.56 0,2.23 15.968,4.1 35.539,4.1 30.671,0 38.132,-3.48 54.14,-25.35 26.141,-35.55 55.86,-99.02 57.192,-121.99 0.629,-10.63 3.828,-19.34 7.109,-19.34 3.32,0 6.02,-3.36 6.02,-7.5 0,-13.71 -59.77,1.25 -74.071,18.52 z m 2100.941,56.99 c -14.34,39.61 -26.21,74.69 -26.44,78.01 -0.24,3.28 19.21,5.97 43.24,5.97 34.92,0 47.11,-3.59 60.78,-18 25.27,-26.64 36.64,-56.02 42.93,-111.18 l 3.36,-29.14 -48.95,1.18 -48.9,1.17 z M 629.102,3903.16 c 1.128,10.19 -1.993,23.47 -6.993,29.49 -4.961,6.02 -5.937,10.98 -2.07,11.05 3.832,0.04 3.242,2.78 -1.289,5.98 -4.531,3.24 -21.48,28.4 -37.66,55.9 l -29.41,50 h 45.039 c 42.301,0 74.301,-14.1 74.301,-32.74 0,-3.39 10.46,-23.55 23.242,-44.72 12.769,-21.21 25.386,-51.13 28.008,-66.56 l 4.718,-27.97 -50,0.5 c -47.418,0.51 -49.879,1.49 -47.886,19.07 z m 1753.398,0.43 c -12.58,24.45 -55.35,127.85 -53.09,128.32 18.52,3.67 86.14,4.1 91.02,0.54 3.71,-2.69 13.83,-18.39 22.46,-34.88 8.67,-16.48 17.81,-30 20.35,-30 2.5,0 5,-8.08 5.55,-18.01 1.33,-24.02 5.31,-39.8 13.16,-52.38 5.12,-8.2 -4.06,-9.92 -43.4,-8.01 -34.41,1.64 -51.79,6.14 -56.05,14.42 z m -137.81,-10.71 c -17.78,3.29 -21.29,7.27 -17.39,19.65 2.97,9.38 -4.57,35.9 -18.94,66.68 -13.16,28.13 -21.84,53.21 -19.3,55.74 2.54,2.54 25.2,4.61 50.35,4.61 h 45.71 l 20.86,-44.02 c 11.48,-24.22 23.16,-58.4 25.97,-75.98 l 5.08,-31.95 -35,0.59 c -19.26,0.35 -45.08,2.46 -57.34,4.68 z m -1083.48,4.89 c 4.65,12.07 -18.24,86.36 -31.83,103.28 -4.61,5.78 -10.9,18.63 -13.95,28.51 -5.08,16.61 -3.01,18.01 26.52,18.01 53.05,0 70.43,-11.21 95.63,-61.72 12.73,-25.43 25.43,-55.93 28.28,-67.73 5.74,-23.87 2.77,-25.12 -69.88,-29.22 -30.59,-1.72 -38.09,0.19 -34.77,8.87 z m -133.05,-5.2 c 11.41,4.69 4.93,32.5 -13.82,59.45 -16.18,23.29 -42.86,86.72 -38.32,91.14 2.96,2.97 58.12,6.64 76.87,5.19 7.97,-0.62 55.39,-81.68 56.64,-96.79 0.51,-5.94 17.31,-49.26 22.19,-57.15 2.34,-3.75 -22.07,-6.57 -54.26,-6.21 -32.15,0.35 -54.34,2.34 -49.3,4.37 z M 895,3902.69 c 0,8.32 -12.578,40.62 -28.012,71.8 -15.386,31.13 -27.968,60.35 -27.968,64.84 0,14.34 71.21,9.61 87.351,-5.74 16.359,-15.59 55.391,-89.81 65.188,-123.95 l 6.332,-22.07 h -51.442 c -45.121,0 -51.449,1.88 -51.449,15.12 z m -128.012,-4.92 c 0,6.05 -14.367,38.82 -31.988,72.81 -17.578,34.02 -31.988,65.27 -31.988,69.41 0,4.18 21.597,7.58 48.008,7.58 30.308,0 48,-3.32 48,-9.02 0,-4.96 11.492,-29.1 25.511,-53.63 14.02,-24.54 26.68,-55.86 28.09,-69.61 l 2.539,-25 -44.07,-1.76 c -32.93,-1.37 -44.102,0.97 -44.102,9.22 z m 1347.192,11.79 c -2.38,7.7 -8.01,20.82 -12.5,29.11 -11.88,21.95 -32.42,93.82 -28.05,98.2 16.99,16.99 85.39,-7.81 85.39,-30.98 0,-6.8 25.24,-65.78 41.21,-96.33 6.57,-12.54 2.66,-13.98 -37.18,-13.98 -35.43,0 -45.43,2.85 -48.87,13.98 z m -114.49,6.96 c -9.07,11.52 -14.38,24.33 -11.8,28.51 2.58,4.14 -0.55,13.64 -6.95,21.06 -9.49,10.93 -29.92,59.29 -29.92,70.66 0,1.56 15.62,2.81 34.72,2.81 31.25,0 36.02,-2.57 47.42,-25.97 33.4,-68.56 38.64,-99.38 19.03,-111.88 -17.58,-11.25 -36.14,-6.01 -52.5,14.81 z m -158.75,2.11 c -2.62,7.11 -6.84,14.72 -9.34,16.95 -8.36,7.26 -30.35,59.65 -36.17,86.01 l -5.7,25.98 h 56.09 c 51.21,0 56.6,-1.56 61.6,-18.01 3.01,-9.88 10.94,-24.18 17.58,-31.75 7.81,-8.95 10.43,-22.04 7.42,-37.11 -3.47,-17.43 -0.47,-27.11 11.92,-38.25 16.4,-14.76 16.25,-14.92 -22.39,-18.86 -51.17,-5.28 -75.19,-0.82 -81.01,15.04 z m -529.92,-7.04 c -4.73,8.79 -6.41,15.98 -3.75,15.98 2.65,0 -1.84,9.88 -9.97,21.99 -17.53,26.06 -42.3,79.14 -42.3,90.71 0,4.8 17.11,7.15 41.52,5.7 39.85,-2.3 42.39,-3.87 62.78,-38.4 11.68,-19.8 19.76,-40.15 17.93,-45.19 -1.84,-5.04 0.54,-11.57 5.23,-14.46 4.69,-2.93 8.56,-12.26 8.56,-20.82 0,-16.05 12.69,-19.92 29.84,-9.02 13.09,8.28 8.09,29.8 -16.99,73.48 -29.46,51.28 -27.93,54.53 25.11,53.16 l 45.98,-1.13 21.88,-40 c 12.03,-22.03 20.54,-43.75 18.9,-48.36 -1.64,-4.57 2.03,-15.16 8.17,-23.52 21.68,-29.69 18.08,-30.7 -122.62,-34.14 -74.65,-1.8 -82.46,-0.58 -90.27,14.02 z m 392.96,25.98 c -9.06,18.71 -16.87,37.62 -17.42,41.99 -0.51,4.42 -3.98,11.72 -7.77,16.25 -3.79,4.57 -10.59,18.05 -15.12,30 l -8.28,21.76 h 42.07 c 38.95,0 43.28,-1.95 57.81,-26.01 8.68,-14.3 21.57,-43.99 28.71,-65.98 14.69,-45.35 10.98,-50.35 -38.28,-51.45 -22.03,-0.5 -27.38,3.79 -41.72,33.44 z m -145.97,-21.05 c 1.68,3.86 4.57,11.01 6.4,15.86 1.88,4.88 -5.78,26.09 -16.99,47.18 -11.25,21.14 -20.43,45.24 -20.43,53.64 0,13.28 5.2,14.92 41.21,12.77 l 41.25,-2.38 31.45,-61.72 c 17.3,-33.91 29.18,-65.31 26.44,-69.77 -6.13,-9.92 -113.59,-5.58 -109.33,4.42 z m 5245,-3669.731 c 46.09,21.41 97.97,69.262 103.79,95.781 4.65,21.211 8.36,23.168 52.81,27.809 47.07,4.93 88.05,20.711 109.57,42.23 6.02,6.02 8.24,10.981 4.88,10.981 -3.36,0 -0.31,4.488 6.8,10 15.43,11.949 30.04,62.461 30.12,103.98 0.04,27.5 1.91,30 22.34,30 12.27,0 38.36,8.09 57.97,18.008 47.38,23.91 71.41,66.371 71.6,126.563 0.12,41.839 -18.05,112.89 -33.55,131.211 -3.79,4.527 -17.86,23.437 -31.22,42.07 -17.92,25 -28.86,33.168 -41.71,31.25 -22.5,-3.402 -27.07,-32.113 -7.39,-46.332 8.21,-5.93 26.68,-28 41.06,-49.102 33.4,-48.976 42.58,-114.527 21.48,-153.668 -18.01,-33.398 -65.04,-59.73 -105.19,-58.832 -53.91,1.184 -53.71,1.293 -47.46,-27.179 20,-91.098 -6.57,-145.161 -81.8,-166.45 -26.6,-7.5 -39.06,-7.418 -57.85,0.352 -32.89,13.629 -48.24,5.859 -48.24,-24.41 0,-33.36 -25.04,-66.723 -69.69,-92.891 l -36.64,-21.488 -14.85,18.359 c -8.16,10.078 -14.84,22.739 -14.84,28.207 0,15.582 -30.16,38.75 -43.71,33.551 -6.76,-2.578 -12.27,-10.039 -12.27,-16.519 0,-29.301 61.1,-108.989 83.25,-108.52 4.8,0.078 23.12,6.879 40.74,15.039 z m -425.71,82.07 c 75.28,14.102 193.83,77.621 213.52,114.34 9.34,17.5 14.34,19.223 43.79,15.192 62.42,-8.551 213.4,47.148 258.83,95.507 23.59,25.122 39.61,75.192 36.91,115.551 -2.85,43.512 -6.64,48.789 -31.4,44.063 -18.72,-3.563 -20.12,-6.641 -16.76,-36.133 5.19,-45.078 -14.14,-88.438 -49.81,-111.609 -38.98,-25.309 -101.95,-51.559 -149.18,-62.141 -32.97,-7.391 -42.38,-6.449 -67.81,6.793 -31.52,16.449 -56.37,11.25 -56.37,-11.793 0,-14.258 -38.67,-67.07 -49.14,-67.07 -3.94,0 -20.62,-8.438 -37.03,-18.75 -66.01,-41.489 -148.59,-56.098 -215.12,-38.047 -38.24,10.386 -111.52,57.66 -109.06,70.347 0.94,4.692 -5.47,15.039 -14.26,23.012 -15.43,13.938 -16.52,13.899 -32.14,-1.723 l -16.14,-16.128 30.43,-29.961 c 75.2,-73.911 172.35,-107.969 260.74,-91.45 z m -141.91,247.313 c 1.56,2.527 0.78,12.5 -1.72,22.098 -5.58,21.289 -31.79,29.031 -60.9,17.968 -11.91,-4.527 -26.79,-6.25 -33.08,-3.816 -22.5,8.629 -37.35,56.25 -34.96,112.137 2.46,57.742 -10.86,78.089 -25.67,39.14 -20.86,-54.801 1.96,-147.89 42.78,-174.64 17.77,-11.637 108,-21.879 113.55,-12.887 z m 204.1,120.348 c 50.63,14.058 95.04,64.679 98.75,112.539 1.8,23.511 4.42,26.211 23.05,23.98 11.56,-1.41 36.91,4.492 56.33,13.09 29.02,12.851 39.14,23.43 56.68,59.293 18.4,37.617 20.35,48.168 13.94,76.527 -4.06,18.081 -13.67,39.221 -21.36,46.911 -11.18,11.17 -11.76,14.69 -2.93,17.34 16.87,5.12 55.27,42.93 66.4,65.36 13.17,26.68 9.26,58.71 -11.29,91.91 -23.2,37.54 -60.97,58.79 -118.44,66.68 -50.07,6.84 -73.63,0.98 -73.63,-18.36 0,-11.21 14.46,-15.55 83.44,-25.04 44.06,-6.05 72.3,-29.61 80.59,-67.15 10.19,-46.6 -42.47,-88.04 -111.92,-88.04 -32.89,0 -44.1,-2.89 -44.1,-11.41 0,-14.92 21.91,-36.56 36.99,-36.56 19.61,0 57.97,-23.13 67.31,-40.59 20.27,-37.891 -18.44,-98.59 -68.91,-108.078 -14.73,-2.742 -37.11,0.5 -55.08,8 -16.64,6.957 -37.03,12.656 -45.27,12.656 -19.69,0 -19.92,-27.656 -0.31,-41.558 8.08,-5.75 17.07,-20.079 20,-31.84 9.53,-38.668 -53.05,-94.61 -105.86,-94.61 -48.13,0 -96.88,44.45 -96.88,88.36 0,19.922 -29.57,21.332 -33.87,1.64 -4.02,-18.199 8.83,-58.16 24.5,-76.25 34.92,-40.351 106.52,-60.148 161.87,-44.8 z m 568.13,305.31 c 35.7,24.18 63.4,78.94 63.4,125.43 0,65.55 -61.14,142.23 -119.65,150.08 -26.53,3.55 -32.15,7.07 -27.97,17.34 22.69,55.59 19.69,85.51 -14.96,148.79 -22.54,41.17 -104.34,85.04 -168.4,90.35 -73.16,6.06 -141.02,-26.6 -141.02,-67.89 0,-28.98 20.71,-30.86 47.35,-4.26 56.09,56.14 188.67,24.73 231.09,-54.72 29.14,-54.61 19.53,-98.99 -27.81,-128.25 -29.85,-18.39 -32.97,-28.75 -13.13,-43.24 9.26,-6.79 21.21,-7.69 37.97,-2.89 40.67,11.64 67.31,8.01 100.08,-13.67 87.7,-58.05 59.73,-170.51 -47.58,-191.25 -106.91,-20.63 -110.39,-33.63 -10.54,-39.65 57.65,-3.441 67.96,-1.871 91.17,13.83 z"
         style="fill:#000000;fill-opacity:1;fill-rule:nonzero;stroke:none"
         id="path14"
         inkscape:connector-curvature="0" /><path
         d="m 2049.49,2107.34 c 0,4.76 -5.08,8.55 -11.25,8.55 -9.14,0 -9.49,3.79 -1.99,20 10.31,22.23 30.31,25.98 44.92,8.4 14.14,-17.07 6.8,-40 -13.75,-42.93 -9.88,-1.37 -17.93,1.29 -17.93,5.98 z m -742.07,31.21 c -8.01,5.08 -7.69,14.33 1.64,45.27 6.41,21.33 9.81,41.84 7.54,45.55 -2.3,3.67 3.28,16.13 12.38,27.73 9.07,11.53 16.49,25.55 16.49,31.21 0,12.31 45.19,51.64 59.37,51.64 19.3,0 37.15,-29.96 44.42,-74.53 8.55,-52.61 18.67,-73.98 40.58,-85.7 20.59,-10.98 29.18,-5.16 43.75,29.73 17.39,41.52 15,57.46 -10.11,68.16 -31.84,13.63 -50,30.74 -50,47.15 0,31.99 46.95,33.05 81.48,1.8 9.96,-8.99 22.07,-10.75 46.02,-6.72 29.06,4.88 32.5,3.75 32.5,-10.63 0,-11.25 -8.32,-18.79 -28.01,-25.31 -23.48,-7.7 -27.97,-12.97 -27.97,-32.58 0,-16.91 -3.91,-23.4 -14.02,-23.55 -10.9,-0.08 -11.6,-1.64 -3.13,-6.96 22.31,-14.14 -17.69,-80.86 -48.51,-80.86 -8.17,0 -26.68,4.89 -41.14,10.94 -28.32,11.84 -48.63,52.42 -55.86,111.56 -4.29,35.08 -6.48,38.68 -18.67,31.02 -12.19,-7.58 -35.62,-65.55 -30.12,-74.45 2.47,-3.95 -1.17,-9.38 -8.04,-12.03 -6.88,-2.62 -12.54,-11.45 -12.54,-19.54 0,-16.95 -16.21,-55.62 -23.28,-55.39 -2.58,0.08 -9.22,3.01 -14.77,6.49 z m 427.58,70.74 c -9.41,2.58 -13.59,10 -11.99,21.29 1.4,9.84 -4.46,23.4 -13.52,31.33 -15.66,13.71 -15.7,14.22 -0.86,25.74 19.03,14.69 118.32,11.84 123.48,-3.59 4.22,-12.66 -13.13,-23.87 -37.11,-23.99 -10.43,-0.08 -16.29,-3.71 -13.44,-8.28 2.78,-4.49 8.28,-6.13 12.31,-3.67 3.98,2.46 16.95,-0.55 28.83,-6.8 21.56,-11.29 21.56,-11.33 4.33,-20.58 -20.19,-10.79 -71.17,-17.15 -92.03,-11.45 z m 268.83,53.44 c -19.14,24.41 -17.78,53.98 4.88,103.36 9.81,21.48 12.77,37.03 8.05,42.73 -8.99,10.82 -43.83,7.93 -59.26,-4.92 -12.07,-10 -44.02,-3.79 -44.02,8.59 0,4.07 7.22,14.65 16.01,23.4 20.12,20.16 83.91,22.03 110.74,3.24 21.49,-15.11 20.82,-51.17 -1.91,-102.14 -18.55,-41.53 -12.15,-56.53 21.29,-49.93 25.59,5.04 48.79,25.67 41.72,37.15 -3.24,5.2 44.88,16.68 50.31,11.99 1.17,-1.09 -3.32,-12.34 -9.96,-25.11 -6.64,-12.7 -12.11,-26.8 -12.15,-31.25 -0.08,-13.87 -31.68,-28.6 -71.33,-33.32 -34.14,-4.03 -39.72,-2.35 -54.37,16.21 z m -818.36,356.01 c 0,4.81 8.98,14.69 19.96,21.88 19.18,12.58 41.6,15.23 264.41,31.05 35.43,2.5 71.41,5.86 80,7.46 26.84,5 145.98,12.19 291.64,17.58 77,2.85 147.19,6.53 156.02,8.24 8.79,1.68 55.59,4.89 103.98,7.19 48.4,2.27 106.02,5.82 128.01,7.81 21.99,1.96 81.41,5.63 131.99,8.09 83.99,4.1 200.79,14.1 285,24.53 26.22,3.17 34.11,1.25 38.29,-9.61 9.18,-24.02 -9.26,-30.19 -93.29,-31.25 -93.94,-1.25 -223.82,-8.98 -333.98,-19.92 -41.8,-4.14 -121.02,-9.8 -176.02,-12.58 -55,-2.81 -116.21,-6.17 -136.01,-7.46 -19.77,-1.29 -93.59,-4.61 -163.99,-7.34 -70.39,-2.7 -136.99,-6.45 -148,-8.4 -10.98,-1.84 -43.4,-5.51 -72,-8.05 -28.59,-2.5 -84.41,-7.97 -123.98,-12.15 -39.61,-4.14 -97.23,-9.14 -128.01,-11.13 -30.82,-1.95 -71.29,-6.09 -90,-9.18 -22.89,-3.79 -34.02,-2.73 -34.02,3.24 z m 178.51,209.81 c -14.02,4.18 -32.69,16.72 -41.48,27.89 -15,19.1 -16.41,39.45 -6.52,94.88 0.82,4.73 -14.03,9.69 -32.97,11.06 -30.31,2.22 -34.22,4.61 -32.03,20 1.99,13.94 8.67,18.08 32.5,20 16.52,1.4 30.27,4.96 30.62,8.04 0.35,3.01 2.38,12.7 4.57,21.49 2.19,8.79 3.67,25.43 3.36,36.99 -0.94,30.74 17.38,43.01 35.04,23.48 7.7,-8.52 11.68,-19.18 8.87,-23.75 -10.74,-17.35 -12.5,-64.73 -2.39,-65.28 24.03,-1.48 50.16,-8.47 57.04,-15.35 12.81,-12.81 -11.72,-33.24 -36.8,-30.62 -26.88,2.85 -38.01,-10.67 -38.17,-46.49 -0.23,-42.3 37.93,-59.84 83.09,-38.12 29.22,14.02 28.79,14.06 28.79,-3.6 0,-32.85 -48.48,-53.9 -93.52,-40.62 z m 561.49,10.9 c -35.2,9.29 -68.48,19.68 -73.99,23.12 -13.63,8.56 -12.53,25.63 2.58,40.82 16.84,16.8 28.09,15.82 32.97,-2.93 4.65,-17.81 40.67,-32.5 79.45,-32.5 21.68,0 28.99,4.61 39.46,24.81 14.29,27.65 9.72,63.12 -8.09,63.12 -6.21,0 -20.51,-3.44 -31.68,-7.73 -16.6,-6.29 -21.87,-5 -28.28,6.99 -5.98,11.21 -4.22,18.05 7.34,28.55 8.36,7.58 18.87,24.26 23.36,37.04 7.15,20.54 5.79,24.84 -11.44,36.13 -23.28,15.27 -71.37,9.33 -82.27,-10.16 -4.76,-8.55 -12.61,-10.82 -24.22,-7.15 -20.7,6.53 -21.01,10.9 -2.61,34.81 15.23,19.84 67.15,35.78 93.43,28.79 50.47,-13.44 77.66,-50.28 60.59,-82.19 -7.23,-13.4 -6.02,-17.89 6.68,-24.65 28.95,-15.47 40.74,-33.51 40.74,-62.11 0,-32.11 -29.1,-96.48 -47.73,-105.62 -6.76,-3.28 -41.06,1.6 -76.29,10.86 z m 300.12,32.34 c -8.21,9.92 -2.86,19.61 31.56,57.27 22.77,24.92 55.7,66.4 73.16,92.07 17.5,25.74 36.14,46.68 41.49,46.56 5.31,-0.12 18.32,-14.26 28.9,-31.37 10.59,-17.11 25.82,-32.93 33.91,-35 19.45,-5.08 32.85,-42.15 26.21,-72.5 -7.03,-31.91 -34.84,-68.87 -51.84,-68.87 -22.65,0 -104.64,39.65 -99.45,48.05 12.81,20.74 -20.82,4.61 -41.91,-20.04 -27.23,-31.91 -28.56,-32.42 -42.03,-16.17 z m 190.31,37.77 c 19.49,19.46 10.62,49.38 -21.37,72 -36.48,25.78 -49.06,18.86 -49.06,-27.23 0,-26.6 3.24,-31.76 26.01,-41.76 33.13,-14.49 33.01,-14.45 44.42,-3.01 z m -826.41,20.08 c -22.42,5.39 -28.4,12.66 -20.7,25.12 7.03,11.37 51.6,14.41 79.88,5.39 13.75,-4.3 15.31,-8.09 8.52,-20.78 -8.13,-15.16 -31.21,-18.52 -67.7,-9.73 z m 31.99,47.74 c -55.23,4.8 -68,9.84 -68,26.68 0,17.85 8.55,18.9 86.83,10.7 32.85,-3.44 49.18,-8.63 49.18,-15.7 0,-9.18 -26.44,-29.57 -33.47,-25.82 -1.41,0.74 -16.92,2.65 -34.54,4.14 z m -273.98,292.5 c -20.08,6.44 -26.02,12.85 -26.02,28.12 0,17.58 2.47,19.14 22,14.26 61.29,-15.31 71.52,-14.65 76.75,4.92 7.43,27.66 6.33,53.13 -2.57,58.63 -4.3,2.62 -18.6,6.18 -31.76,7.89 -40,5.04 -53.63,11.72 -61.92,30.36 -23.51,53.08 53.09,132.73 99.38,103.32 5.43,-3.44 12.19,-17.74 15,-31.88 4.49,-22.46 3.01,-25.55 -12.11,-25.55 -9.49,0 -19.34,5.36 -21.87,11.96 -6.8,17.77 -24.85,14.57 -38.87,-6.84 -18.67,-28.51 -8.01,-45.12 28.83,-45.12 31.13,0 62.07,-20.31 64.06,-41.99 0.51,-5.51 1.48,-15.43 2.19,-22.07 2.14,-20.43 -17.74,-82.15 -28.71,-89.14 -13.68,-8.67 -52,-7.26 -84.38,3.13 z m 809.96,22.11 c -12.81,20.7 46.09,111.99 85.59,132.65 25.86,13.48 56.95,4.49 70.23,-20.39 l 8.79,-16.37 21.91,16.18 c 18.09,13.43 31.25,15.7 75.08,13.24 57.74,-3.17 83.17,-18.32 76.14,-45.2 -2.31,-8.79 2.22,-20.86 10.66,-28.51 12.38,-11.21 18.98,-11.8 43.12,-3.83 15.67,5.19 28.6,11.8 28.72,14.8 0.11,2.97 10.7,17.97 23.55,33.4 22.62,27.11 23.67,27.5 34.92,12.23 10.35,-13.95 9.69,-18.48 -6.09,-41.68 -52.7,-77.58 -134.53,-86.88 -163.2,-18.67 -16.14,38.47 -26.33,37.26 -38.05,-4.57 -6.29,-22.46 -13.13,-31.37 -24.06,-31.37 -13.05,0 -15.12,5.51 -14.11,38.01 0.79,25.27 -2.07,38.04 -8.59,38.04 -12.93,0 -39.45,-29.53 -56.13,-62.5 -18.01,-35.7 -31.56,-28.59 -36.6,19.11 -7.7,73.28 -27.93,78.55 -66.61,17.34 -14.57,-23.05 -28.82,-48.28 -31.64,-55.94 -5.58,-15.31 -25.7,-18.83 -33.63,-5.97 z m -314.37,10 c -5,6.01 -10.04,47.42 -11.29,93.39 l -2.31,82.5 -38.47,-49.57 c -31.29,-40.35 -40.55,-47.85 -49.77,-40.19 -9.61,7.93 -7.97,13.94 10.43,38.44 66.13,88.08 90.12,113.39 107.58,113.39 12.81,0 15.08,-3.67 11.17,-18.04 -12.07,-43.95 -14.69,-144.38 -4.57,-175.08 8.91,-27.07 8.67,-33.32 -1.68,-43.63 -10.12,-10.12 -13.52,-10.28 -21.09,-1.21 z m 126.4,11.75 c -16.79,8.48 -33.87,26.14 -42.61,44.03 -27.39,56.05 7.61,145.19 65.66,167.3 22.07,8.4 64.96,-6.99 64.96,-23.32 0,-5.62 8.63,-13.51 19.18,-17.54 41.33,-15.7 58.67,-73.75 30.82,-102.97 -7.7,-8.12 -17.89,-21.44 -22.62,-29.61 -23.98,-41.48 -75.19,-58.24 -115.39,-37.89 z m 92.89,63.71 c 14.92,15.75 27.11,33.44 27.11,39.26 0,12.66 -38.36,49.61 -58.01,55.86 -7.69,2.46 -13.98,7.81 -13.98,11.88 0,14.8 -25.2,7.03 -44.41,-13.71 -17.15,-18.52 -25.43,-51.37 -19.89,-78.83 0.9,-4.38 2.23,-11.49 2.97,-15.82 1.84,-10.78 15.28,-24.65 29.45,-30.43 21.65,-8.79 49.34,2.69 76.76,31.79 z m -508.94,-13.51 c -5.24,3.24 -8.13,12.69 -6.45,20.94 2.62,12.89 9.34,14.72 46.8,12.65 46.29,-2.58 58.59,-8.24 49.37,-22.5 -6.91,-10.74 -76.44,-19.29 -89.72,-11.09 z m -7.66,75.66 c -17.97,21.64 -1.33,30.28 46.68,24.3 53.13,-6.6 57.77,-8.75 51.84,-24.26 -6.21,-16.17 -85.12,-16.25 -98.52,-0.04 z"
         style="fill:#000000;fill-opacity:1;fill-rule:nonzero;stroke:none"
         id="path16"
         inkscape:connector-curvature="0" /></g></g></svg>