<?xml version="1.0" encoding="UTF-8" standalone="no"?>
<!-- Created with Inkscape (http://www.inkscape.org/) -->

<svg
   xmlns:dc="http://purl.org/dc/elements/1.1/"
   xmlns:cc="http://creativecommons.org/ns#"
   xmlns:rdf="http://www.w3.org/1999/02/22-rdf-syntax-ns#"
   xmlns:svg="http://www.w3.org/2000/svg"
   xmlns="http://www.w3.org/2000/svg"
   xmlns:sodipodi="http://sodipodi.sourceforge.net/DTD/sodipodi-0.dtd"
   xmlns:inkscape="http://www.inkscape.org/namespaces/inkscape"
   version="1.1"
   id="svg2"
   xml:space="preserve"
   width="738.66669"
   height="418.66666"
   viewBox="0 0 738.66669 418.66666"
   sodipodi:docname="kniha.svg"
   inkscape:version="0.92.4 (5da689c313, 2019-01-14)"><metadata
     id="metadata8"><rdf:RDF><cc:Work
         rdf:about=""><dc:format>image/svg+xml</dc:format><dc:type
           rdf:resource="http://purl.org/dc/dcmitype/StillImage" /><dc:title></dc:title></cc:Work></rdf:RDF></metadata><defs
     id="defs6" /><sodipodi:namedview
     pagecolor="#ffffff"
     bordercolor="#666666"
     borderopacity="1"
     objecttolerance="10"
     gridtolerance="10"
     guidetolerance="10"
     inkscape:pageopacity="0"
     inkscape:pageshadow="2"
     inkscape:window-width="1920"
     inkscape:window-height="1001"
     id="namedview4"
     showgrid="false"
     inkscape:zoom="0.51037905"
     inkscape:cx="369.33334"
     inkscape:cy="209.33333"
     inkscape:window-x="-9"
     inkscape:window-y="-9"
     inkscape:window-maximized="1"
     inkscape:current-layer="g10" /><g
     id="g10"
     inkscape:groupmode="layer"
     inkscape:label="ink_ext_XXXXXX"
     transform="matrix(1.3333333,0,0,-1.3333333,0,418.66667)"><g
       id="g12"
       transform="scale(0.1)"
       style="fill:#ff4800;fill-opacity:1"><path
         d="m 4805,6.19141 c -8.75,14.13669 -27.19,109.05859 -23.2,119.41059 2.34,6.128 -6.84,22.027 -20.43,35.308 -13.56,13.281 -27.15,31.918 -30.16,41.41 -16.48,51.871 -117.54,127.578 -184.53,138.239 -15.59,2.461 -39.65,10.82 -53.48,18.562 -26.13,14.57 -33.08,32.918 -42.77,112.57 -6.95,57.457 -37.5,87.309 -169.1,165.348 -37.31,22.109 -68.24,34.77 -85,34.77 -57.23,0 -57.31,48.793 -0.12,88.132 19.84,13.668 42.31,23.86 49.92,22.731 7.62,-1.172 21.49,2.066 30.82,7.226 9.3,5.153 18.99,7.301 21.53,4.762 2.5,-2.5 29.06,6.059 59.02,19.059 30,12.972 79.69,31.922 110.51,42.07 30.78,10.16 85.54,32.039 121.68,48.602 71.21,32.648 115.39,46.597 214.29,67.73 35.24,7.539 69.61,18.559 76.41,24.5 9.65,8.389 25.59,9.249 71.99,3.819 32.82,-3.792 69.65,-10.862 81.96,-15.702 36.95,-14.527 117.65,-72.726 117.65,-84.84 0,-6.207 5.55,-14.378 12.31,-18.168 15.39,-8.589 83.67,-143.441 83.82,-165.539 0.2,-27.043 9.93,-34.543 51.88,-40.082 60.51,-8.05 99.41,-27.461 149.06,-74.531 50,-47.387 62.39,-76.207 82.66,-192 6.4,-36.398 13.71,-69.609 16.29,-73.789 2.58,-4.168 2.22,-34.84 -0.78,-68.117 -6.41,-70.66 -10.98,-75 -85.12,-80.863 -26.84,-2.149 -54.49,-6.68 -61.45,-10.118 -6.95,-3.429 -34.25,-10.82 -60.66,-16.402 -26.41,-5.59 -55.2,-13.25 -63.98,-17 -16.14,-6.91 -60.32,-20.391 -156.02,-47.5702 -28.59,-8.168 -93.4,-27.6602 -143.98,-43.3985 -50.63,-15.7422 -99.69,-28.5586 -109.03,-28.5586 -9.37,0.0391 -21.52,-5.3515 -26.99,-11.9531 -10.78,-12.96876 -28.67,-15.85938 -35,-5.61719 z m 124.49,81.94919 c 18.99,5.0782 38.13,12.0314 42.5,15.4684 4.42,3.403 18.79,8.161 31.99,10.539 13.21,2.391 38.4,8.403 56.02,13.321 17.62,4.929 42.07,10.859 54.38,13.211 20.82,3.898 78.47,26.129 69.6,26.832 -2.18,0.16 -32.77,-5.5 -67.96,-12.614 -143.13,-28.828 -177.43,-35.359 -208.01,-39.648 -17.62,-2.461 -34.85,-7.27 -38.28,-10.629 -9.53,-9.3319 2.89,-34.2929 14.8,-29.7226 5.74,2.2227 25.98,8.1602 44.96,13.2422 z m 6.53,63.2384 c 75.82,11.91 133.28,28.16 217.38,61.41 87.58,34.652 144.69,50.781 180.12,50.93 14.06,0.043 27.77,3.679 30.46,8.09 2.74,4.41 13.17,8.011 23.17,8.011 39.49,0 31.87,15.739 -50.12,103.828 -37.03,39.801 -49.41,59.332 -53.24,84.024 -9.41,61.019 -10.35,62.226 -42.58,56.598 -56.64,-9.961 -75,-8.79 -84.02,5.308 -13.4,20.942 1.05,29.692 61.17,36.922 78.01,9.371 124.3,-15.512 112.54,-60.512 -2.38,-8.976 -0.39,-18.789 4.41,-21.758 4.77,-2.929 8.67,-10.39 8.67,-16.519 0,-6.133 8.13,-19.652 18.01,-30.039 9.92,-10.391 24.3,-29.453 32.03,-42.344 7.7,-12.93 21.8,-35.668 31.29,-50.508 14.46,-22.5 15.71,-29.57 7.5,-42.699 -8.55,-13.672 -7.93,-15.191 4.69,-11.75 7.97,2.18 24.38,6.168 36.45,8.82 20.23,4.528 21.56,7.231 17.42,34.77 -27.19,179.84 -55.9,236.758 -138.83,275.391 -29.34,13.668 -44.65,15.617 -89.02,11.519 -49.85,-4.652 -142.47,-28 -179.54,-45.269 -8.78,-4.102 -55.58,-18.711 -103.98,-32.422 -48.4,-13.75 -91.99,-28.239 -96.84,-32.192 -4.88,-3.976 -19.25,-8.59 -31.99,-10.308 -12.73,-1.68 -39.37,-6.989 -59.18,-11.801 -19.8,-4.84 -63.59,-14.688 -97.34,-21.949 -46.45,-10 -62.27,-16.801 -65.24,-28.129 -2.89,-11.129 3.52,-18.473 25.12,-28.711 32.19,-15.27 121.49,-101.871 121.49,-117.809 0,-5.59 9.88,-18.75 21.99,-29.301 19.22,-16.761 60.51,-81.05 58.67,-91.441 -4.26,-23.91 0.82,-36.328 13.32,-32.539 7.7,2.301 37.38,7.891 66.02,12.379 z m -31.96,68.359 c -6.25,7.543 -7.97,22.153 -4.61,40 2.93,15.633 2,28.09 -2.11,28.09 -14.64,0 -27.34,45.313 -17.73,63.242 7.69,14.371 6.72,16.758 -6.88,16.758 -8.67,0 -18.04,3.633 -20.82,8.121 -2.77,4.449 -8.28,6.09 -12.3,3.629 -12.77,-7.887 -39.61,12.192 -39.61,29.652 0,15.508 3.24,16.489 41.99,12.461 75.04,-7.769 93.24,-22.89 98.6,-81.871 1.21,-13.199 4.49,-34.808 7.34,-48.011 5.27,-24.649 -13.83,-83.981 -27.07,-83.981 -3.79,0 -11.37,5.352 -16.8,11.91 z m 183.01,42.071 c -0.55,7.703 -0.35,18.589 0.39,24.222 0.74,5.59 -6.05,20.547 -15.08,33.239 -8.98,12.66 -16.36,27.308 -16.36,32.5 0,5.242 -7.23,18.671 -16.02,29.851 -8.79,11.207 -16.02,30.66 -16.02,43.277 0,21.75 -1.79,22.93 -35.11,22.93 -34.77,0 -44.89,8.082 -44.89,36.012 0,18.051 42.86,21.879 80.9,7.191 45,-17.34 52.97,-25.312 57.93,-57.929 2.19,-14.731 10.12,-33.481 17.58,-41.723 7.46,-8.238 11.64,-20 9.26,-26.129 -2.35,-6.129 2.58,-21.559 10.97,-34.301 8.4,-12.73 15.2,-30.347 15.08,-39.14 -0.27,-21.168 -18.2,-43.981 -34.57,-43.981 -7.22,0 -13.55,6.293 -14.06,13.981 z m 129.38,1.679 c -9.18,5.742 -9.69,11.211 -2.5,26.992 7.5,16.489 6.52,22.071 -6.02,33.399 -8.24,7.461 -17.27,23.75 -20,36.211 -2.73,12.422 -10.12,26.922 -16.45,32.148 -6.32,5.231 -11.48,17.973 -11.48,28.282 0,19.421 -20.23,35.199 -45.47,35.429 -27.26,0.242 -37.23,11.922 -26.76,31.449 8.28,15.43 13.56,16.954 42.82,12.071 47.96,-7.93 60.5,-16.598 78.2,-54.219 8.67,-18.398 20.86,-42.352 27.15,-53.281 6.25,-10.899 13.79,-39.141 16.72,-62.739 4.49,-35.902 2.93,-45.39 -9.65,-57.929 -10.2,-10.153 -18.71,-12.653 -26.56,-7.813 z m 119.57,-55.66 c 10.66,6.871 10.66,7.731 0,7.731 -6.61,0 -17.43,-3.481 -24.03,-7.731 -10.66,-6.918 -10.66,-7.777 0,-7.777 6.6,0 17.42,3.48 24.03,7.777 z m 55,5 c 13.75,2.731 25,7.891 25,11.402 0,8.75 -48.83,1.961 -59.03,-8.199 -9.72,-9.769 -2.19,-10.472 34.03,-3.203 z m 68.36,20.152 c 21.95,10 20.31,22.809 -2.86,22.809 -16.32,0 -35.23,-18.59 -27.11,-26.711 6.8,-6.797 6.37,-6.84 29.97,3.902 z m -835.4,134.848 c 0,4.371 -6.28,7.934 -13.98,7.852 -11.95,-0.078 -12.27,-1.25 -1.99,-7.852 15.08,-9.769 15.97,-9.769 15.97,0 z m 8.32,144.492 c 46.02,17.852 96.29,36.211 111.68,40.821 15.43,4.57 31.61,11.211 36.02,14.757 6.8,5.43 87.42,31.68 111.99,36.454 20.43,3.937 91.17,27.339 120,39.687 17.62,7.5 33.79,13.242 36.02,12.77 5.35,-1.207 49.61,12.382 105.97,32.5 25.32,9.062 46.02,21.25 46.02,27.113 0,5.898 -10.78,29.019 -23.98,51.406 -13.21,22.383 -24.03,43.981 -24.03,47.961 0,10.672 -85,96.02 -95.62,96.02 -4.96,0 -16.33,6.8 -25.28,15.121 -8.9,8.32 -26.32,17.148 -38.71,19.609 -19.33,3.859 -106.05,-2.539 -188.4,-13.91 -30.58,-4.219 -121.48,-34.258 -149.21,-49.301 -11.68,-6.316 -25.28,-11.519 -30.16,-11.519 -4.92,0 -31.37,-10.469 -58.79,-23.239 -27.38,-12.781 -70.59,-31.25 -95.94,-40.98 -25.39,-9.762 -48.12,-20.899 -50.5,-24.762 -2.39,-3.867 -11.49,-7.039 -20.24,-7.039 -23.63,0 -63.12,-22.648 -63.12,-36.168 0,-6.48 -2.74,-10.902 -6.02,-9.801 -3.28,1.09 -7.81,-1.172 -10,-5.082 -2.19,-3.91 23.01,-17.418 56.02,-30.039 57.34,-21.949 61.64,-25.39 97.22,-78.629 20.51,-30.629 43.32,-73.832 50.67,-95.98 7.34,-22.149 15.93,-40.27 19.06,-40.27 3.08,0 43.32,14.61 89.33,32.5 z m 39.69,91.68 c 0,13.551 -6.33,23.039 -19.29,28.941 -10.63,4.848 -21.1,15.59 -23.29,23.829 -2.14,8.281 -10.89,15.039 -19.41,15.039 -17.97,0 -41.99,23.711 -41.99,41.41 0,8.16 -8.32,12.383 -25.24,12.89 -24.8,0.7 -40.93,13.981 -36.01,29.68 3.47,11.141 93.2,17.742 115.74,8.563 10.47,-4.301 20.31,-16.641 22.7,-28.442 2.26,-11.48 11.75,-24.289 21.01,-28.469 24.57,-11.14 44.53,-50.711 45.2,-89.613 0.54,-31.098 -1.14,-34.027 -19.42,-34.027 -16.05,0 -20,3.988 -20,20.199 z m 141.33,33.16 c -2.93,2.93 -5.31,14.649 -5.31,26.059 0,12.07 -6.68,24.922 -16.02,30.742 -8.79,5.508 -15.97,17.148 -15.97,25.937 0,8.75 -5.16,15.891 -11.45,15.891 -17.85,0 -36.56,23.133 -36.56,45.199 0,16.883 -3.48,19.801 -21.99,18.59 -46.64,-3.078 -51.22,-0.969 -48.56,22.231 2.5,21.722 3.28,21.992 59.73,21.992 65.35,0 95.35,-16.762 87.34,-48.75 -3.2,-12.731 1.06,-21.051 15.55,-30.539 11.95,-7.864 19.92,-20.633 19.92,-32.043 0,-10.43 5.39,-21.008 11.99,-23.547 15.35,-5.902 15.2,-20.274 -0.58,-51.883 C 4839.45,633.02 4825,625.48 4813.32,637.16 Z m 164.69,79.102 c -14.3,14.379 -26.02,32.777 -26.06,40.859 -0.04,8.09 -11.17,21.02 -24.76,28.75 -13.6,7.738 -26.6,21.25 -28.91,30 -2.66,10.32 -10.9,15.938 -23.2,15.938 -20.82,0 -51.1,25.472 -51.1,43.011 0,16.801 17.43,27.731 53.13,33.469 34.45,5.512 34.8,5.199 80.27,-71.25 5.12,-8.668 20.86,-20.578 34.96,-26.519 22.82,-9.571 25.12,-13.442 20.82,-34.801 -3.71,-18.559 -1.21,-26.25 11.02,-33.867 9.57,-5.981 15.82,-18.633 15.82,-31.954 0,-30.75 -28.01,-27.859 -61.99,6.364 z m -2830,-427.692 c -21.99,8.828 -61.6,19.649 -88.01,24.059 -26.41,4.41 -62.42,12.93 -80.08,18.871 -29.3,9.879 -139.76,20.578 -239.92,23.238 -34.92,0.942 -40.31,3.364 -42.54,18.953 -1.41,9.84 3.09,25.93 10,35.778 24.34,34.722 6.95,92.89 -24.18,80.972 -13.24,-5.113 -122.58,10.321 -155.27,21.879 -11.02,3.899 -29.03,8.629 -40,10.508 -65.2,11.211 -198.24,51.363 -228.01,68.793 -13.2,7.77 -54.61,21.988 -91.99,31.668 -37.42,9.652 -80.16,23.09 -95.04,29.891 l -26.99,12.34 5.9,53.171 c 3.24,29.207 5.78,56.707 5.7,61.129 -0.12,4.41 -2.35,56.602 -4.92,115.969 -2.58,59.422 -4.69,129.651 -4.69,156.061 l 0.04,48.09 -33.67,10.5 c -18.52,5.78 -43.168,20.16 -54.77,31.92 -11.64,11.79 -25.23,22.34 -30.269,23.43 -5.039,1.1 -33.481,-10.97 -63.25,-26.79 -46.321,-24.65 -59.84,-28.24 -94.602,-25.43 -58.359,4.76 -99.461,40.31 -99.461,85.97 0,10.47 -7.847,16.68 -25.968,20.51 -73.399,15.51 -110.321,108.95 -66.02,167.03 22.031,28.91 24.801,49.73 9.301,70.16 -19.461,25.55 -6.371,70.16 30.859,105.31 34.059,32.19 34.141,32.35 21.949,57.89 -36.211,75.86 51.129,158.32 148.121,139.93 18.829,-3.56 41.329,-12.9 50,-20.75 8.68,-7.85 15.79,-11.64 15.79,-8.36 0,3.25 13.902,-5.11 30.89,-18.59 24.77,-19.61 30.16,-28.52 27.07,-44.69 -2.691,-14.1 -8.98,-20.11 -20.89,-20.04 -22.621,0.16 -31.371,6.84 -49.262,37.62 -12.027,20.7 -21.328,26.48 -47.418,29.61 -17.82,2.15 -38.988,3.48 -47,2.93 -21.289,-1.41 -61.398,-41.91 -61.398,-62.03 0,-22.5 13.937,-48.2 26.289,-48.44 5.308,-0.08 18.59,-7.03 29.488,-15.39 19.449,-14.96 19.531,-15.47 4.762,-31.8 -10.66,-11.79 -24.762,-16.64 -48.551,-16.64 -36.719,0 -55.309,-14.14 -63.91,-48.59 -6.25,-25.04 4.89,-35.31 46.41,-42.81 27.191,-4.89 30.199,-7.78 27.969,-26.8 -1.989,-17.11 -8.168,-22.62 -31.641,-28.13 -53.476,-12.57 -76.058,-54.41 -56.058,-103.86 11.41,-28.17 28.48,-34.77 51.332,-19.77 32.699,21.41 72.308,-6.56 55.777,-39.41 -10.699,-21.21 -0.617,-50.86 23.441,-68.79 l 20.942,-15.63 66.867,22.89 66.883,22.89 0.816,136.02 c 0.703,123.44 10.352,209.73 27.152,243.52 3.399,6.87 14.329,31.17 24.25,53.98 26.25,60.43 58.44,68.52 181.49,45.63 24.88,-4.65 26.4,-3.29 46.44,40.46 11.37,24.89 26.8,47.47 34.26,50.2 7.46,2.73 48.01,39.45 90.08,81.6 96.52,96.64 158.05,153.4 192.5,177.66 14.84,10.43 40.51,30.66 57.03,44.96 16.52,14.3 32.89,25.97 36.45,25.97 3.51,0 20.15,12.62 36.95,28.01 16.84,15.43 33.55,28.01 37.15,28.01 3.63,0 15.9,8.63 27.3,19.18 12.19,11.29 26.76,17.58 35.51,15.31 8.13,-2.15 17.15,-0.08 20,4.53 5.2,8.4 123.4,4.57 148.59,-4.84 6.61,-2.46 22.07,-3.67 34.34,-2.7 19.14,1.53 87.11,-5.23 197.7,-19.68 15.39,-2.03 56.79,-5.55 91.99,-7.85 198.94,-13.01 250.35,-18.83 256.64,-29.03 2.46,-3.94 7.65,-5.19 11.6,-2.77 6.72,4.14 107.73,-6.52 151.76,-16.06 10.97,-2.38 48.79,-7.96 83.98,-12.42 162.66,-20.51 204.96,-28.24 211.33,-38.59 5.7,-9.18 7.5,-9.18 11.72,0 3.87,8.51 6.01,8.71 9.65,0.86 2.58,-5.51 7.93,-8.05 11.87,-5.59 13.24,8.21 235.39,-32.34 251.06,-45.82 4.18,-3.59 19.33,-6.52 33.71,-6.52 14.37,0 41.79,-5.31 60.97,-11.84 19.15,-6.52 41.8,-13.16 50.28,-14.8 41.6,-8.01 69.84,-29.69 82.69,-63.48 5.94,-15.58 13.95,-21.87 27.82,-21.87 16.32,0 20.31,-4.89 24.33,-30 14.49,-89.54 12.74,-223.87 -3.24,-249.69 -3.87,-6.29 -12.85,-7.93 -24.14,-4.34 -16.25,5.16 -17.34,8.79 -11.56,38.87 7.14,37.3 7.73,118.87 1.09,149.14 -2.42,11.02 -4.65,24.77 -4.96,30.55 -0.35,5.82 -21.33,-7.11 -46.6,-28.71 -25.31,-21.57 -60.39,-47.74 -78.01,-58.13 -17.62,-10.39 -33.79,-20.94 -36.02,-23.48 -10.66,-12.34 -71.17,-56.25 -77.53,-56.25 -3.95,0 -19.54,-12.1 -34.57,-26.99 -24.38,-24.02 -27.54,-32.11 -29.03,-73.98 -0.94,-25.86 3.24,-70.39 9.22,-99.03 6.02,-28.59 12.93,-92.92 15.39,-142.96 2.42,-50 8.16,-104.77 12.7,-121.64 15.82,-58.75 3.16,-204.612 -36.37,-419.381 -15.12,-81.911 -15.08,-94.957 0.19,-89.098 6.61,2.539 51.33,5.078 99.46,5.66 l 87.42,1.098 34.57,33.16 c 38.71,37.152 47.27,62.5 63.4,187.851 9.41,73.008 20.35,97.35 43.75,97.35 8.59,0 11.4,-11.639 11.4,-47.35 0,-26.05 -3.51,-48.55 -7.85,-50 -4.29,-1.48 -8.43,-20.66 -9.14,-42.652 -2.26,-68.949 -0.82,-73.867 23.01,-78.359 96.56,-18.207 206.48,-58.168 226.56,-82.348 5.16,-6.211 13.05,-11.332 17.5,-11.332 8.83,0 45.9,-40.309 45.94,-50 0,-10.848 22.19,-6.25 26.72,5.59 13.44,35 190.86,44.34 274.37,14.449 54.22,-19.449 110.82,-63.238 126.64,-98 12.86,-28.25 35.98,-108.25 36.18,-125.078 0.04,-5 -8.44,-14.691 -18.91,-21.531 -16.84,-11.047 -23.32,-11.129 -57.27,-0.93 -21.05,6.332 -58.59,11.52 -83.39,11.52 -24.85,0 -48.87,3.711 -53.4,8.281 -4.53,4.531 -14.06,6.019 -21.14,3.32 -10.27,-3.941 -11.99,-12.621 -8.43,-42.539 5.27,-44.57 -9.1,-64.18 -36.33,-49.609 -8.79,4.687 -44.14,8.168 -78.52,7.699 -119.8,-1.641 -442.93,19.219 -459.84,29.687 -11.99,7.383 -15.7,53.364 -6.21,76.321 9.26,22.269 8.24,25.82 -13.24,47.269 -27.54,27.461 -124.46,51.133 -183.09,44.692 -61.52,-6.758 -180.16,-71.371 -180.16,-98.129 0,-20.43 -27.69,-30.699 -86.99,-32.301 -33.55,-0.898 -88.01,-3.441 -120.97,-5.711 -54.46,-3.711 -252.7,-13.277 -332.04,-16.051 l -31.99,-1.09 -3.98,-57.539 c -5,-71.8 -11.76,-79.687 -57.58,-67.347 -36.21,9.726 -134.18,24.609 -163.91,24.886 -10.5,0.114 -19.45,-6.179 -22.54,-15.82 -6.64,-20.976 -42.46,-20.668 -95.97,0.742 z m 72.77,86.68 c 4.61,73.398 -9.73,101.68 -72.77,143.398 -30.82,20.391 -36.25,21.172 -144.61,21.172 -111.17,0 -113.09,-0.308 -151.37,-24.031 -28.44,-17.57 -44.73,-35.5 -61.09,-67.219 -12.27,-23.789 -20.78,-45.781 -18.87,-48.871 1.91,-3.121 44.1,-7.808 93.71,-10.508 49.61,-2.652 110,-10.742 134.22,-17.972 24.22,-7.219 63.09,-16.047 86.41,-19.641 23.36,-3.558 47.11,-10.387 52.85,-15.156 5.74,-4.774 21.91,-10 35.9,-11.602 14.02,-1.64 27.73,-5.242 30.5,-8.011 8.99,-8.981 11.49,0.66 15.12,58.441 z m 223.99,-28.359 c 2.5,6.558 -0.24,21.949 -6.1,34.179 -9.45,19.719 -17.46,23.399 -70.66,32.219 -33.01,5.473 -68.13,11.961 -78.01,14.383 -16.84,4.18 -18.01,1.906 -18.01,-35.231 V 352.75 l 34.03,-6.988 c 61.95,-12.782 133.63,-12.192 138.75,1.129 z m 1473.24,57.621 c 27.5,2.957 50,8.316 50,11.949 0,22.301 -26.1,100.391 -37.89,113.48 -16.92,18.668 -84.77,54.137 -113.56,59.289 -11.29,1.989 -46.6,5.59 -78.47,7.93 -52.31,3.871 -62.74,1.988 -108.64,-19.488 -27.93,-13.051 -65.7,-38.832 -83.94,-57.301 -33.09,-33.402 -63.6,-85.121 -55.2,-93.562 2.46,-2.418 21.84,-5.547 43.05,-6.95 21.25,-1.371 60.23,-4.57 86.64,-7.148 26.41,-2.539 80,-6.41 119.14,-8.59 39.14,-2.152 73.28,-6.062 75.9,-8.68 2.58,-2.57 15.55,-2.812 28.83,-0.5 13.28,2.34 46.64,6.637 74.14,9.571 z m -1180.2,54.84 c 34.03,1.796 65.24,5.386 69.38,7.968 4.18,2.578 34.84,5.508 68.16,6.559 33.32,1.062 60.63,5.269 60.63,9.34 0,4.101 16.99,32.5 37.73,63.16 25.2,37.191 50.47,63.519 76.02,79.262 34.72,21.371 38.28,26.328 38.28,53.589 0,16.559 6.64,49.532 14.8,73.321 8.13,23.789 19.22,73.871 24.65,111.25 5.43,37.418 12.97,82.418 16.8,100 12.58,58.399 16.17,151.569 7.58,196.099 -4.65,24.14 -10.36,96.13 -12.66,159.92 -2.3,63.79 -9.06,141.13 -15.04,171.83 -12.58,64.61 -25.47,78.48 -97.85,105.36 -52.97,19.64 -256.25,76.13 -274.3,76.17 -6.6,0.04 -30,5.78 -51.99,12.73 -43.24,13.71 -44.61,13.95 -128.44,21.37 -52.03,4.61 -112.18,13.67 -151.56,22.81 -8.79,2.03 -37.62,6.33 -63.98,9.53 -26.41,3.21 -53.72,8.83 -60.67,12.58 -6.95,3.71 -30.35,7.38 -51.99,8.2 -21.64,0.79 -53.75,4.34 -71.37,7.86 -140,27.93 -389.33,34.02 -603.98,14.72 -55,-4.92 -113.4,-10.08 -129.77,-11.44 -16.36,-1.37 -36.17,-4.34 -43.98,-6.57 -7.85,-2.26 -32.27,-6.28 -54.26,-8.94 -78.79,-9.49 -91.41,-18.52 -124.06,-88.36 -22.15,-47.34 -34.46,-99.34 -48.17,-203.67 -6.95,-52.74 -18.12,-116.1 -42.46,-240.2 -32.81,-167.58 -33.55,-176.72 -26.13,-332.73 3.91,-83.199 10.7,-153.558 15.08,-156.41 4.33,-2.808 5.51,-14.648 2.58,-26.289 -4.69,-18.832 -1.92,-22.652 24.92,-34.449 16.64,-7.274 45.12,-17.274 63.24,-22.192 32.07,-8.671 33.87,-8.121 61.88,19.571 36.36,35.98 73.32,64.488 83.51,64.488 4.34,0 9.92,5.281 12.38,11.652 7.19,18.778 60.39,41.168 131.25,55.231 52.74,10.469 77.43,11.449 122.86,5 65.62,-9.301 63.55,-8.32 130.85,-60.352 41.61,-32.109 56.49,-50.242 79.69,-97.031 15.74,-31.598 28.6,-63.008 28.6,-69.769 0,-10 3.94,-10.821 21.21,-4.219 11.68,4.418 66.68,10.121 122.22,12.66 l 101.02,4.57 51.48,-26.84 c 47.11,-24.57 96.06,-64.839 96.06,-79.019 0,-9.844 95.62,-25.352 191.99,-31.172 87.54,-5.309 159.57,-4.609 297.81,2.852 z M 4200,487.789 c 4.18,6.789 2.42,21.91 -4.57,38.59 -6.29,15.043 -11.45,28.281 -11.45,29.34 0,8.793 -80.82,61.832 -103.39,67.89 -34.54,9.219 -88.09,17.539 -104.57,16.25 -6.61,-0.55 -22.82,-1.879 -36.02,-2.968 -13.2,-1.102 -32.3,-4.77 -42.42,-8.2 -14.81,-5 -16.56,-8.441 -9.03,-17.543 5.16,-6.25 13.48,-11.41 18.44,-11.527 14.46,-0.312 65.2,-49.652 77.62,-75.5 9.65,-20.043 18.51,-25.121 57.66,-32.93 25.46,-5.082 47.65,-10.632 49.33,-12.312 1.68,-1.68 25.2,-2.891 52.27,-2.66 33.16,0.281 51.48,4.031 56.13,11.57 z m -1176.17,7.731 c 12.34,23.05 72.77,62.152 136.91,88.601 50.31,20.738 64.18,23 130.86,21.168 68.52,-1.918 79.14,-4.5 131.25,-31.758 31.21,-16.371 60.43,-29.73 64.92,-29.73 14.18,0 8.52,27.109 -10.04,48.168 -27.18,30.82 -78,42.851 -190.27,45.043 -92.15,1.789 -104.1,0.308 -142.81,-17.621 -23.24,-10.782 -45.04,-19.571 -48.52,-19.571 -13.55,0 -104.14,-100.242 -104.14,-115.242 0,-11.598 24.26,-3.277 31.84,10.942 z m -1234.81,85.55 c 3.32,41.801 1.21,50.942 -18.63,80.391 -25.23,37.418 -82.03,83.551 -123.01,99.918 -21.83,8.711 -42.77,9.262 -103.4,2.699 -63.32,-6.879 -83.94,-12.859 -123.71,-35.816 -55.86,-32.313 -108.28,-77.582 -108.28,-93.563 0,-15.937 41.53,-34.328 46.17,-20.429 8.75,26.25 155.55,73.558 228.25,73.558 31.32,0 107.77,-23.75 135.93,-42.187 25.24,-16.563 45.67,-60.629 45.67,-98.629 0,-48.09 16.6,-21.184 21.01,34.058 z m -78.43,-38.281 c 8.71,5.5 8.47,11.789 -1.41,35.391 -17.93,42.968 -60.43,61.64 -140.2,61.64 -70.58,0 -88.98,-4.34 -88.98,-20.859 0,-11.25 -8.52,-14.141 -33.98,-11.563 -7.74,0.782 -14.03,-1.609 -14.03,-5.277 0,-11.359 50.2,-33.75 88.01,-39.25 19.8,-2.902 39.73,-8.133 44.26,-11.68 4.57,-3.562 29.76,-7.82 56.01,-9.421 26.25,-1.598 54.93,-3.551 63.71,-4.329 8.83,-0.75 20.79,1.637 26.61,5.348 z m 1859.64,63.789 22.23,14.641 -43.94,29.179 c -52.54,34.93 -103.52,49.071 -117.19,32.622 -7.11,-8.59 -5.86,-12.071 5.78,-15.782 37.46,-11.91 51.21,-20.308 76.17,-46.367 14.69,-15.391 28.52,-28.199 30.7,-28.473 2.23,-0.277 14.03,6.133 26.25,14.18 z m 139.97,47.934 c 14.33,9.136 -7.9,27.379 -58.21,47.726 -36.79,14.922 -54.84,19.571 -118.83,30.782 -38,6.679 -16.91,-12.11 47.5,-42.301 32.31,-15.117 60.9,-30.981 63.52,-35.199 5.78,-9.329 51.8,-10 66.02,-1.008 z M 1066.45,1184.43 c 3.67,15.08 9.8,40 13.63,55.39 9.18,36.83 40.74,212.3 44.69,248.01 1.68,15.39 5.23,40.58 7.93,55.97 12.03,68.91 11.71,78.83 -2.7,82.78 -68.28,18.75 -108.4,10.78 -123.95,-24.61 -5.35,-12.19 -11.991,-23.95 -14.761,-26.18 -17.891,-14.14 -31.68,-254.6 -19.34,-336.79 6.102,-40.63 15.039,-54.06 48.171,-72.42 31.48,-17.43 38.36,-14.81 46.33,17.85 z m 2087.26,471.21 c 43.71,27.62 77.19,52.15 179.57,131.44 11.88,9.18 39.22,33.44 60.78,53.87 28.91,27.38 36.45,38.87 28.64,43.67 -56.76,35.08 -120.86,61.29 -183.32,74.89 -41.02,8.98 -78.17,19.88 -82.58,24.29 -4.38,4.42 -23.28,8.01 -42,8.01 -23.08,0 -36.32,4.18 -41.28,13.05 -4.14,7.38 -9.42,9.61 -12.15,5.15 -4.92,-7.93 -88.79,2.7 -141.37,17.89 -6.6,1.92 -33.59,5.47 -60,7.93 -26.41,2.46 -64.22,7.78 -83.98,11.8 -19.81,4.02 -56.1,9.18 -80.63,11.49 -24.53,2.26 -49.73,5.89 -56.01,8 -6.26,2.15 -25.79,5.98 -43.36,8.48 -17.62,2.5 -42.82,7.77 -56.02,11.76 -13.2,3.94 -76.21,11.09 -140,15.86 -245.35,18.32 -250.9,18.79 -363.98,31.64 -139.11,15.78 -168.52,18.24 -225.86,18.98 -41.02,0.51 -62,-2.81 -72,-11.4 -28.59,-24.5 -106.25,-63.52 -115.31,-57.93 -5.39,3.36 -7.19,2.3 -4.26,-2.47 2.82,-4.49 -20.93,-28.51 -52.73,-53.35 -63.52,-49.57 -107.07,-88.87 -111.21,-100.32 -1.45,-4.02 -8.05,-8.51 -14.61,-9.96 -6.56,-1.44 -17.85,-11.6 -25.08,-22.62 -7.19,-10.97 -27.93,-35.15 -46.01,-53.67 -18.13,-18.51 -32.93,-34.92 -32.93,-36.4 0,-2.78 34.49,0.58 183.98,18.04 135.31,15.75 505.59,10.63 588.75,-8.2 21.6,-4.88 62.66,-10.19 91.25,-11.84 48.59,-2.77 87.97,-9.14 176.02,-28.51 19.76,-4.38 71.99,-11.56 115.97,-16.02 149.46,-15.11 309.22,-43.82 380,-68.28 19.81,-6.87 69.65,-22.69 110.78,-35.23 41.14,-12.5 76.84,-24.81 79.34,-27.31 11.84,-11.83 45.78,-1.75 91.6,27.27 z M 597.699,761.422 c -5.359,3.398 -18.48,6.207 -29.219,6.289 -27.07,0.16 -68.089,30.117 -90.039,65.738 -13.992,22.742 -25.16,31.063 -46.453,34.571 -73.437,12.152 -103.789,23.128 -149.957,54.179 -69.652,46.879 -86.48,81.761 -84.73,175.981 l 1.25,70.35 -33.281,20.9 C 112.66,1222.44 65.5508,1263.41 48.7891,1290.68 23.6719,1331.62 0,1408.53 0,1449.23 c 0,72.85 45.3906,160.43 97.0313,187.11 24.8787,12.89 49.0977,6.25 57.5387,-15.7 5.551,-14.42 -14.371,-32.15 -29.531,-26.33 -17.848,6.84 -51.8398,-35.55 -65.5507,-81.76 -17.5391,-59.06 -10.9375,-122.42 18.9101,-181.6 39.3716,-77.97 92.8126,-118.87 152.3396,-116.52 45.16,1.72 57.274,-4.73 57.274,-30.63 0,-15.78 -4.922,-24.45 -15.821,-27.93 -21.25,-6.75 -34.851,-59.61 -28.05,-108.94 6.089,-44.57 37.621,-89.532 77.738,-110.942 35.973,-19.179 109.961,-27.539 136.601,-15.429 27.5,12.543 42.5,0.632 49.372,-39.219 9.027,-52.031 53.867,-86.25 115.589,-88.16 22.258,-0.668 96.559,29.371 96.559,39.058 0,9.571 27.77,16.684 42.66,10.981 11.641,-4.457 11.75,-7.27 1.051,-27.93 -10.313,-20 -43.711,-47.391 -43.711,-35.898 0,2.3 -13.91,-3.09 -30.859,-11.922 -30.082,-15.66 -71.95,-18.43 -91.442,-6.047 z M 3297.3,922.238 c -19.37,23.364 0.9,57.891 84.26,143.522 50.08,51.4 88.21,78.04 111.68,78.04 5.9,0 10.74,3.67 10.74,8.13 0,22.61 160.2,73.2 243.83,76.99 113.71,5.16 193.91,14.65 234.18,27.7 22.7,7.38 73.13,50.93 100.9,87.18 30.94,40.43 108.71,71.99 177.27,71.99 28.51,0 51.79,2.74 51.75,6.02 -0.03,3.32 -12.53,21.68 -27.81,40.86 -15.23,19.22 -29.92,48.01 -32.62,64.02 -8.98,53.56 -11.28,57.82 -26.71,49.53 -19.46,-10.43 -47.23,-1.83 -53.01,16.37 -5.86,18.44 1.17,31.21 17.11,31.21 17.58,0 60.35,23.48 82.22,45.12 19.89,19.69 44.53,23.95 64.69,11.21 10.04,-6.37 9.22,-10.23 -5.47,-25.9 -33.63,-35.9 -36.95,-60.47 -17.46,-129.53 15.51,-54.84 82.27,-122.62 127.97,-129.96 17.97,-2.85 42.23,-12.89 53.91,-22.27 53.08,-42.57 52.81,-42.42 42.57,-23.2 -5.11,9.61 -9.29,37.54 -9.29,62.03 0,24.49 -3.6,44.49 -8.01,44.49 -4.41,0 -8.01,9.03 -8.01,20 0,11.02 3.09,20 6.84,20 3.75,0 9.14,30.47 12.03,67.7 4.73,61.88 9.37,81.45 30.27,128.32 3.91,8.79 15.16,41.37 25,72.38 21.33,67.31 103.48,201.68 139.69,228.48 22.85,16.91 40.59,44.22 32.93,50.62 -1.52,1.25 -17.89,4.61 -36.41,7.47 -38.75,5.89 -36.48,7.77 -86.99,-72.47 -27.93,-44.37 -42.38,-59.57 -63.2,-66.44 -31.84,-10.51 -56.6,0.7 -63.63,28.83 -6.37,25.23 4.02,90.94 14.57,92.19 4.92,0.58 -9.11,3.67 -31.1,6.79 -56.76,8.09 -54.06,10.08 -87.07,-63.87 -17.73,-39.72 -46.56,-50.78 -61.17,-23.47 -7.03,13.12 -5.39,23.12 8.09,48.94 9.29,17.86 15.66,33.71 14.18,35.2 -5.2,5.19 -66.18,4.96 -94.03,-0.35 -91.09,-17.39 -107.89,-26.06 -172.61,-89.26 -50.12,-48.91 -83.36,-103.95 -83.36,-137.89 0,-13.09 -3.64,-25.04 -8.09,-26.52 -4.45,-1.45 -9.53,-10.08 -11.25,-19.15 -9.73,-50.35 -50.94,-148.67 -77.42,-184.49 -25.9,-35.08 -38.05,-43.9 -80.86,-58.86 -61.17,-21.41 -216.49,-30.36 -290.39,-16.72 -26.41,4.88 -86.02,13.71 -132.46,19.61 -92.31,11.75 -122,22.73 -117.82,43.51 3.17,15.74 2.47,15.74 154.26,-2.97 114.53,-14.1 297.66,-21.95 311.56,-13.36 4.26,2.62 18.33,5.94 31.25,7.35 37.9,4.14 73.52,31.56 94.07,72.42 10.51,20.9 21.01,39.84 23.32,42.03 2.26,2.19 14.53,47.19 27.22,100 12.7,52.81 27.89,101.68 33.83,108.63 5.9,6.96 10.74,16.84 10.74,22 0,5.15 6.33,15.97 14.03,24.06 7.69,8.08 17.85,21.37 22.54,29.49 4.68,8.13 14.92,18.59 22.73,23.28 7.81,4.69 27.11,20.16 42.85,34.38 26.37,23.79 27.66,26.95 16.21,40 -15.23,17.34 -19.96,33.51 -26.44,90.15 -2.85,25.04 -16.84,68.17 -32.46,100.08 -15.08,30.86 -27.42,60.55 -27.42,66.02 0,5.43 -2.74,9.92 -6.02,9.96 -3.28,0.04 -14.8,13.55 -25.55,30 -46.99,71.91 -78.63,107.97 -120.43,137.3 -37.89,26.56 -53.28,32.19 -100.7,36.88 -62.27,6.13 -201.09,-16.8 -262.07,-43.32 -47.89,-20.78 -83.24,-30.78 -133.24,-37.7 -59.03,-8.16 -63.44,-8.2 -97.58,-1.29 -34.3,6.92 -92.23,61.14 -115.43,108.01 -21.72,43.83 -21.25,160.82 0.86,210.08 8.87,19.8 18.32,37.81 20.98,40 2.65,2.19 9.33,17.81 14.84,34.72 7.58,23.17 18.98,35.9 46.6,52 20.08,11.68 49.42,32.34 65.12,45.9 41.13,35.43 100.94,74.88 117.97,77.77 8.04,1.37 26.17,8.59 40.23,16.05 14.1,7.46 34.38,13.56 45.12,13.56 14.18,0 20.94,5.51 24.57,20 2.77,10.97 10.47,20 17.15,20 6.64,0 29.26,8.71 50.23,19.33 93.83,47.54 305,43.72 457.35,-8.28 6.6,-2.26 13.78,-4.45 15.97,-4.84 18.52,-3.59 67.62,-31.8 100.55,-57.85 42.34,-33.4 99.45,-106.88 99.45,-127.89 0,-6.88 2.78,-12.46 6.17,-12.46 11.33,0 34.07,-51.37 53.25,-120.12 10.39,-37.34 23.2,-78.71 28.39,-91.92 23.99,-60.7 32.39,-162.46 27.27,-330.15 -6.33,-207.38 -4.69,-241.99 11.48,-241.72 10.24,0.16 65.43,86.48 65.43,102.34 0,40.86 75,84.93 162.15,95.28 41.64,4.96 69.89,-10.63 69.89,-38.6 0,-13.59 -39.97,-30.97 -71.45,-31.09 -26.25,-0.08 -63.48,-20 -75.51,-40.39 -7.11,-12.03 -21.05,-23.99 -30.97,-26.56 -19.73,-5.12 -58.25,-55.86 -51.14,-67.35 4.93,-8.01 84.93,0.9 103.67,11.49 6.57,3.71 26.53,20.27 44.34,36.75 17.77,16.53 37.46,30 43.71,30 17.58,0 31.99,-22.26 31.99,-49.45 v -24.61 l 68.68,4.03 c 59.96,3.47 73.98,7.3 110.62,30.19 36.8,22.97 48.36,26.13 93.52,25.35 69.88,-1.21 112.03,-21.05 113.82,-53.55 0.75,-13.17 5.55,-40.12 10.71,-59.92 15.47,-59.38 6.29,-153.6 -24.18,-248.01 -14.92,-46.21 -31.06,-88.05 -35.86,-92.93 -4.77,-4.92 -13.4,-24.73 -19.18,-44.02 -13.09,-43.83 -20.27,-59.85 -42.85,-95.16 -68.48,-107.19 -103.71,-153.87 -157.78,-209.18 -48,-49.14 -70.89,-66.29 -104.02,-77.97 -42.93,-15.08 -88.52,-11.6 -94.8,7.27 -1.49,4.37 -9.14,7.96 -17.04,7.96 -7.89,0 -18.71,5.28 -24.02,11.68 -6.21,7.47 -17.62,10.08 -31.76,7.23 -13.32,-2.66 -36.09,1.8 -57.3,11.17 -59.45,26.29 -112.11,37.11 -183.17,37.54 -104.21,0.63 -130.31,-10.12 -209.06,-86.29 -62.5,-60.39 -71.48,-66.21 -119.29,-77.3 -28.44,-6.6 -85.9,-12.19 -127.7,-12.46 -129.8,-0.74 -218.28,-20.08 -298.75,-65.28 -25.74,-14.45 -49.61,-26.29 -53.05,-26.29 -9.61,0 -120.19,-106.868 -120.19,-116.169 0,-10.43 -47.07,-67.812 -55.63,-67.812 -3.51,0 -10.31,4.691 -15.08,10.429 z m 1415.12,420.552 c 77.31,49.96 196.21,204.84 234.14,305.04 26.41,69.64 78.01,178.79 87.54,185 4.18,2.73 8.09,56.01 8.6,118.39 1.09,130.47 0.58,131.53 -63.79,125.67 -43.44,-3.95 -74.77,-16.95 -105.67,-43.91 -10.27,-8.98 -22.46,-17.58 -26.99,-19.1 -4.57,-1.48 -9.14,-11.6 -10.23,-22.42 -2.62,-26.06 -2.07,-25.55 -17.66,-16.8 -14.3,8.01 -21.68,3.05 -78.52,-52.77 -29.76,-29.3 -73.71,-103.17 -118,-198.52 -22.04,-47.42 -31.1,-79.1 -34.34,-120 -2.42,-30.54 -7.27,-68.24 -10.7,-83.75 -8.71,-39.02 2.34,-122.03 20.35,-152.81 12.26,-21.05 47.15,-42.54 75.27,-46.41 2.46,-0.31 20.47,9.77 40,22.39 z m -544.41,724.06 c 0,1.64 -5.39,7.5 -11.99,12.97 -9.85,8.16 -12.04,7.62 -12.04,-3.01 0,-7.15 5.43,-13.01 12.04,-13.01 6.6,0 11.99,1.37 11.99,3.05 z m 108.01,20.43 c 26.36,1.01 48.59,2.5 49.37,3.24 2.7,2.7 11.49,306.17 10.59,365.27 -1.21,78.52 -11.68,152.11 -26.41,185.36 -6.52,14.64 -16.17,44.64 -21.48,66.68 -10.2,42.22 -36.37,114.45 -53.68,147.96 -5.66,11.02 -10.35,24.54 -10.35,30 -0.04,5.51 -3.47,10 -7.69,10 -4.18,0 -13.83,13.13 -21.45,29.15 -21.6,45.5 -97.38,99.25 -175.15,124.21 -111.1,35.63 -273.52,45.36 -361.96,21.64 -63.32,-16.99 -52.85,-23.86 58.21,-38.12 35.19,-4.53 94.57,-12.27 131.99,-17.19 81.87,-10.74 143.55,-39.49 201.05,-93.79 22.07,-20.82 45.67,-51.36 52.42,-67.89 6.72,-16.48 15.16,-30 18.75,-30 3.56,0 14.61,-13.47 24.57,-30 9.93,-16.48 27.62,-42.58 39.26,-58.01 42.19,-55.78 65.08,-152.3 92.31,-389.33 8.12,-70.59 11.01,-133.99 7.69,-168.01 -8.04,-82.03 -9.53,-85.16 -38.01,-79.45 -13.71,2.73 -29.1,0.94 -35.19,-4.14 -15.82,-13.13 -13.56,-24.96 3.12,-16.53 7.74,3.87 35.63,7.89 62.04,8.95 z m -135.2,46.37 c -2.66,2.65 -4.53,-2.07 -4.18,-10.51 0.39,-9.3 2.27,-11.21 4.84,-4.85 2.31,5.79 2,12.7 -0.66,15.36 z m 90.31,98.16 c 0.2,33.01 -3.28,86.99 -7.73,120 -4.45,33.01 -9.85,74.41 -11.99,91.99 -19.69,163.36 -28.48,191.06 -89.11,281.14 -64.25,95.43 -84.45,122.89 -90.54,122.89 -3.67,0 -9.03,7.3 -11.84,16.29 -8.71,27.42 -69.76,78.55 -110.08,92.18 -21.01,7.11 -67.81,15.94 -104.02,19.65 -307.46,31.56 -302.97,31.84 -396.52,-22.46 -161.6,-93.79 -234.26,-203.32 -216.02,-325.59 9.02,-60.66 12.77,-71.36 32.5,-93.55 34.61,-38.83 58.44,-48.83 104.22,-43.63 53.52,6.09 191.95,43.32 198.12,53.28 2.54,4.14 19.61,9.45 37.86,11.72 18.28,2.3 42.61,7.77 54.14,12.15 28.98,11.01 171.64,10 204.49,-1.45 42.97,-15 116.76,-69.53 145.23,-107.34 14.38,-19.14 30.67,-34.89 36.18,-35 5.46,-0.16 10,-5.12 10,-11.02 0,-5.94 14.64,-33.44 32.53,-61.17 17.93,-27.7 39.57,-68.75 48.09,-91.21 8.52,-22.5 19.06,-47.11 23.44,-54.77 4.33,-7.62 7.93,-22.73 7.93,-33.51 0,-10.82 3.59,-21.88 8.01,-24.57 13.47,-8.36 9.53,104.88 -4.85,138.24 -7.07,16.37 -18.01,49.53 -24.33,73.75 -6.37,24.18 -14.46,54.8 -18.01,68.01 -3.6,13.2 -21.41,55.43 -39.65,93.82 -18.24,38.4 -33.16,71.88 -33.16,74.34 0,2.46 -6.88,11.84 -15.24,20.86 -12.34,13.2 -18.36,14.69 -31.48,7.66 -24.03,-12.86 -24.46,-12.5 -46.8,37.3 -11.37,25.31 -22.27,41.48 -24.22,36.02 -8.94,-24.85 -34.06,-8.68 -58.87,37.89 -19.33,36.29 -34.14,52.73 -60.93,67.69 l -35.36,19.77 5.59,-17.7 c 3.09,-9.72 14.45,-29.33 25.31,-43.59 19.65,-25.78 19.77,-50.24 0.24,-49.88 -8.44,0.15 -46.37,44.14 -107.74,124.96 -5.19,6.83 -13.28,10.07 -17.93,7.22 -8.9,-5.54 15.86,-62.77 31.29,-72.3 13.87,-8.6 9.34,-36.1 -5.97,-36.1 -12.39,0 -24.73,12.5 -34.73,35.24 -1.76,3.98 -17.81,23.2 -35.7,42.69 -26.64,28.99 -36.84,34.97 -56.02,32.78 -26.91,-3.09 -29.69,-15.63 -8.94,-40.98 35.62,-43.51 69.06,-105.04 60.11,-110.55 -14.96,-9.25 -25.7,-1.01 -53.2,41.02 -14.34,21.91 -29.53,39.8 -33.75,39.8 -4.22,0 -7.7,5.43 -7.7,12.04 0,19.64 -30.54,13.63 -45.31,-8.95 -12.26,-18.71 -12.46,-23.12 -1.99,-41.99 6.44,-11.6 19.73,-24.65 29.53,-28.99 9.77,-4.33 17.77,-10.62 17.77,-13.98 0,-3.36 7,-6.09 15.55,-6.09 8.56,0 18.09,-4.14 21.21,-9.22 9.1,-14.73 -19.41,-29.73 -50.9,-26.8 -33.86,3.16 -85.19,52.58 -93.39,89.92 -12.5,56.99 56.6,141.14 122.96,149.69 84.38,10.9 168.52,0.16 260.59,-33.2 62.89,-22.82 161.09,-80.86 185.62,-109.77 44.77,-52.73 45.71,-54.06 115.2,-166.83 11.45,-18.6 32.62,-71.61 46.99,-117.82 14.42,-46.17 35.43,-109.18 46.72,-140 14.18,-38.67 21.45,-76.99 23.56,-123.98 1.64,-37.42 5.07,-73.4 7.61,-80 8.56,-22.35 25.04,50.31 25.43,111.99 z M 466.09,1149.94 c -14.25,6.99 -27.93,19.06 -30.43,26.87 -2.461,7.81 -9.211,12.38 -15.039,10.16 -5.781,-2.23 -12.531,2.46 -15.031,10.39 -20.039,64.14 -27.11,99.06 -20.86,102.89 3.981,2.5 7.301,12.38 7.301,22.03 0.039,9.65 8.129,30.62 18.008,46.64 15.313,24.8 20.621,28.09 35.981,22.23 20.742,-7.86 22.89,-20.67 6.441,-38.83 -13.281,-14.69 -17.5,-69.49 -9.102,-117.89 6.371,-36.41 27.891,-52.07 89.102,-64.77 36.988,-7.69 46.598,-25.58 14.219,-26.44 -12.461,-0.32 -29.879,-1.8 -38.668,-3.28 -8.793,-1.49 -27.66,3 -41.922,10 z m -165.66,396.01 c -46.45,26.29 -62.77,60.08 -66.879,138.17 -5.973,113.67 26.84,167.61 126.289,207.61 45.469,18.32 57.461,26.8 61.41,43.44 6.48,27.62 40.699,72.66 55.16,72.66 6.36,0 11.602,3.16 11.602,7.03 0,8.75 34.527,22.18 73.976,28.71 16.992,2.81 30,9.53 30,15.51 0,15.07 45.434,70.23 71.453,86.71 28.36,18.01 111.168,26.84 144.059,15.4 38.949,-13.6 135.43,-81.33 141.051,-99.11 2.777,-8.75 13.871,-28.9 24.609,-44.76 23.051,-33.95 22.82,-69.49 -0.461,-69.49 -10.16,0 -18.25,8.82 -24.179,26.44 -4.891,14.57 -11.532,23.87 -14.731,20.67 -3.168,-3.17 -5.777,-1.61 -5.777,3.51 0,5.12 -13.012,23.71 -28.953,41.33 -15.899,17.62 -25.86,32.03 -22.149,32.03 3.75,0 -5.738,8.52 -21.051,18.95 -27.461,18.63 -70.507,32.46 -97.847,31.36 -7.703,-0.27 -22.621,-0.93 -33.133,-1.4 -10.539,-0.51 -33.981,-12.62 -52.149,-26.92 -31.832,-25.11 -32.851,-27.26 -28.71,-62.97 2.351,-20.35 2,-42.85 -0.739,-50 -6.722,-17.46 -32.383,-16.44 -56.133,2.19 -22.968,18.09 -43.168,14.65 -84.957,-14.45 -30.351,-21.1 -33.832,-28.48 -31.019,-65.78 2.348,-30.9 -16.992,-46.17 -53.012,-41.96 -23.711,2.82 -38.238,-1.56 -67.851,-20.54 -54.45,-34.85 -64.649,-54.65 -68.789,-133.36 -3.2,-60.82 -1.719,-69.85 15.468,-94.96 10.473,-15.28 30.711,-34.07 45,-41.8 30.043,-16.17 31.992,-22.58 10.551,-34.06 -19.379,-10.35 -14.961,-11.21 -52.109,9.84 z m -51.989,527.85 c -26.64,28.44 -28.242,36.06 -16.371,78.67 12.578,45.32 53.95,87.04 95.352,96.22 19.488,4.29 43.598,16.68 53.598,27.5 18.429,19.88 27.769,22.5 70.968,19.84 28.793,-1.72 56.172,-25.82 49.422,-43.48 -3.871,-10.08 -9.07,-10.97 -26.211,-4.41 -25.359,9.61 -30.359,6.09 -30.82,-21.84 -0.43,-23.83 -19.18,-30.35 -48.68,-16.91 -33.508,15.27 -73.668,1.13 -97.07,-34.18 -23.59,-35.67 -26.09,-70.78 -7.149,-99.73 16.141,-24.61 15.79,-27.65 -3.082,-27.65 -8.558,0 -26.558,11.68 -39.957,25.97 z"
         style="fill:#ff4800;fill-opacity:1;fill-rule:nonzero;stroke:none"
         id="path14"
         inkscape:connector-curvature="0" /></g></g></svg>