<?xml version="1.0" encoding="UTF-8"?>
<svg preserveAspectRatio="none" width="552" height="398" version="1.1" xmlns="http://www.w3.org/2000/svg"><defs><filter id="a" x="-.03" y="-.07" width="1.06" height="1.14" style="color-interpolation-filters:sRGB"><feFlood flood-color="rgb(255,72,0)" result="flood"/><feComposite in="flood" in2="SourceGraphic" operator="in" result="composite1"/><feGaussianBlur in="composite1" result="blur" stdDeviation="15"/><feOffset dx="0" dy="0" result="offset"/><feComposite in="SourceGraphic" in2="offset" result="fbSourceGraphic"/><feColorMatrix in="fbSourceGraphic" result="fbSourceGraphicAlpha" values="0 0 0 -1 0 0 0 0 -1 0 0 0 0 -1 0 0 0 0 1 0"/><feFlood flood-color="rgb(255,72,0)" in="fbSourceGraphic" result="flood"/><feComposite in="flood" in2="fbSourceGraphic" operator="in" result="composite1"/><feGaussianBlur in="composite1" result="blur" stdDeviation="15"/><feOffset dx="0" dy="0" preserveAlpha="true" result="offset"/><feComposite in="fbSourceGraphic" in2="offset" result="composite2"/></filter></defs><path transform="matrix(.357 0 0 .512 -1.45 .206)" d="m1344 130c163-9.7 167 156 110 197 85.3 61.3 59.2 192-22.7 212 72.1 46.1-15.2 138-102 115 1.48 52.8-141 90.5-203 25.4-30.2 68.6-245 63.9-272-9.84-50 75.7-261 77.1-318 0.56-35.9 69.5-221 80.4-281-2.19-135 48.4-215-68.4-143-114-68.4-38.2-89.1-134-30.7-181-40.5-6.3-55.4-124 16.8-147-55.8-26.1 0.601-117 81.7-108 7.94-60.8 177-90.7 239-33.8 75.9-47.6 205-54 297 1.9 49.6-56.6 276-54 317 12.8 83.5-66.3 271-41.4 311 30.2z" style="fill:#fff;filter:url(#a)"/></svg>
