<?xml version="1.0" encoding="UTF-8"?>
<svg width="371" height="195" version="1.1" xmlns="http://www.w3.org/2000/svg"><defs><filter id="a" x="-.03" y="-.07" width="1.06" height="1.14" style="color-interpolation-filters:sRGB"><feFlood flood-color="rgb(136,138,133)" result="flood"/><feComposite in="flood" in2="SourceGraphic" operator="in" result="composite1"/><feGaussianBlur in="composite1" result="blur" stdDeviation="15"/><feOffset dx="0" dy="0" result="offset"/><feComposite in="SourceGraphic" in2="offset" result="fbSourceGraphic"/><feColorMatrix in="fbSourceGraphic" result="fbSourceGraphicAlpha" values="0 0 0 -1 0 0 0 0 -1 0 0 0 0 -1 0 0 0 0 1 0"/><feFlood flood-color="rgb(136,138,133)" in="fbSourceGraphic" result="flood"/><feComposite in="flood" in2="fbSourceGraphic" operator="in" result="composite1"/><feGaussianBlur in="composite1" result="blur" stdDeviation="15"/><feOffset dx="0" dy="0" preserveAlpha="true" result="offset"/><feComposite in="fbSourceGraphic" in2="offset" result="composite2"/></filter></defs><path transform="matrix(.24 0 0 .251 -.774 -7.76e-8)" d="m1279 149c135-34.1 213 96.3 175 179 85.3 61.3 56.4 218-25.5 238 5.5 57.8-88.1 78-114 56.1-13.4 47.6-169 71.3-213 12.7-29.5 75.9-195 76.6-248 8.72-64.3 129-281 100-311-14.6-64.2 90.7-245 77.1-303-5.45-54.9 33.6-131-20.4-117-69.2-82.3-18.9-98-133-39.6-180-42.6-38.5-48.4-130 32.9-147-3.06-33.6 68.4-87.1 105-70.9 25.8-79.2 161-81.5 195-22.2 28.6-70.4 213-117 299-36.2 110-87.4 239-48.2 280 18.6 73-56 248-29.2 285 32.1z" style="fill:#ff4800;filter:url(#a)"/></svg>
