<?xml version="1.0" encoding="UTF-8"?>
<svg width="1e3" height="519" version="1.1" xmlns="http://www.w3.org/2000/svg"><defs><filter id="a" x="-.03" y="-.07" width="1.06" height="1.13" style="color-interpolation-filters:sRGB"><feFlood flood-color="rgb(255,72,0)" result="flood"/><feComposite in="flood" in2="SourceGraphic" operator="in" result="composite1"/><feGaussianBlur in="composite1" result="blur" stdDeviation="15"/><feOffset dx="0" dy="0" result="offset"/><feComposite in="SourceGraphic" in2="offset" result="fbSourceGraphic"/><feColorMatrix in="fbSourceGraphic" result="fbSourceGraphicAlpha" values="0 0 0 -1 0 0 0 0 -1 0 0 0 0 -1 0 0 0 0 1 0"/><feFlood flood-color="rgb(255,72,0)" in="fbSourceGraphic" result="flood"/><feComposite in="flood" in2="fbSourceGraphic" operator="in" result="composite1"/><feGaussianBlur in="composite1" result="blur" stdDeviation="15"/><feOffset dx="0" dy="0" preserveAlpha="true" result="offset"/><feComposite in="fbSourceGraphic" in2="offset" result="composite2"/></filter></defs><path transform="matrix(.648 0 0 .674 -3.04 -.233)" d="m1279 149c135-34 213 96 175 179 85 61 56 218-25 238 5.5 58-88 78-114 56-13 48-169 71-213 13-30 76-195 77-248 8.7-64 129-281 100-311-15-64 91-245 77-303-5.5-55 34-131-20-117-69-82-19-98-133-40-180-43-39-48-130 33-147-3.1-34 68-87 105-71 26-79 161-81 195-22 29-70 213-117 299-36 110-87 239-48 280 19 73-56 248-29 285 32z" style="fill:#fff;filter:url(#a)"/></svg>
