<?xml version="1.0" encoding="UTF-8" standalone="no"?>
<!-- Created with Inkscape (http://www.inkscape.org/) -->

<svg
   xmlns:dc="http://purl.org/dc/elements/1.1/"
   xmlns:cc="http://creativecommons.org/ns#"
   xmlns:rdf="http://www.w3.org/1999/02/22-rdf-syntax-ns#"
   xmlns:svg="http://www.w3.org/2000/svg"
   xmlns="http://www.w3.org/2000/svg"
   xmlns:sodipodi="http://sodipodi.sourceforge.net/DTD/sodipodi-0.dtd"
   xmlns:inkscape="http://www.inkscape.org/namespaces/inkscape"
   id="svg2"
   version="1.1"
   inkscape:version="0.92.4 (5da689c313, 2019-01-14)"
   width="1275.1085"
   height="571.59497"
   sodipodi:docname="cloud.svg">
  <metadata
     id="metadata8">
    <rdf:RDF>
      <cc:Work
         rdf:about="">
        <dc:format>image/svg+xml</dc:format>
        <dc:type
           rdf:resource="http://purl.org/dc/dcmitype/StillImage" />
        <dc:title></dc:title>
      </cc:Work>
    </rdf:RDF>
  </metadata>
  <defs
     id="defs6" />
  <sodipodi:namedview
     pagecolor="#ffffff"
     bordercolor="#666666"
     borderopacity="1"
     objecttolerance="10"
     gridtolerance="10"
     guidetolerance="10"
     inkscape:pageopacity="0"
     inkscape:pageshadow="2"
     inkscape:window-width="1920"
     inkscape:window-height="1001"
     id="namedview4"
     showgrid="false"
     inkscape:zoom="0.70710678"
     inkscape:cx="671.72436"
     inkscape:cy="362.69012"
     inkscape:window-x="-9"
     inkscape:window-y="-9"
     inkscape:window-maximized="1"
     inkscape:current-layer="svg2"
     fit-margin-top="0"
     fit-margin-left="0"
     fit-margin-right="0"
     fit-margin-bottom="0" />
  <flowRoot
     xml:space="preserve"
     id="flowRoot3118"
     style="font-style:normal;font-weight:normal;line-height:0.01%;font-family:sans-serif;letter-spacing:0px;word-spacing:0px;fill:#000000;fill-opacity:1;stroke:none;stroke-width:1.10182917;stroke-miterlimit:4;stroke-dasharray:none"
     transform="matrix(1,0,0,0.82370463,-35.026319,113.39682)"><flowRegion
       id="flowRegion3120"
       style="font-family:sans-serif;stroke-width:1.10182917;stroke-miterlimit:4;stroke-dasharray:none"><rect
         id="rect3122"
         width="245.87177"
         height="140.23105"
         x="153.31927"
         y="125.0842"
         style="font-family:sans-serif;stroke-width:1.10182917;stroke-miterlimit:4;stroke-dasharray:none" /></flowRegion><flowPara
       id="flowPara3124"
       style="font-size:40px;line-height:1.25;font-family:sans-serif;stroke-width:1.10182917;stroke-miterlimit:4;stroke-dasharray:none"> </flowPara></flowRoot>  <flowRoot
     xml:space="preserve"
     id="flowRoot3134"
     style="font-style:normal;font-weight:normal;line-height:0.01%;font-family:sans-serif;letter-spacing:0px;word-spacing:0px;fill:#000000;fill-opacity:1;stroke:none;stroke-width:1.10182917;stroke-miterlimit:4;stroke-dasharray:none"
     transform="matrix(1,0,0,0.82370463,-35.026319,113.39682)"><flowRegion
       id="flowRegion3136"
       style="font-family:sans-serif;stroke-width:1.10182917;stroke-miterlimit:4;stroke-dasharray:none"><rect
         id="rect3138"
         width="131.81718"
         height="160.79826"
         x="41.134438"
         y="106.38673"
         style="font-family:sans-serif;stroke-width:1.10182917;stroke-miterlimit:4;stroke-dasharray:none" /></flowRegion><flowPara
       id="flowPara3140"
       style="font-size:40px;line-height:1.25;font-family:sans-serif;stroke-width:1.10182917;stroke-miterlimit:4;stroke-dasharray:none"> </flowPara></flowRoot>  <path
     style="fill:#ffffff;fill-opacity:1;stroke:#ff4800;stroke-width:3.83766437;stroke-linecap:round;stroke-linejoin:round;stroke-miterlimit:4;stroke-dasharray:none;stroke-dashoffset:0;stroke-opacity:1"
     d="m 1156.0072,54.836933 c 58.9098,-12.217579 102.2391,16.921779 78.4246,82.627457 42.8607,30.09948 46.0036,82.69592 -5.3182,121.3636 55.2248,44.94223 54.0538,109.59425 8.1428,150.94883 13.4462,72.40261 -32.7273,113.91249 -123.1895,98.47639 -59.9155,59.80073 -108.4753,48.02641 -175.41565,11.55522 -85.18595,32.62476 -142.6131,47.26292 -223.96099,1.47899 -51.25872,45.35189 -109.63368,57.62215 -184.11687,22.19675 0,0 -111.70754,53.26271 -188.7235,-7.10434 -56.76306,38.11 -122.7355,44.51289 -166.65515,13.91313 C 58.907574,592.69936 6.3500989,503.7001 37.585152,441.03497 -22.252881,417.95158 6.3987573,318.08823 28.784582,314.2147 0.79873601,247.09185 -6.0638775,199.80036 59.824655,176.2422 11.49208,106.11609 62.51066,41.825588 141.88181,45.14314 203.85182,-16.810132 302.19432,-5.0820015 345.05055,35.929842 409.74146,-4.2020785 466.81629,9.8701715 534.02687,55.532923 610.20914,8.6307095 667.85307,-16.371698 737.17929,32.971523 823.96366,-20.232741 876.34611,1.9789405 945.58109,47.024204 1020.4036,-1.2470635 1101.6961,-2.3930055 1156.0072,54.836933 Z"
     id="path4032"
     inkscape:connector-curvature="0"
     sodipodi:nodetypes="ccccccccccccccccccc" />
</svg>
