<?xml version="1.0" encoding="UTF-8" standalone="no"?>
<!-- Created with Inkscape (http://www.inkscape.org/) -->

<svg
   xmlns:osb="http://www.openswatchbook.org/uri/2009/osb"
   xmlns:dc="http://purl.org/dc/elements/1.1/"
   xmlns:cc="http://creativecommons.org/ns#"
   xmlns:rdf="http://www.w3.org/1999/02/22-rdf-syntax-ns#"
   xmlns:svg="http://www.w3.org/2000/svg"
   xmlns="http://www.w3.org/2000/svg"
   xmlns:sodipodi="http://sodipodi.sourceforge.net/DTD/sodipodi-0.dtd"
   xmlns:inkscape="http://www.inkscape.org/namespaces/inkscape"
   width="733.90033"
   height="907.90228"
   viewBox="0 0 688.03158 851.15837"
   id="svg2"
   version="1.1"
   inkscape:version="0.92.4 (5da689c313, 2019-01-14)"
   sodipodi:docname="ig.svg"
   inkscape:export-filename="E:\petra\Pictures\Vyfucek-FacebookII.png"
   inkscape:export-xdpi="85.082062"
   inkscape:export-ydpi="85.082062">
  <defs
     id="defs4">
    <linearGradient
       id="linearGradient4157"
       osb:paint="solid">
      <stop
         style="stop-color:#ffffff;stop-opacity:1;"
         offset="0"
         id="stop4159" />
    </linearGradient>
    <linearGradient
       id="linearGradient4151"
       osb:paint="solid">
      <stop
         style="stop-color:#000000;stop-opacity:1;"
         offset="0"
         id="stop4153" />
    </linearGradient>
    <linearGradient
       id="linearGradient4170"
       osb:paint="solid">
      <stop
         style="stop-color:#3b5998;stop-opacity:1;"
         offset="0"
         id="stop4172" />
    </linearGradient>
  </defs>
  <sodipodi:namedview
     id="base"
     pagecolor="#ffffff"
     bordercolor="#666666"
     borderopacity="1.0"
     inkscape:pageopacity="0.0"
     inkscape:pageshadow="2"
     inkscape:zoom="0.6335666"
     inkscape:cx="-52.055854"
     inkscape:cy="476.76557"
     inkscape:document-units="px"
     inkscape:current-layer="layer1"
     showgrid="false"
     inkscape:window-width="1920"
     inkscape:window-height="1001"
     inkscape:window-x="-9"
     inkscape:window-y="-9"
     inkscape:window-maximized="1"
     showguides="true"
     inkscape:guide-bbox="true"
     fit-margin-top="0"
     fit-margin-left="0"
     fit-margin-right="0"
     fit-margin-bottom="0"
     units="px" />
  <metadata
     id="metadata7">
    <rdf:RDF>
      <cc:Work
         rdf:about="">
        <dc:format>image/svg+xml</dc:format>
        <dc:type
           rdf:resource="http://purl.org/dc/dcmitype/StillImage" />
        <dc:title></dc:title>
      </cc:Work>
    </rdf:RDF>
  </metadata>
  <g
     inkscape:label="Vrstva 1"
     inkscape:groupmode="layer"
     id="layer1"
     transform="translate(2909.7438,1630.057)">
    <path
       style="fill:#ffffff;fill-opacity:1;stroke:none;stroke-width:4.6875;stroke-miterlimit:4;stroke-dasharray:none;stroke-opacity:1"
       d="m -2713.0477,-1138.5197 c -13.2381,0.011 -3.7667,12.0126 -39.3531,17.6368 -24.3471,3.3906 -61.0832,4.0084 -67.4835,-9.5911 2.3311,5.646 13.7259,15.2006 14.5826,25.1276 -1.1835,95.555 -5.5506,196.18079 11.2976,291.29163 5.8719,33.14829 11.2371,33.11126 59.9322,32.74842 116.4359,-0.86759 214.9467,4.34275 262.9707,-4.87427 22.5933,-0.0855 36.2506,-23.11606 38.6682,-41.96229 7.6709,-61.8069 -4.2927,-230.83479 0.3753,-286.45039 -18.5276,0.8657 -39.5401,2.5299 -72.8815,-16.1517 l -23.4997,-1.6901 c -48.0239,9.217 -43.4875,12.0659 -92.0637,14.123 -53.8305,2.2796 -67.9924,-18.9431 -91.192,-20.1709 -0.4765,-0.025 -0.9261,-0.037 -1.3531,-0.037 z m 190.111,30.8313 c 12.8113,0.2099 23.1692,8.656 31.9922,19.2719 9.1076,10.9583 16.2554,25.3616 16.7964,41.0614 l 6.156,178.68909 c 0.4231,12.28227 -2.6408,25.78754 -10.0159,37.19059 -7.3752,11.40303 -20.2325,20.64049 -36.5259,20.52063 l -192.8943,-1.41907 c -30.7748,-0.2264 -52.5613,-25.55962 -55.8088,-54.83275 -1.8638,-16.8019 -0.438,-27.134 0.7435,-41.1072 1.1814,-13.9732 2.2442,-32.5636 0.04,-68.5748 -0.014,-0.2309 -0.019,-0.4627 -0.017,-0.694 l 0.5109,-67.54049 c 0.1427,-18.8631 0.8846,-32.9174 9.7559,-43.7091 8.8713,-10.7916 23.1498,-13.6718 42.5866,-14.1632 l 185.4309,-4.6875 c 0.4184,-0.011 0.8355,-0.012 1.2488,-0.01 z m -50.8208,17.4756 c -45.1029,0.221 -88.9932,3.2813 -135.3516,4.4531 -17.6235,0.4455 -25.544,7.167 -28.5919,10.8747 -3.048,3.7076 -3.1136,7.6315 -5.9052,29.1742 -3.0668,23.6671 1.3241,45.76669 -1.2506,68.05859 -3.1281,27.0835 1.8638,57.7272 0.6445,72.1491 -1.2252,14.491 -1.116,32.4228 4.0393,46.45566 11.6029,31.58351 23.1047,25.39957 42.931,28.26966 59.4891,8.6118 99.3209,2.79739 165.4687,0.31128 9.104,-0.34216 33.9999,-2.52707 37.8845,-10.14222 6.4923,-12.72713 7.7921,-31.43418 7.9248,-39.57098 0.9306,-57.0775 3.7991,-92.3921 -5.7843,-170.18019 -1.8684,-15.1665 -3.9063,-15.4899 -9.19,-24.58 -6.951,-11.9583 -19.4822,-14.0071 -27.1765,-14.372 -15.4404,-0.7323 -30.6085,-0.9745 -45.6427,-0.9009 z m 48.2776,22.9065 c 3.3186,-0.153 5.5395,1.0289 7.2307,3.0652 2.1309,2.5655 5.4896,6.2345 4.997,10.8032 -0.3626,3.3641 -1.9855,6.6977 -4.1913,10.4663 -1.4008,2.3933 -3.3524,3.2538 -9.5287,3.2538 -4.2626,0 -8.071,0.016 -10.5872,-4.9951 -1.3796,-2.7475 -3.1312,-5.4105 -3.1312,-8.725 0,-2.8315 0.3978,-5.8559 2.3274,-7.6483 3.3789,-3.139 6.6975,-5.3706 11.391,-6.0718 0.5203,-0.078 1.0181,-0.1264 1.4923,-0.1483 z m -83.3167,19.7058 c 27.8192,0.456 54.7998,14.7412 67.4835,30.7727 16.9394,22.13949 25.3788,44.98159 21.1963,71.47909 -4.3796,27.7464 -13.1095,49.9954 -29.0021,65.8154 -15.8925,15.8201 -38.2541,24.19639 -66.7639,26.25002 -31.429,2.26392 -62.8422,-9.50672 -80.4419,-34.37622 -12.6233,-17.8376 -15.185,-42.305 -13.9563,-63.5925 3.0042,-52.04819 38.6129,-90.98579 92.8381,-96.03169 2.8809,-0.2622 5.7685,-0.3639 8.6463,-0.3168 z m 2.992,23.3057 c -4.4532,0.067 -9.4812,0.7873 -15.5475,2.1863 -43.1633,10.1436 -59.5577,23.50319 -62.0819,67.23649 -1.0563,18.3002 -4.131,31.9589 5.1543,47.7978 11.0152,18.7897 28.9714,32.6691 54.2561,30.8478 25.3743,-1.8278 33.0356,-3.7839 50.2898,-15.4358 13.6874,-9.2432 24.6824,-18.512 31.2415,-55.0525 4.4527,-24.8057 -3.8959,-40.4858 -16.2945,-54.60389 -22.5252,-15.1369 -31.1139,-23.2159 -47.0178,-22.9762 z"
       id="path4287"
       inkscape:connector-curvature="0"
       sodipodi:nodetypes="ccccsscccccssscssssssssccsssccsscssssssssssssscccscsccssccsssscssccsssscscc" />
    <path
       style="opacity:1;fill:#000000;fill-opacity:1;fill-rule:evenodd;stroke:none;stroke-width:4.99999952;stroke-linecap:round;stroke-linejoin:round;stroke-miterlimit:4;stroke-dasharray:none;stroke-dashoffset:0;stroke-opacity:1"
       d=""
       id="path4224"
       inkscape:connector-curvature="0"
       transform="matrix(0.93750006,0,0,0.93750006,35.224621,89.631609)" />
    <path
       style="opacity:1;fill:#000000;fill-opacity:1;fill-rule:evenodd;stroke:none;stroke-width:4.99999952;stroke-linecap:round;stroke-linejoin:round;stroke-miterlimit:4;stroke-dasharray:none;stroke-dashoffset:0;stroke-opacity:1"
       d=""
       id="path4236"
       inkscape:connector-curvature="0"
       transform="matrix(0.93750006,0,0,0.93750006,35.224621,89.631609)" />
    <path
       style="opacity:1;fill:#000000;fill-opacity:1;fill-rule:evenodd;stroke:none;stroke-width:4.99999952;stroke-linecap:round;stroke-linejoin:round;stroke-miterlimit:4;stroke-dasharray:none;stroke-dashoffset:0;stroke-opacity:1"
       d=""
       id="path4238"
       inkscape:connector-curvature="0"
       transform="matrix(0.93750006,0,0,0.93750006,35.224621,89.631609)" />
    <path
       style="opacity:1;fill:#000000;fill-opacity:1;fill-rule:evenodd;stroke:none;stroke-width:4.99999952;stroke-linecap:round;stroke-linejoin:round;stroke-miterlimit:4;stroke-dasharray:none;stroke-dashoffset:0;stroke-opacity:1"
       d=""
       id="path4256"
       inkscape:connector-curvature="0"
       transform="matrix(0.93750006,0,0,0.93750006,35.224621,89.631609)" />
    <path
       style="fill:#ffffff;fill-opacity:1;stroke:#ffffff;stroke-width:4.6875;stroke-miterlimit:4;stroke-dasharray:none;stroke-opacity:1"
       d="m -2440.2942,-1627.7056 c -29.9516,0.3272 -60.8345,11.1669 -91.1005,35.6085 -36.9878,30.5294 -16.1135,51.2914 -61.1225,52.1924 -11.9257,0.8962 -2.2668,9.3528 15.4634,6.3703 6.5477,-1.1015 -4.5908,25.3367 -36.504,22.3517 -18.7999,-1.7585 -27.8806,-4.4967 -38.0749,-13.7275 -10.1943,-9.2308 -15.3332,-20.0882 -9.1902,-20.7916 23.0325,-2.6372 25.7124,-10.2702 -3.2757,-7.8479 -10.6156,0.8871 -12.6526,-17.4271 -64.0191,-40.3711 -32.117,-9.6042 -78.7781,-14.3905 -107.3438,1.9812 -22.4152,16.8895 -40.9924,51.724 -41.0577,74.5789 -0.081,28.3244 -1.6679,58.1907 -1.4319,87.5043 -4.1158,43.7427 -20.6033,83.7299 -28.1067,126.6009 -1.1149,27.3253 -5.3438,32.9309 10.155,81.0901 9.3731,29.1246 56.255,48.9379 81.0315,59.6832 -12.5792,15.3876 -10.4299,22.1861 -6.5112,31.6773 1.1159,2.3712 3.1712,4.3011 5.9051,5.8685 3.6508,5.413 8.2978,12.1517 8.8825,18.9258 -1.1835,95.555 -5.5506,196.18068 11.2976,291.2915 5.8718,33.14831 11.2372,33.11126 59.9322,32.74843 116.4359,-0.86759 214.9467,4.34274 262.9707,-4.87427 22.5932,-0.0855 36.2506,-23.11605 38.6682,-41.96228 7.6576,-61.7002 -4.2494,-230.23478 0.3533,-286.14438 59.4629,-7.1423 10.0152,-114.2882 -42.345,-81.3446 -23.177,14.5826 -24.0566,-4.1402 -41.5685,-24.1773 -8.3024,-9.4995 3.2241,-22.0209 10.2337,-26.0376 34.1577,33.5958 -17.1387,-61.219 -3.9423,-10.1037 -8.6259,10.1817 -15.8337,21.4356 -16.6918,-13.8538 0,0 10.6194,-59.1978 26.2829,-86.9806 13.9702,-35.5953 23.0708,-89.713 -5.3576,-113.8074 -14.3738,-12.1825 -38.8454,-14.4461 -35.094,-33.6163 15.3486,-43.4606 61.6624,36.8845 67.6629,21.1157 1.758,-4.6198 -45.0439,-43.1891 -45.0439,-43.1891 13.724,-11.982 34.5483,-12.074 34.5483,-12.074 27.6447,-4.8265 69.5649,4.7533 73.0261,37.9523 16.5719,77.1256 -13.2563,212.6463 43.4547,265.3491 32.8014,20.7034 105.4439,23.6442 122.8656,-10.382 72.0543,-140.7288 -50.6404,-383.1809 -194.9524,-381.6047 z m 2.5268,4.4916 c 61.0244,1.8859 119.892,47.0537 146.2317,91.3843 19.6933,33.1445 40.1427,67.5503 49.1437,105.7397 7.9531,33.7441 15.6524,68.093 12.1527,102.7662 -4.6024,45.5987 -11.1974,86.6834 -61.1169,96.6156 -40.8637,8.1305 -83.8471,-6.9807 -96.1817,-47.2486 -18.1847,-60.6576 -7.5386,-125.09 -11.9457,-187.3901 0.5216,-36.047 -11.8734,-77.3025 -54.2341,-84.6973 -28.0708,-4.9002 -47.2155,11.8453 -77.7851,9.408 -51.5509,-4.11 -2.2715,-47.297 16.6865,-58.8208 24.5829,-14.9431 47.9114,-27.9349 77.0489,-27.757 z m -344.7747,24.7357 c 13.9762,-0.06 27.1542,2.1154 40.1494,6.1176 -14.8962,7.9043 -36.1578,52.0636 -13.081,142.912 15.347,60.4178 58.3827,117.2468 43.3374,182.4499 -15.0179,37.6128 -23.1131,66.2983 -55.5981,85.8326 -36.5498,21.9783 -84.8929,8.0285 -115.9223,-32.3676 -28.7084,-37.3745 -17.8025,-99.5377 -3.5065,-146.6071 19.5761,-47.5829 16.0149,-99.4296 14.7583,-149.6319 -3.3683,-40.859 27.3968,-85.5859 70.2521,-87.1985 6.741,-0.9897 13.2577,-1.4796 19.6107,-1.507 z m 44.8204,8.758 c 6.0909,0.1444 19.4594,5.3126 31.377,14.0918 17.5354,12.9176 38.3606,24.2098 23.2837,33.1951 -6.2987,3.7539 -16.8154,-1.5207 -27.0575,-9.2578 -0.3629,-0.2741 -0.7381,-0.54 -1.1242,-0.8001 -10.5125,-7.0819 -33.351,-9.1391 -38.368,-15.0257 -5.2233,-6.1291 6.515,-22.3308 11.889,-22.2033 z m 281.1897,12.5299 c -15.7335,-0.07 -31.4876,0.3226 -43.9417,6.438 -29.5651,14.5175 11.2995,1.973 23.595,2.0397 31.3116,0.17 45.4483,-0.8586 72.572,8.4595 -25.0458,9.0827 3.3849,1.6627 14.4708,8.952 -26.1231,4.2138 11.5134,10.3063 19.0632,13.4821 -17.3979,1.3996 -5.6635,1.799 11.4111,8.1867 -14.2523,-3.0994 -34.018,-0.043 -8.2141,5.3576 22.8335,7.0236 20.4986,13.5746 2.3547,7.7088 9.9312,4.6669 -5.1377,6.3417 9.2029,18.2061 0.3113,3.4932 63.6163,48.8655 24.9701,25.1514 -35.9678,-26.6447 -8.3374,6.5967 10.6402,13.2715 31.5426,41.3335 -18.4666,6.8394 -28.6065,-1.5088 -7.2174,20.9066 18.6593,34.8091 38.4466,50.9271 -1.3773,-9.5683 3.3551,-19.0339 7.5678,6.5717 13.2707,38.8062 -49.2039,-19.7009 -28.667,1.8054 -6.4987,-5.7454 -26.0788,-20.5399 -5.4309,4.4 -12.1139,-1.2782 6.2363,10.3141 16.4886,20.7697 22.0043,18.6458 5.1939,15.742 -8.1848,1.2085 -22.7034,-27.8665 -14.1181,-7.008 -5.3338,9.0362 11.2977,15.1219 -13.9152,-7.8089 -4.6985,10.9021 6.6383,7.7985 -11.8665,-6.0612 4.4329,12.1399 -31.1136,-16.5157 10.0018,24.1072 1.1738,21.861 7.2693,4.2555 33.9245,23.6581 31.289,14.1797 17.4307,15.2786 -33.3331,2.7644 -34.1711,-16.5637 -26.2792,-27.2817 -13.1567,34.6647 17.2668,38.3953 52.8724,6.4835 37.2591,-48.3914 33.6896,-77.1862 -3.7101,-47.3328 -15.6178,-93.6913 -36.2146,-136.344 -13.1813,-27.1408 -33.8136,-51.0231 -61.875,-63.6805 -20.3538,-8.8655 -43.5552,-13.986 -66.5662,-14.1247 -2.2372,-0.014 -4.4833,-0.032 -6.7309,-0.042 z m 91.311,60.6244 c -1.5596,-0.7329 -3.7134,-1.5348 -6.7181,-2.4665 2.4358,0.995 4.6715,1.8049 6.7181,2.4665 z m -380.603,-38.6115 v 0 c 0.406,-0.01 0.8225,-0.01 1.2506,0 15.5284,0.337 52.5032,8.5527 47.2466,26.0724 -9.3203,7.4971 -17.9171,4.0917 -48.1218,-9.8694 -14.808,-8.1514 -12.9619,-15.9948 -0.3754,-16.2067 z m 357.1326,7.1924 c 1.5232,0.012 5.844,1.1412 14.6667,4.4293 -4.1849,2.8106 -18.5598,-4.459 -14.6667,-4.4293 z m -284.8755,10.7794 c 0.2767,-0.01 0.5548,10e-4 0.8312,0.011 3.4628,0.1371 7.1766,2.1661 10.9918,6.5771 17.9228,20.7206 10.6584,28.7768 -11.8065,34.2939 -3.4876,3.5626 -27.8414,-15.2277 -25.0526,-19.7315 7.7981,-12.5932 16.4572,-20.9549 25.0361,-21.1468 v 0 z m -78.9661,2.4335 c 9.8071,-0.1227 29.2656,12.3646 33.9899,15.6463 8.9094,6.274 -1.6493,18.9523 -7.3627,31.6443 -9.8686,21.9228 3.9323,16.0589 9.5562,-5.9033 8.317,-32.4785 39.9677,-2.5654 17.071,12.323 -18.6018,12.0958 -32.9244,36.4269 -36.8903,61.994 -15.9329,-34.4869 -31.0801,-102.0361 -19.9054,-114.8163 0.936,-0.5959 2.1402,-0.8705 3.5413,-0.888 z m 196.5472,1.4593 c 1.0965,0.011 2.2424,0.1329 3.4351,0.3772 28.04,5.744 17.1783,10.0998 -0.1776,23.4119 -27.7225,21.2635 -25.5524,-24.0108 -3.2575,-23.7891 z m 190.1551,4.5117 c 0.05,-0.01 0.1208,-0.01 0.2105,0 0.957,0.1083 4.2189,1.3819 11.3544,4.7754 3.5427,4.9104 -13.1295,-4.4789 -11.5649,-4.7754 z m -13.0188,8.2105 c -0.5289,0.039 -0.5771,0.3182 0.4925,1.0254 7.0026,0.8984 1.0942,-1.1425 -0.4925,-1.0254 z m 29.9579,9.7302 c 0.5342,0.03 2.7911,1.2621 8.0181,4.7113 4.2805,5.9174 -9.6206,-4.8024 -8.0181,-4.7113 z m -6.438,2.5031 c 0.8621,0.1092 3.8238,2.5714 10.0396,9.6185 -5.673,-1.4546 -11.6854,-9.827 -10.0396,-9.6185 z m -255.3351,5.4217 c 16.8225,-0.1756 33.6537,2.546 49.7515,8.725 24.059,7.9609 57.3106,21.4534 65.1948,46.8384 16.346,52.6295 -32.1833,112.3028 -41.0248,169.6655 -15.1676,16.2289 -0.8228,78.9681 -30.2692,57.9401 -40.2002,-5.7291 -83.316,-4.7048 -121.0272,11.5411 -14.809,-0.8295 3.8708,-54.0387 -13.407,-71.3012 2.5688,-40.1841 -10.1916,-78.792 -25.8783,-115.3547 -5.2885,-30.8937 7.9018,-69.6957 36.0608,-85.6237 24.5488,-13.7972 52.5618,-22.1378 80.5994,-22.4305 z m 271.7486,2.3584 c 1.5495,-0.1493 5.1106,2.7686 11.3947,11.9092 -8.4778,3.5919 -14.8036,-11.5806 -11.3947,-11.9092 z m -8.1152,29.2786 c -3.7583,-0.023 21.5934,18.7367 31.0492,26.9641 7.6575,3.0248 -10.4566,-16.8263 -13.4161,-18.1805 -11.106,-6.3098 -16.2738,-8.7753 -17.6331,-8.7836 z m -296.6016,8.7836 c -16.1578,0.4863 -16.8528,48.5307 -3.5394,61.0565 20.4749,1.72 22.1803,-40.3819 15.6115,-54.4721 -4.6984,-4.7391 -8.7186,-6.6853 -12.0721,-6.5844 z m 75.4871,1.0418 c -12.6198,0.3305 -22.8611,44.0316 -9.6936,57.3432 21.1904,14.9271 22.662,-31.5287 21.3482,-43.3374 -3.7056,-10.1431 -7.7914,-14.1069 -11.6546,-14.0058 z m 228.4552,37.5165 c -0.9022,-0.028 -1.366,0.2637 -1.4813,0.7965 0.3774,0.1339 1.2251,0.75 2.8583,2.2211 2.4968,4.8583 -1.8291,0.1843 -2.8583,-1.6095 0.8104,4.9298 18.5259,21.2379 25.188,23.2983 6.1073,9.2585 -0.2417,-8.3878 8.6261,-4.5428 -6.0701,-6.8049 -11.0293,-3.8518 -23.1226,-16.6956 -4.6894,-2.3901 -7.6201,-3.419 -9.2102,-3.468 z m -1.4813,1.4081 c -0.038,-0.2295 -0.038,-0.434 0,-0.6116 -0.06,-0.021 -0.1384,-0.062 -0.174,-0.059 -0.1582,0.015 -0.037,0.3026 0.174,0.6702 z m 5.3778,4.7791 c 0.1015,-0.01 0.2129,-0.01 0.3332,0.011 0.8746,0.072 2.2305,0.5953 3.8214,1.9574 -5.0082,-0.086 -5.6761,-1.8714 -4.1546,-1.9629 v -0.01 z m 11.8561,29.8828 c 2.9644,-0.1783 13.766,6.5375 21.7401,14.1778 -7.4113,-19.1364 19.3238,16.1917 -9.419,1.5601 -12.1901,-11.2883 -14.6267,-15.5993 -12.3211,-15.7379 z m -5.9052,20.3357 c 0.078,-0.015 0.1718,-0.015 0.282,0 2.2658,0.3 11.1759,6.791 18.9331,13.861 -5.7772,-5.856 23.8936,-3.6647 15.3534,15.2948 -9.8906,1.3237 -16.3491,-10.6118 -23.8458,-15.9796 -9.3229,-9.2788 -11.8904,-12.9464 -10.7227,-13.1762 z m -0.8185,13.341 c 0.2003,-0.032 0.5418,0.3706 1.0749,1.5491 -0.6942,4.2371 -1.7903,-1.434 -1.0749,-1.5491 z m 2.8492,5.1233 c 0.3132,-0.03 0.7504,0.3767 1.3073,1.5601 -1.9888,4.2266 -2.426,-1.4527 -1.3073,-1.5601 z m 6.5972,5.0318 c 7.17,0.198 31.4968,9.0479 28.592,16.5838 l -0.2637,7.284 c -1.9422,-10.9595 -14.0744,-6.2611 -29.3408,-21.7804 -1.6569,-1.52 -0.9951,-2.1429 1.0125,-2.0874 z m -6.8042,5.8978 c 0.029,-0.01 0.067,0 0.1136,0.011 0.5808,0.1054 2.5518,1.301 5.5078,4.0429 -4.4096,-2.354 -6.0491,-3.9676 -5.6214,-4.0484 v -0.01 z m -10.4736,0.1648 c 0.2628,-0.024 1.2741,0.987 3.5248,3.8269 4.1499,9.5603 -4.4636,-3.7405 -3.5248,-3.8269 z m 7.3645,9.1406 c 0.191,0.01 0.4227,0.042 0.7031,0.099 2.9809,4.3508 -3.5691,-0.2548 -0.7031,-0.099 z m 21.6175,2.3785 v 0 c 0.4128,0.023 0.9081,0.1409 1.4868,0.3973 -3.257,2.72 -3.9378,-0.1832 -1.8714,-0.39 0.1192,-0.012 0.247,-0.014 0.3846,-0.01 z m -12.9291,0.965 c 4.5036,-0.1925 33.1852,6.9782 27.2003,13.2422 -10.9696,5.0112 -19.7842,-5.7292 -26.8414,-12.3267 -1.1982,-0.5932 -1.1929,-0.8799 -0.3589,-0.9155 z m -17.0197,11.6712 c 0.6691,-0.042 4.4412,2.8512 13.8208,11.4605 3.0194,7.9288 -15.5308,-11.353 -13.8208,-11.4605 z m 11.7023,6.2988 c 0.4719,-0.041 1.5713,0.5267 3.219,2.3327 -3.0509,-0.5109 -4.0056,-2.2651 -3.219,-2.3327 z m -208.017,47.1643 c 2.3984,-0.281 5.6099,6.0076 8.9466,25.1953 -15.9035,19.1425 -15.076,-24.4771 -8.9466,-25.1953 z m -170.2826,0.8533 c 0.1348,-0.01 0.2671,-0.01 0.3974,0.011 3.2631,0.3981 5.0787,8.7752 4.1565,30.6115 3.5084,53.3833 -19.5839,28.7996 -14.3024,75.2051 -9.3163,-12.2086 -30.4252,-26.2585 -21.7108,-44.0588 5.6335,-11.5071 22.9647,-61.188 31.4593,-61.767 v 0 z m 165.7507,32.5744 c 2.0425,-0.071 6.0235,2.6629 11.6675,8.0805 23.6752,22.7253 39.9345,41.3593 23.9319,72.8412 -34.5457,7.5099 -7.4359,-18.7492 -13.8006,-31.6132 -20.5935,-33.2394 -26.6359,-49.1404 -21.7988,-49.3085 z m -76.8439,10.1331 c 38.0283,0.6894 93.9241,9.6486 91.5601,51.3464 -2.2424,39.5556 -152.1529,70.815 -184.7882,6.5021 -19.0768,-37.5938 60.6127,-58.4398 93.2281,-57.8485 z m 160.4316,26.4606 c 4.165,0.051 8.7461,0.9368 13.7951,2.8125 25.5932,9.5076 64.3401,67.7979 -1.6589,64.8944 -25.5652,0.9735 -62.2994,7.9418 -47.0379,-34.2133 6.6202,-18.286 16.8532,-33.7159 34.9017,-33.4936 z m -305.6598,16.2982 c 9.4132,0.075 18.0028,2.599 23.9703,8.6023 27.4437,27.6082 0.01,43.2854 -30.9356,43.5498 -34.0239,0.2907 -67.7118,-10.5348 -43.4583,-32.9132 11.4776,-10.5902 32.453,-19.3812 50.4236,-19.2389 z m 48.4058,36.0333 c 0.2688,-0.055 0.851,0.1955 1.2084,0.2142 23.1997,1.2278 37.3615,22.4505 91.192,20.1709 48.5762,-2.0571 44.0398,-4.9059 92.0637,-14.1229 l 23.4997,1.6901 c 33.3415,18.6816 52.7847,17.0174 71.3123,16.1517 -4.668,55.6156 7.0721,223.30298 -0.5988,285.10988 -2.4175,18.84623 -14.5057,40.02741 -37.0989,40.11291 -48.024,9.21702 -146.5374,3.70586 -262.9707,4.87427 -48.5704,0.48739 -52.2425,2.56924 -58.46,-30.92469 -17.6294,-94.96919 -12.6423,-195.09017 -11.4588,-290.64517 -0.8357,-9.6836 -5.2482,-12.8702 -7.6282,-18.2611 0.1921,0.083 0.391,0.1628 0.5878,0.2436 9.3011,7.1006 41.3144,6.0553 58.8538,3.2006 35.5863,-5.6242 26.1149,-17.6257 39.353,-17.6367 0,-0.1067 0.055,-0.1591 0.1447,-0.1776 z m 190.0195,28.4711 c -25.9382,0.7693 -62.1553,1.406 -99.6552,2.4023 -29.5551,0.7852 -60.1479,2.0097 -87.1435,2.2119 -19.4369,0.4914 -35.4879,3.866 -44.3592,14.6576 -8.8713,10.7917 -9.1362,25.9875 -9.3585,44.8499 l -0.7873,66.89388 c 0,0.2313 0,0.4631 0.016,0.694 2.2043,36.0113 0.9563,54.5082 -0.2252,68.4814 -1.1815,13.9732 -2.2611,26.549 -0.1886,43.3264 3.5987,29.1327 26.7623,56.21936 57.0246,56.44231 l 192.6178,1.41907 c 16.2934,0.12004 30.4928,-11.78728 37.8681,-23.19028 7.375,-11.4031 10.511,-25.6474 10.1073,-37.9303 l -5.8776,-178.87388 c -0.516,-15.7007 -6.4461,-32.4131 -15.1337,-43.7073 -8.4515,-10.9874 -21.4471,-17.5098 -34.9054,-17.677 z m -0.2783,1.1938 v 0 c 12.8113,0.2099 25.0442,10.5309 33.8672,21.1468 9.1076,10.9583 14.3803,23.4866 14.9213,39.1864 l 6.156,178.68898 c 0.4231,12.2823 -2.6408,25.7875 -10.0159,37.1906 -7.3752,11.40301 -20.2325,22.51548 -36.5259,22.39561 l -192.8943,-1.41908 c -30.7748,-0.2264 -52.5612,-27.43463 -55.8087,-56.70773 -1.8638,-16.8019 -0.4381,-27.134 0.7434,-41.1072 1.1814,-13.9732 2.2445,-32.5636 0.04,-68.5748 -0.014,-0.2309 -0.02,-0.4628 -0.018,-0.694 l 0.511,-67.54028 c 0.1427,-18.8631 0.8845,-32.9174 9.7558,-43.7091 8.8713,-10.7916 23.1499,-13.6718 42.5867,-14.1632 l 185.4309,-4.6875 c 0.4184,-0.011 0.8354,-0.011 1.2488,-0.01 z m -50.8191,21.2293 c -45.1029,0.221 -88.9932,3.2813 -135.3516,4.4531 -17.6235,0.4455 -21.794,3.4169 -24.8419,7.1246 -3.048,3.7076 -3.1136,7.6315 -5.9052,29.1742 -3.0668,23.6671 1.3242,45.7666 -1.2506,68.05848 -3.128,27.0835 1.8639,57.7272 0.6445,72.1491 -1.2252,14.491 -2.991,30.5478 2.1644,44.5807 11.6028,31.5835 17.4796,23.5245 37.3059,26.3946 59.4891,8.6118 103.0709,8.4224 169.2188,5.93629 9.1039,-0.34219 30.2499,-11.90209 34.1344,-19.51719 6.4924,-12.7272 11.5422,-23.9342 11.6749,-32.071 0.9306,-57.0775 0.049,-92.392 -9.5344,-170.17998 -1.8683,-15.1665 -3.9063,-15.49 -9.19,-24.5801 -6.951,-11.9583 -15.7322,-10.257 -23.4265,-10.622 -15.4404,-0.7323 -30.6085,-0.9744 -45.6427,-0.9008 z m 0.1574,1.0785 c 15.0342,-0.074 30.2023,0.1685 45.6428,0.9008 7.6942,0.3649 15.69,-1.2045 22.641,10.7538 5.2836,9.0901 6.7027,8.3351 8.5712,23.5016 9.5833,77.78798 10.4648,113.10258 9.5342,170.18008 -0.1327,8.1368 -6.0156,18.8805 -12.5079,31.6076 -3.8846,7.6152 -23.2288,14.277 -32.3328,14.6192 -66.1477,2.4861 -109.8317,7.10264 -169.2187,-2.1863 -19.6869,-3.0793 -23.5397,5.705 -35.6544,-25.1111 -5.4696,-13.9133 -3.3894,-30.0897 -2.1642,-44.5807 1.2192,-14.4219 -3.7727,-45.0655 -0.6445,-72.149 2.5746,-22.29188 -1.8163,-44.39138 1.2505,-68.05848 2.7916,-21.5427 3.0146,-24.3881 6.0626,-28.0957 3.0479,-3.7077 5.8451,-6.4832 23.4686,-6.9287 46.3585,-1.1718 90.2488,-4.2321 135.3516,-4.4531 z m 48.166,16.8768 c -0.4742,0.022 -0.972,0.07 -1.4924,0.1483 -4.6935,0.7012 -8.5668,2.887 -11.9458,6.026 -1.9295,1.7924 -2.9754,4.9084 -2.9754,7.7399 -0.3135,3.4712 1.766,8.0512 3.316,10.7135 3.1646,5.113 7.6302,5.4836 11.7444,5.365 6.016,-0.1735 8.5657,-1.3475 10.1751,-3.5321 2.206,-3.7686 4.3377,-7.9335 4.7004,-11.2976 0.4926,-4.5688 -3.1425,-8.9775 -5.2735,-11.543 -1.6911,-2.0363 -4.9303,-3.773 -8.2488,-3.62 z m -0.046,1.2012 c 3.3186,-0.153 5.5396,1.0289 7.2308,3.0652 2.1309,2.5655 5.4896,6.2345 4.9969,10.8032 -0.3625,3.3641 -1.9854,6.6977 -4.1913,10.4663 -1.4008,2.3933 -3.3525,3.2538 -9.5287,3.2538 -4.2626,0 -8.071,0.016 -10.5872,-4.9951 -1.3796,-2.7475 -3.1311,-5.4105 -3.1311,-8.725 0,-2.8315 0.3976,-5.8559 2.3273,-7.6483 3.3788,-3.139 6.6975,-5.3706 11.391,-6.0718 0.5203,-0.078 1.0181,-0.1264 1.4923,-0.1483 z m -84.9866,18.4588 c -2.1611,0.024 -4.3242,0.1344 -6.4856,0.3223 -58.0338,5.0459 -91.1852,45.2908 -94.6381,97.33888 -1.4115,21.2762 1.7908,46.8993 14.4141,64.7369 17.5997,24.8695 50.0273,36.6731 81.4563,34.4092 28.5098,-2.0536 52.0818,-11.2155 67.9743,-27.0355 15.8926,-15.8201 24.6224,-38.2979 29.002,-66.0443 4.1825,-26.4975 -4.7147,-50.77702 -21.654,-72.91628 -12.6837,-16.0315 -40.0892,-30.3497 -67.9084,-30.8057 -0.7194,-0.012 -1.4403,-0.013 -2.1606,-0.01 z m -0.4907,1.2397 c 0.7204,-0.01 1.4412,0 2.1606,0.01 27.8192,0.456 54.7998,14.7412 67.4835,30.7727 16.9395,22.13926 25.3788,44.98138 21.1964,71.47888 -4.3797,27.7464 -13.1096,49.9953 -29.0022,65.8154 -15.8925,15.8201 -38.2541,24.1964 -66.7638,26.25 -31.4291,2.2639 -62.8423,-9.5067 -80.442,-34.3762 -12.6233,-17.8376 -15.1849,-42.305 -13.9562,-63.5925 3.0042,-52.04808 38.6129,-90.98568 92.8381,-96.03148 2.1606,-0.1967 4.3243,-0.3031 6.4856,-0.3241 z m 5.1526,23.3129 c -4.4532,0.067 -9.4812,0.7873 -15.5475,2.1863 -43.1634,10.1436 -59.5577,23.50306 -62.0819,67.23638 -1.0563,18.3002 -4.1309,31.9589 5.1543,47.7978 11.0153,18.7897 28.9713,32.6691 54.2561,30.8478 25.3743,-1.8278 33.0357,-3.7839 50.2899,-15.4358 13.6874,-9.2432 24.6823,-18.512 31.2415,-55.0525 4.4526,-24.8057 -3.896,-40.48582 -16.2946,-54.60388 -22.5253,-15.1368 -31.114,-23.2158 -47.0178,-22.9761 z m 0.064,1.3092 c 15.904,-0.2397 23.1852,7.3156 45.7105,22.4524 12.3986,14.11806 20.6173,29.14448 16.1645,53.95018 -6.559,36.5406 -16.9662,44.7619 -30.6536,54.0052 -17.2542,11.6519 -24.196,13.2821 -49.5703,15.1098 -25.2848,1.8213 -41.9335,-11.4703 -52.9486,-30.26 -9.2854,-15.8389 -6.5556,-28.5298 -5.2845,-46.8164 3.0326,-43.63152 18.2292,-56.03968 61.0346,-66.25488 6.0555,-1.4451 11.0943,-2.1192 15.5474,-2.1863 z"
       id="path4285"
       inkscape:connector-curvature="0"
       sodipodi:nodetypes="cccccscccccccccccccsccccccccccccccccsccscccccccccccsccscccccsccccccscccccccccccccccccccccccccccccccccccccccccccccccccccccccccccccccccccccccccccccccccccccccccccccccccccccccccccccccccccccccccccccccccccccccccccccccccccccccccccccccccccccccccccccccccccccccccscsscccccccsccccscccccsccccccccscccccscssccccccccccccssccccsccccccccccccsccccccccccccccscccccccccccccccccccccscscccccccssccccccccccscsccccccccsccccccccccsc" />
  </g>
  <g
     inkscape:groupmode="layer"
     id="layer2"
     inkscape:label="Vrstva 2"
     transform="translate(2909.7438,1630.057)" />
</svg>
