<?xml version="1.0" encoding="UTF-8" standalone="no"?>
<!-- Created with Inkscape (http://www.inkscape.org/) -->

<svg
   xmlns:dc="http://purl.org/dc/elements/1.1/"
   xmlns:cc="http://creativecommons.org/ns#"
   xmlns:rdf="http://www.w3.org/1999/02/22-rdf-syntax-ns#"
   xmlns:svg="http://www.w3.org/2000/svg"
   xmlns="http://www.w3.org/2000/svg"
   xmlns:sodipodi="http://sodipodi.sourceforge.net/DTD/sodipodi-0.dtd"
   xmlns:inkscape="http://www.inkscape.org/namespaces/inkscape"
   id="svg2"
   version="1.1"
   inkscape:version="0.92.4 (5da689c313, 2019-01-14)"
   width="460"
   height="260"
   sodipodi:docname="logo-o.svg">
  <metadata
     id="metadata8">
    <rdf:RDF>
      <cc:Work
         rdf:about="">
        <dc:format>image/svg+xml</dc:format>
        <dc:type
           rdf:resource="http://purl.org/dc/dcmitype/StillImage" />
        <dc:title></dc:title>
      </cc:Work>
    </rdf:RDF>
  </metadata>
  <defs
     id="defs6" />
  <sodipodi:namedview
     pagecolor="#ffffff"
     bordercolor="#666666"
     borderopacity="1"
     objecttolerance="10"
     gridtolerance="10"
     guidetolerance="10"
     inkscape:pageopacity="0"
     inkscape:pageshadow="2"
     inkscape:window-width="1920"
     inkscape:window-height="1001"
     id="namedview4"
     showgrid="false"
     inkscape:zoom="1"
     inkscape:cx="254.75289"
     inkscape:cy="262.30281"
     inkscape:window-x="-9"
     inkscape:window-y="-9"
     inkscape:window-maximized="1"
     inkscape:current-layer="svg2" />
  <flowRoot
     xml:space="preserve"
     id="flowRoot3118"
     style="font-style:normal;font-weight:normal;line-height:0.01%;font-family:sans-serif;letter-spacing:0px;word-spacing:0px;fill:#000000;fill-opacity:1;stroke:none"
     transform="translate(0,-340)"><flowRegion
       id="flowRegion3120"
       style="font-family:sans-serif"><rect
         id="rect3122"
         width="245.87177"
         height="140.23105"
         x="153.31927"
         y="125.0842"
         style="font-family:sans-serif" /></flowRegion><flowPara
       id="flowPara3124"
       style="font-size:40px;line-height:1.25;font-family:sans-serif"> </flowPara></flowRoot>  <flowRoot
     xml:space="preserve"
     id="flowRoot3134"
     style="font-style:normal;font-weight:normal;line-height:0.01%;font-family:sans-serif;letter-spacing:0px;word-spacing:0px;fill:#000000;fill-opacity:1;stroke:none"
     transform="translate(0,-340)"><flowRegion
       id="flowRegion3136"
       style="font-family:sans-serif"><rect
         id="rect3138"
         width="131.81718"
         height="160.79826"
         x="41.134438"
         y="106.38673"
         style="font-family:sans-serif" /></flowRegion><flowPara
       id="flowPara3140"
       style="font-size:40px;line-height:1.25;font-family:sans-serif"> </flowPara></flowRoot>  <path
     style="fill:#ff4800;fill-opacity:1;stroke-width:5;stroke-linecap:round;stroke-linejoin:round;stroke-miterlimit:4;stroke-dasharray:none;stroke-dashoffset:0"
     d="m 118.62873,253.02542 c -10.36327,-4.3549 -20.725922,-12.45769 -23.951516,-18.72823 -0.990228,-1.925 -2.319399,-6.8561 -2.953713,-10.95801 -0.634314,-4.1019 -1.247194,-7.53852 -1.361956,-7.63692 -0.114762,-0.0984 -5.594352,-0.69805 -12.176867,-1.33254 C 58.774012,212.49871 50.633374,209.68151 41.869893,201.80239 34.156941,194.86778 31.689809,188.24378 30.377842,170.9474 l -1.073323,-14.15021 -7.720851,-7.56653 C 8.6682821,136.57342 3.8827137,124.1798 4.8996241,106.02249 5.5103821,95.117179 7.965352,87.886449 13.98929,79.250309 c 2.289979,-3.283 8.731148,-12.62252 14.31371,-20.7545 13.288959,-19.35768 18.143458,-23.72309 29.849887,-26.84252 11.237374,-2.99444 26.166965,-1.05532 44.881543,5.82941 l 10.88155,4.00311 7.11845,-7.04872 c 4.62467,-4.57935 9.22042,-8.02808 13.11846,-9.8443 5.67025,-2.64196 6.76941,-2.7956 20,-2.7956 13.30448,0 14.25622,0.13513 19.15749,2.71997 2.83661,1.49598 7.74413,4.98348 10.90559,7.75 3.16145,2.76652 6.24058,5.02355 6.84251,5.01563 0.60193,-0.008 4.92825,-3.27042 9.61405,-7.25 25.51391,-21.66855 43.99628,-26.86818 67.84347,-19.08634 10.87275,3.54801 16.32729,6.98284 29.12631,18.34136 6.20333,5.50516 11.83066,10.00938 12.50516,10.00938 0.6745,0 4.46499,-2.63963 8.4233,-5.86584 8.43724,-6.87676 15.49888,-10.54875 24.25717,-12.6135 17.22339,-4.06038 33.66701,-0.0262 47.27329,11.59791 6.84299,5.84606 9.07338,6.87929 14.86676,6.88701 6.86486,0.009 11.67147,1.90172 16.64495,6.55382 2.58274,2.415849 5.98131,6.75421 7.55239,9.6408 2.50287,4.5986 2.91025,6.55273 3.29062,15.78472 0.4147,10.06516 0.27308,10.99985 -3.16677,20.89985 -1.9805,5.699921 -3.36858,10.739381 -3.08463,11.198821 0.28394,0.45943 3.2784,2.30754 6.65433,4.10689 8.25106,4.39777 15.20614,11.62236 17.76003,18.44826 3.00772,8.03885 2.81789,22.58524 -0.40926,31.36126 -1.31462,3.575 -4.27319,12.35 -6.5746,19.5 -7.03305,21.85015 -6.97348,21.71929 -12.22439,26.85248 -13.20654,12.91043 -30.65269,14.58944 -58.26213,5.60712 -6.69396,-2.17778 -12.70837,-3.9596 -13.36535,-3.9596 -0.65699,0 -4.74444,2.4875 -9.08324,5.52777 -10.10591,7.0814 -22.83163,13.03371 -31.97942,14.958 -9.36312,1.9696 -36.52263,2.0484 -43.56763,0.12641 -2.75,-0.75024 -8.49921,-2.7699 -12.77603,-4.48813 -4.27682,-1.71823 -7.9151,-3.12405 -8.08506,-3.12405 -0.16997,0 -4.77076,3.37152 -10.22397,7.49226 -17.1876,12.98788 -31.73173,18.51521 -48.90514,18.58584 -6.41893,0.0264 -10.94753,-0.56516 -15.74828,-2.05714 l -6.73848,-2.0942 -6.61097,5.06703 c -11.63401,8.91698 -13.08083,9.41374 -28.41207,9.75518 -12.26041,0.27304 -14.00724,0.0875 -19.02416,-2.02074 l 0,0 z m 31.06431,-17.74972 c 2.0254,-1.08396 4.80859,-9.27565 9.45097,-27.81684 1.42369,-5.68608 6.35192,-23.46108 10.95162,-39.5 12.3017,-42.89541 12.49313,-44.57499 5.49291,-48.19495 -6.83177,-3.53284 -9.61737,-0.0945 -15.50042,19.13231 -1.49795,4.89553 -3.02382,9.24362 -3.39083,9.66242 -0.6154,0.70223 -7.82371,-6.41506 -22.31939,-22.03754 -5.18,-5.58266 -6.17718,-6.22391 -9.67857,-6.22391 -4.31078,0 -7.04644,2.01161 -7.04644,5.18145 0,4.0722 6.59612,14.2425 18.24477,28.13087 6.54483,7.80322 12.36271,15.14157 12.92863,16.30744 0.80447,1.6573 -0.20796,6.78415 -4.64069,23.5 -3.1183,11.75913 -6.17869,24.85559 -6.80085,29.10324 -1.09427,7.47077 -1.05531,7.8038 1.19274,10.19674 3.05079,3.24742 7.79024,4.33843 11.11555,2.55877 l 0,0 z m 81.70985,-56.66599 c 1.6098,-2.18261 1.73177,-0.91132 -1.82734,-19.04618 -3.59731,-18.32949 -4.50785,-16.28308 9.69346,-21.78564 5.17226,-2.00409 10.07457,-4.31424 10.894,-5.13368 3.73422,-3.73422 -0.5432,-11.34702 -6.37557,-11.34702 -1.626,0 -5.80895,0.89419 -9.29546,1.9871 -3.4865,1.0929 -7.13773,1.9929 -8.11384,2 -3.236,0.0235 -3.96283,-4.58419 -3.38944,-21.4871 0.58073,-17.119141 2.10862,-25.496711 6.07904,-33.331971 4.61516,-9.10758 7.46956,-9.06861 9.63148,0.1315 2.7979,11.90657 7.72882,15.15019 14.85719,9.77325 5.14553,-3.88128 3.5738,-16.89449 -3.05073,-25.25865 -3.53272,-4.46042 -11.53927,-8.78855 -16.28707,-8.80436 -7.8721,-0.0262 -17.0388,8.12255 -23.04988,20.49023 -4.64386,9.55468 -5.4995,16.24242 -5.50829,43.053291 l -0.008,23.05329 -7.75,3.18566 c -9.81076,4.03274 -14.25,6.75501 -14.25,8.73852 0,0.85808 1.16795,2.7281 2.59544,4.15559 2.53443,2.53443 2.81441,2.58004 11.91194,1.94055 l 9.31652,-0.65489 1.52843,4.264 c 0.84063,2.34519 2.89984,8.8169 4.57601,14.38156 1.67618,5.56466 3.61551,10.58404 4.30963,11.15418 3.09343,2.5409 11.20805,1.66456 13.51203,-1.45923 l 4.5e-4,0 z m 116.11643,-1.17895 c 1.02653,-1.02653 2.18382,-4.06403 2.57176,-6.75 1.02915,-7.12559 1.66923,-9.38357 2.65999,-9.38357 0.48475,0 4.14847,2.09589 8.14159,4.65754 10.00181,6.41631 14.48917,8.29487 19.87537,8.3205 5.77497,0.0275 9.88486,-2.83956 9.88486,-6.89563 0,-3.42632 -1.41626,-4.65871 -11.5,-10.00695 -9.95281,-5.27879 -14.7843,-8.8922 -14.13884,-10.57426 0.27307,-0.71159 4.28922,-6.40296 8.92479,-12.6475 12.6676,-17.06441 13.98382,-20.67484 9.2595,-25.39915 -2.80778,-2.80779 -7.03491,-3.20087 -10.24469,-0.95266 -1.17934,0.82604 -6.06977,6.43724 -10.86763,12.46932 -4.79786,6.03209 -9.04115,10.77104 -9.42954,10.53101 -0.38838,-0.24003 -1.01592,-5.73873 -1.39453,-12.21932 -0.94255,-16.1335 -3.4648,-38.215961 -4.73407,-41.447111 -1.20494,-3.06738 -5.40225,-5.13619 -9.45971,-4.66258 -2.22021,0.25915 -2.97623,1.01265 -3.65256,3.6404 -0.46908,1.82248 -0.72008,24.911011 -0.55779,51.307831 l 0.29507,47.99423 2.5,1.91993 c 3.26781,2.50958 9.40415,2.56025 11.86643,0.098 l 0,-3e-5 z m -48.44588,-8.75052 6.55915,-5.4103 4.16019,3.01363 c 4.61629,3.34402 8.28726,3.80359 11.6376,1.45692 2.73858,-1.91818 2.78819,-3.95781 0.2408,-9.90063 -1.08994,-2.54273 -2.93836,-9.21754 -4.1076,-14.83291 -1.16924,-5.61537 -2.34806,-11.18635 -2.61961,-12.37995 -1.31978,-5.80117 -8.15378,-8.27475 -11.88609,-4.30221 -1.04775,1.11519 -4.82999,7.73816 -8.40499,14.71772 -3.575,6.97956 -7.0088,12.83674 -7.63066,13.01595 -1.57866,0.45494 -2.20098,-2.67961 -3.45932,-17.42429 -1.37872,-16.15508 -2.4056,-18.80596 -7.9256,-20.45979 -8.14717,-2.44095 -9.46599,1.28673 -8.5235,24.09189 0.70527,17.06512 1.71922,20.74968 7.53188,27.36994 3.6686,4.17831 6.09832,5.71305 10.5072,6.63692 4.81156,1.00826 6.96808,0.14183 13.92055,-5.59289 l 0,0 z m -206.073146,1.55832 c 4.707106,-3.70261 14.297646,-27.6314 16.087136,-40.13809 0.56351,-3.93833 0.34459,-5.02415 -1.35582,-6.72456 -1.11532,-1.11532 -3.18921,-2.31933 -4.60865,-2.67559 -4.331315,-1.08709 -7.762914,3.4497 -14.503198,19.17415 -1.04269,2.43249 -2.148153,4.42272 -2.456585,4.42272 -0.308431,0 -2.149573,-3.4875 -4.091426,-7.75 -6.128722,-13.45296 -7.802046,-16.39464 -10.724751,-18.85393 -3.414384,-2.87302 -6.661167,-3.05308 -9.762899,-0.54145 -2.276591,1.84347 -2.280832,1.89319 -0.70587,8.27538 3.795886,15.38199 15.27559,39.58939 21.097211,44.48796 3.478751,2.92717 7.562409,3.04697 11.024852,0.32341 l 0,0 z m 15.887726,-63.69137 c 6.49176,-4.97083 9.19677,-9.0487 8.88335,-13.391841 -0.15879,-2.20045 -8.67794,-11.57898 -12.14793,-13.37339 -2.43654,-1.25998 -2.92402,-1.24576 -4.05608,0.11829 -0.96833,1.16677 -1.03632,2.48846 -0.27476,5.34165 l 1.01195,3.79127 -7.476708,0.63201 c -4.112191,0.34761 -13.371315,0.63865 -20.575833,0.64676 -8.519455,0.01 -13.973163,0.45536 -15.599122,1.27503 -2.808018,1.41556 -3.858792,5.166701 -1.681363,6.002261 0.78341,0.30062 11.382202,0.87262 23.552872,1.27111 l 22.128494,0.72453 0,4.18949 c 0,6.40619 0.94263,6.82538 6.23513,2.77283 z m 43.56843,-1.51329 c 0.57664,-0.69482 1.60164,-3.46027 2.27778,-6.14544 0.96027,-3.813611 2.84491,-6.655961 8.61091,-12.986701 8.13823,-8.93533 9.65966,-12.14285 6.76408,-14.26016 -6.65666,-4.86747 -22.15294,5.19836 -28.1419,18.27997 -2.92884,6.397431 -2.57601,9.267891 1.65986,13.503761 3.02067,3.02066 7.04834,3.75445 8.82927,1.60857 l 0,0 z"
     id="path4032"
     inkscape:connector-curvature="0" />
</svg>
