<?xml version="1.0" encoding="UTF-8" standalone="no"?>
<!-- Created with Inkscape (http://www.inkscape.org/) -->

<svg
   xmlns:dc="http://purl.org/dc/elements/1.1/"
   xmlns:cc="http://creativecommons.org/ns#"
   xmlns:rdf="http://www.w3.org/1999/02/22-rdf-syntax-ns#"
   xmlns:svg="http://www.w3.org/2000/svg"
   xmlns="http://www.w3.org/2000/svg"
   xmlns:sodipodi="http://sodipodi.sourceforge.net/DTD/sodipodi-0.dtd"
   xmlns:inkscape="http://www.inkscape.org/namespaces/inkscape"
   id="svg3336"
   version="1.1"
   inkscape:version="0.92.4 (5da689c313, 2019-01-14)"
   width="731.95996"
   height="908.00519"
   viewBox="0 0 731.95996 908.00517"
   sodipodi:docname="yt.svg"
   inkscape:export-filename="E:\petra\Pictures\Vyfucek-YouTubeII.png"
   inkscape:export-xdpi="269.12231"
   inkscape:export-ydpi="269.12231">
  <metadata
     id="metadata3342">
    <rdf:RDF>
      <cc:Work
         rdf:about="">
        <dc:format>image/svg+xml</dc:format>
        <dc:type
           rdf:resource="http://purl.org/dc/dcmitype/StillImage" />
        <dc:title></dc:title>
      </cc:Work>
    </rdf:RDF>
  </metadata>
  <defs
     id="defs3340" />
  <sodipodi:namedview
     pagecolor="#ffffff"
     bordercolor="#666666"
     borderopacity="1"
     objecttolerance="10"
     gridtolerance="10"
     guidetolerance="10"
     inkscape:pageopacity="0"
     inkscape:pageshadow="2"
     inkscape:window-width="1920"
     inkscape:window-height="1001"
     id="namedview3338"
     showgrid="false"
     inkscape:zoom="0.93557157"
     inkscape:cx="186.63723"
     inkscape:cy="437.56851"
     inkscape:window-x="-9"
     inkscape:window-y="-9"
     inkscape:window-maximized="1"
     inkscape:current-layer="svg3336"
     fit-margin-top="0"
     fit-margin-left="0"
     fit-margin-right="0"
     fit-margin-bottom="0" />
  <g
     id="g3524"
     transform="matrix(4.3550082,0,0,4.3550082,-155.3791,-37.077204)"
     style="fill:#ffffff;stroke:#ffffff;stroke-width:1.14810346;stroke-miterlimit:4;stroke-dasharray:none" />
  <path
     style="fill:#ffffff;fill-opacity:1;stroke:#ffffff;stroke-width:5;stroke-miterlimit:4;stroke-dasharray:none"
     d="m 216.55259,514.96606 c -0.6619,28.16241 -55.80803,28.21675 -89.74523,28.7265 -46.763617,0.70244 -57.518786,-30.8108 -92.339905,14.84463 1.400126,31.33824 -7.083482,113.20646 -6.043406,188.85296 1.040082,75.64649 11.603849,145.07133 74.139391,151.52284 27.6093,2.84835 -27.303739,0.69032 72.63024,-7.49959 81.54495,-6.68288 295.0782,17.57368 423.25655,-16.6441 19.43073,-5.18711 50.54884,-211.00115 9.70208,-194.0461 -67.32302,27.94509 -299.9244,85.00001 -370.44812,104.17855 -13.42301,3.65032 -9.84341,-128.38935 0.98982,-155.04213 10.52466,-25.89361 118.79483,1.11528 186.76105,59.9797 0,0 4.03979,6.94541 -7.06513,20.28877 -92.81019,111.51826 200.19241,5.91379 199.46351,-32.90388 -2.59119,-137.99561 -6.30035,-161.14252 -56.36064,-172.24235 -26.09564,-5.78616 -8.64626,48.95465 -44.4233,44.44647 -19.1468,-2.41263 -78.83619,2.28603 -90.23243,-36.82447 -66.0473,45.68078 -89.04118,33.13935 -166.57491,30.24323 -19.94732,-0.7451 -25.57302,-18.53213 -43.70957,-27.88103 z"
     id="path3532"
     inkscape:connector-curvature="0"
     sodipodi:nodetypes="cscsssssssssssscsc"
     inkscape:export-xdpi="269.55405"
     inkscape:export-ydpi="269.55405" />
  <path
     style="fill:#ffffff;fill-opacity:1;stroke:#ffffff;stroke-width:5;stroke-miterlimit:4;stroke-dasharray:none"
     d="M 116.05394,905.41075 C 62.559687,907.26716 34.229485,881.86775 29.327313,830.55051 21.698775,750.69355 20.21006,650.53115 25.208303,565.29511 27.197758,531.36881 74.466149,510.93107 86.167707,497.95275 48.896415,476.18642 6.1801834,451.21353 4.6569324,402.2072 -8.287894,336.33745 41.123243,280.92697 44.915106,217.37383 41.669014,169.12093 32.29303,84.986166 79.168817,61.507186 c 51.216253,-15.2252 152.635193,3.49932 187.606393,50.436504 22.74468,-3.05923 64.0217,11.64798 22.37319,8.7419 -37.4984,-2.6165 -1.58744,8.2413 49.14526,16.79805 35.50974,-19.19028 37.92329,-31.12156 6.22179,-22.93771 -17.19196,4.43819 -19.82918,-3.28336 26.12804,-10.50164 13.96502,-28.493124 27.74231,-62.848184 59.57129,-79.619144 55.15709,-36.64111 131.91586,-25.34590996 179.13564,19.33995 30.6947,25.6152 59.45009,54.4742 73.3082,92.839114 36.69992,80.97889 67.77012,177.61421 28.70159,263.52401 -19.46892,52.81634 -98.66209,48.56063 -128.19018,7.79497 -47.34939,-56.10726 -42.18344,-133.48853 -40.03586,-202.11903 3.44878,-42.78714 -16.08704,-87.76937 -60.67911,-96.67708 -17.44543,-3.3538 -40.77804,3.63983 -50.1466,5.25711 -24.13133,4.16573 -4.32492,11.19983 20.44314,33.96422 18.57738,18.9821 14.38564,53.16949 2.00095,21.23165 -23.95559,-48.7141 -78.46489,-46.03649 -38.96714,-7.01039 32.83046,32.08574 44.5054,39.45535 45.40301,109.32297 0.82253,64.02433 -62.07262,101.46975 -18.99244,130.92631 12.55792,10.6686 12.29165,38.18191 -8.67475,20.93626 14.38747,43.2174 62.09062,43.79395 92.66012,63.83091 31.04671,19.75985 87.54294,3.75481 96.29197,62.92621 14.40584,97.42964 12.95649,191.85484 -2.81464,296.25214 -9.37777,62.07624 -84.70695,52.83122 -130.51401,53.6642 -129.57026,2.35622 -248.81289,0.66927 -373.09073,4.98208 z m 249.63529,-17.30063 c 69.90477,-3.87564 141.94836,4.28961 209.57864,-13.82653 43.22602,-11.57897 38.42494,-73.71801 39.6256,-112.85211 2.20077,-71.72991 3.78672,-141.93181 -7.39062,-213.25086 -1.30959,-8.35617 -2.41197,-18.25727 -24.32712,-27.33783 -60.52237,-25.07739 -10.91625,13.63101 -47.02216,26.518 -23.57779,8.41545 -85.62094,12.52125 -108.14055,-25.26718 -13.13044,-2.82166 -39.05942,26.40467 -78.4138,31.00613 -46.00295,6.05036 -93.94419,-1.26766 -130.84708,-31.69419 -2.91738,26.46465 -33.12676,30.58632 -65.77513,29.71544 -86.774358,-2.31463 -67.453713,-12.50932 -79.562988,-17.56493 -52.576449,2.82715 -35.667477,92.66086 -36.294381,148.7913 -0.615885,55.14542 -4.122494,111.17748 9.144694,164.68346 13.562105,54.69546 88.236205,38.88804 133.143315,41.29584 62.00777,3.32471 186.28158,-0.21644 186.28158,-0.21644 z M 217.18909,694.38769 c 0.82531,-46.20176 7.80091,-95.8286 56.25877,-88.18843 47.15218,7.4343 69.07029,24.67012 113.24845,43.67476 40.98795,17.63226 65.72828,73.56027 12.82572,92.59357 -51.50368,18.53 -101.74945,45.291 -156.40271,50.94114 -33.83096,-0.0218 -26.37858,-73.92173 -25.93023,-99.02104 z m 194.4241,19.89464 c 12.15391,-51.90112 -68.29798,-70.94134 -113.24088,-86.86874 -60.32117,-21.3773 -67.74811,11.79432 -67.19393,66.78801 0.33141,32.86786 0,0 2.59401,67.94841 1.38636,36.3155 82.05069,-0.0571 116.85365,-10.42018 22.22196,-8.59257 55.41522,-13.65352 60.98715,-37.4475 z M 373.22179,448.3526 c -44.09846,-16.15094 -94.69319,-5.86803 -132.98953,19.86519 -24.43107,47.46246 27.17507,76.72915 78.18728,75.7653 91.98905,10.37916 119.61875,-78.354 54.80225,-95.63049 z m 165.6957,85.77254 c 19.86193,-38.88486 -86.41722,-69.54056 -91.49447,-10.59139 12.26193,29.71532 84.12374,25.02154 91.49447,10.59139 z m -342.84026,1.27506 c 37.02801,-19.91262 -17.46141,-60.50505 -74.1002,-39.59182 -33.692266,12.44048 -48.563008,37.74768 -4.7295,40.38347 26.16728,3.01598 62.12589,8.19121 78.8297,-0.79165 z m 17.09932,-43.57909 c 12.95902,-17.9421 34.09663,-77.33483 12.03263,-76.35426 -2.43061,29.91489 -67.94422,57.53809 -25.49665,78.31903 4.39163,1.98352 9.75007,0.99825 13.46402,-1.96477 z m 238.95877,-0.41851 c 10.86253,-28.88594 -54.61502,-84.82567 -40.88869,-30.28552 6.96622,18.52517 14.4908,51.30962 40.88869,30.28552 z M 152.32864,479.86099 C 214.683,449.79289 236.72748,369.8595 215.51045,307.11334 118.79765,90.075326 205.98897,107.58401 155.64062,71.283406 112.73512,60.920726 63.793025,55.286786 52.071739,109.89989 37.84819,165.59862 70.060056,224.09747 45.937705,278.78886 24.613452,327.07904 -2.2564253,385.82337 27.484622,436.50223 c 23.504027,44.32832 79.167728,60.70301 124.844018,43.35876 z m 234.13037,-47.6147 c 14.00936,-63.85182 74.71736,-113.95108 62.90095,-183.92618 -6.45717,-50.05616 -46.59972,-97.98597 -100.11507,-97.44574 -52.49975,-9.45313 -109.89678,10.73717 -135.72774,59.65141 -20.6774,68.49591 17.73251,81.81214 19.59028,145.1683 -1.36404,28.99226 1.64911,84.39389 26.27071,89.4001 70.48004,-19.99761 83.52311,-13.44504 127.08087,-12.84789 z M 282.2512,258.25202 c -45.50002,-31.68553 32.81833,-104.06373 30.19484,-33.45214 -1.67421,13.43066 -10.34115,49.04769 -30.19484,33.45214 z m 82.41483,-4.09972 c -29.93267,-21.96888 4.29878,-102.06716 30.07916,-49.73343 3.2434,16.63904 -4.11704,61.61423 -30.07916,49.73343 z M 675.39042,422.05071 C 718.46202,391.74008 718.49498,331.8851 717.05069,284.34118 710.91796,230.50766 689.79178,179.39776 667.56351,130.59637 638.90891,79.559816 594.66063,34.429106 537.95695,16.628906 477.43379,1.362866 403.50813,34.755586 385.83167,96.946876 c 28.41725,41.217804 82.25366,-29.51825 120.74862,10.381164 38.03054,21.09339 52.39679,64.35558 45.66612,105.39001 1.57996,58.28402 -1.39403,121.04122 26.77117,173.8617 19.45568,31.37812 60.61639,53.75693 96.37284,35.47096 z m -39.58228,-56.42796 c -19.32709,-11.81283 -42.18936,-60.75347 -29.74997,-67.59353 14.60695,17.90053 42.6495,63.55013 54.42758,56.66311 -16.56305,-18.55574 -53.8488,-55.38083 -45.10038,-70.73721 16.48366,12.42939 53.63772,83.05493 62.66583,37.58201 -0.80033,-39.45543 -58.91225,-65.81017 -61.77689,-92.84068 17.75137,7.60022 44.85955,62.58966 52.93958,47.05899 -19.70786,-18.4193 -62.63355,-55.00854 -57.21415,-70.76216 15.29706,15.2305 36.97834,57.81981 51.37417,51.25222 -2.10277,-21.74147 -60.98632,-55.31899 -44.46059,-59.32285 3.9192,-2.64996 -49.90268,-57.59245 -2.55212,-45.52118 -28.3633,-20.44335 -35.88117,-56.543024 -70.45367,-71.993074 -41.89169,-18.3419 -92.23028,-4.10858 -129.17791,19.59709 -6.94758,-16.9233 54.14273,-37.40584 76.23696,-37.95154 51.05563,-8.37619 94.77264,25.11873 120.20562,66.271324 30.32946,48.52932 50.71176,102.92837 68.25871,157.13328 10.78143,31.6439 5.90865,106.85235 -45.62277,81.1642 z m 11.01242,-6.55573 c -5.71508,-16.24699 -38.89462,-40.83819 -15.41425,-9.78127 3.69649,2.7095 10.10306,15.86962 15.41425,9.78127 z m 0.12281,-141.3366 c -15.86546,-21.22518 2.54223,18.81808 0,0 z m -15.28773,-13.15526 c -6.75823,-8.41408 -1.01568,8.49315 0,0 z m 6.48639,-7.08412 c -8.42141,-17.41397 -39.99613,-30.38545 -12.53907,-6.33088 2.23808,1.57628 14.79598,17.83807 12.53907,6.33088 z m -7.65293,-21.02376 c -5.44711,-18.2493 -39.47784,-21.78893 -11.67595,-4.87993 2.32244,0.83478 9.53033,11.42962 11.67595,4.87993 z m 18.109,136.01096 c -12.45797,-12.21217 -53.07927,-50.94538 -31.12328,-52.23957 14.20652,16.0702 37.90251,31.89024 10.17356,5.21764 -15.63387,-13.80985 -32.2014,-49.33263 -5.56893,-14.99619 14.08049,17.90385 55.03564,50.8741 44.94922,64.98097 -11.70622,-9.18801 -39.91299,-32.41298 -16.17523,-6.84909 18.91331,10.86953 22.47797,32.90636 2.40038,8.62404 z M 413.04977,421.08128 c 15.59634,-40.52892 -27.40074,-12.04905 -4.66843,2.56558 z M 200.04063,208.93021 c 69.55154,-75.02847 31.6836,-74.79034 8.97598,-50.19268 -2.0192,4.74608 -20.5252,27.57732 -3.48436,-8.19579 9.26032,-13.23282 31.15246,-23.56024 13.73065,-26.03137 -6.39655,-0.9073 -10.26828,-4.19622 -30.48515,-0.22436 -20.34159,15.08942 -7.36384,61.66094 11.26288,84.6442 z m 73.81797,-62.95632 c 13.06865,-38.40836 -63.20199,-14.15736 -19.4331,6.57849 l 7.09766,-1.18537 z m 126.62567,-16.82106 c -11.77472,-34.686954 -60.03841,16.61036 -14.60649,14.05394 l -6.11769,5.47915 z m -164.21224,-6.2697 c -7.37612,-32.751664 -61.69971,-30.821974 -49.94824,-10.18233 29.4173,-5.80149 45.11419,18.94248 49.94824,10.18233 z m 15.41002,-8.10128 C 234.63621,75.321886 140.40288,57.144216 217.78233,93.831326 c 11.53288,5.63564 27.80929,34.981854 33.89972,20.950524 z"
     id="path3532-4"
     inkscape:connector-curvature="0"
     sodipodi:nodetypes="ssscccccscsccccccccscccscccsssscssssscccscsssccsssscssssscsccccscssscsccccccccccccccccccccccccccccccccccccccccccccccccccccccccccccccccccccccccccccccccscccccccccccccccc"
     inkscape:export-xdpi="269.55405"
     inkscape:export-ydpi="269.55405" />
</svg>
