<?xml version="1.0" encoding="UTF-8" standalone="no"?>
<!-- Created with Inkscape (http://www.inkscape.org/) -->

<svg
   xmlns:osb="http://www.openswatchbook.org/uri/2009/osb"
   xmlns:dc="http://purl.org/dc/elements/1.1/"
   xmlns:cc="http://creativecommons.org/ns#"
   xmlns:rdf="http://www.w3.org/1999/02/22-rdf-syntax-ns#"
   xmlns:svg="http://www.w3.org/2000/svg"
   xmlns="http://www.w3.org/2000/svg"
   xmlns:sodipodi="http://sodipodi.sourceforge.net/DTD/sodipodi-0.dtd"
   xmlns:inkscape="http://www.inkscape.org/namespaces/inkscape"
   width="192.85381mm"
   height="238.97717mm"
   viewBox="0 0 683.34026 846.76951"
   id="svg2"
   version="1.1"
   inkscape:version="0.91 r13725"
   sodipodi:docname="fb.svg"
   inkscape:export-filename="E:\petra\Pictures\Vyfucek-FacebookII.png"
   inkscape:export-xdpi="85.082062"
   inkscape:export-ydpi="85.082062">
  <defs
     id="defs4">
    <linearGradient
       id="linearGradient4170"
       osb:paint="solid">
      <stop
         style="stop-color:#3b5998;stop-opacity:1;"
         offset="0"
         id="stop4172" />
    </linearGradient>
  </defs>
  <sodipodi:namedview
     id="base"
     pagecolor="#ffffff"
     bordercolor="#666666"
     borderopacity="1.0"
     inkscape:pageopacity="0.0"
     inkscape:pageshadow="2"
     inkscape:zoom="0.175"
     inkscape:cx="-986.13481"
     inkscape:cy="946.35925"
     inkscape:document-units="px"
     inkscape:current-layer="layer1"
     showgrid="false"
     inkscape:window-width="1920"
     inkscape:window-height="1145"
     inkscape:window-x="0"
     inkscape:window-y="0"
     inkscape:window-maximized="1"
     showguides="true"
     inkscape:guide-bbox="true"
     fit-margin-top="0"
     fit-margin-left="0"
     fit-margin-right="0"
     fit-margin-bottom="0" />
  <metadata
     id="metadata7">
    <rdf:RDF>
      <cc:Work
         rdf:about="">
        <dc:format>image/svg+xml</dc:format>
        <dc:type
           rdf:resource="http://purl.org/dc/dcmitype/StillImage" />
        <dc:title></dc:title>
      </cc:Work>
    </rdf:RDF>
  </metadata>
  <g
     inkscape:label="Vrstva 1"
     inkscape:groupmode="layer"
     id="layer1"
     transform="translate(-35.224621,-89.631638)">
    <path
       style="fill:#0087ff;fill-opacity:1;stroke:none;stroke-width:5.625;stroke-miterlimit:4;stroke-dasharray:none;stroke-opacity:1"
       d="m 143.81657,932.38149 c 0,0 62.0785,1.6925 153.37884,0.79595 12.43702,-0.12213 53.1934,-10.07225 58.58578,-19.2048 8.46919,-14.34343 6.56232,-6.41945 6.43559,-27.37788 2.72128,-36.8188 8.17904,-94.6388 -22.52316,-88.02241 -21.02738,4.53144 -34.86312,-24.75444 -33.2218,-31.66071 3.20146,-13.471 27.00651,-21.29217 43.99577,-29.46146 10.38136,-4.99188 -5.76315,-48.99974 30.95522,-94.1086 7.52546,-9.24509 62.19679,-27.82606 90.28982,-12.19781 10.04689,5.58912 20.86114,31.16534 -14.23078,42.52471 -23.22001,7.51639 -36.03574,-8.64151 -46.23089,16.01577 -9.99067,24.16273 3.8859,45.65615 3.8859,45.65615 46.73356,5.35686 46.81176,3.35438 44.19062,35.81758 0,0 -56.10784,21.74376 -43.05596,10.77031 0,0 -15.3765,42.32653 -3.79858,118.82551 4.91297,32.46155 55.14807,40.18799 95.7014,13.66484 15.63232,-10.22403 12.15314,-179.12757 3.40878,-194.25126 -8.74435,-15.12369 9.02559,-45.19435 -11.51327,-117.93835 -4.45335,-15.77276 -44.23449,2.11321 -53.35049,-11.68214 -21.39773,-32.38146 -52.10284,-5.48266 -52.10284,-5.48266 -38.6172,-4.0636 -89.64236,29.32153 -121.86532,7.82657 -70.74956,-47.19486 -44.42635,-14.74471 -60.54256,-5.18471 -27.07286,16.05939 -36.73902,4.42277 -49.56419,7.77332 -12.82516,3.35054 -27.21133,-11.57293 -31.78733,6.70068 -23.83543,95.1835 -23.96111,313.13442 12.95945,330.2014 z"
       id="path3347-7"
       inkscape:connector-curvature="0"
       sodipodi:nodetypes="csscsssssssscsssssssssssc" />
    <path
       style="fill:#000000;fill-opacity:1;stroke:#000000;stroke-width:5.62499986;stroke-miterlimit:4;stroke-dasharray:none;stroke-opacity:1"
       d="m 411.25875,125.24684 c -36.98777,30.5294 -16.11319,51.2926 -61.12217,52.1936 -11.92581,0.8962 -2.26648,9.3521 15.46359,6.3696 6.54777,-1.1015 -4.59083,25.3368 -36.50407,22.3518 -18.7999,-1.7585 -27.8813,-4.4959 -38.07566,-13.7267 -10.19435,-9.2308 -15.33229,-20.0886 -9.18925,-20.792 23.03248,-2.6372 25.71163,-10.2713 -3.27647,-7.849 -10.61564,0.8871 -12.65161,-17.4256 -64.01815,-40.3696 -32.11701,-9.6042 -78.77923,-14.3904 -107.34499,1.9813 -22.415139,16.8895 -40.991579,51.7222 -41.056959,74.5771 -0.081,28.3244 -1.66744,58.1911 -1.43151,87.5047 -4.11566,43.7427 -20.60423,83.73019 -28.10762,126.60129 -1.11482,27.3253 -5.34344,32.931 10.15532,81.0902 9.37299,29.1246 56.255849,48.9384 81.032389,59.6837 -20.06227,24.5412 -8.021,27.2344 -5.7242,53.8489 -1.18345,95.555 -19.07629,226.873 2.89899,297.2363 13.34149,42.7186 42.64552,25.4169 95.51935,30.4484 32.45722,0.094 64.5281,-1.2244 97.35791,-3.1301 63.69126,-13.0834 48.01564,-36.3314 50.2231,-75.7205 -9.25805,-33.7807 -2.74701,-71.1625 -28.87287,-63.3511 -35.60873,10.6466 -31.08862,-45.4782 -10.1874,-45.5546 39.4257,-0.1441 30.12883,-28.5282 32.34461,-54.5403 3.29793,-38.7162 34.96407,-66.993 74.352,-65.8508 18.74476,0.5436 46.16896,-6.8682 41.3721,25.3193 -3.10755,20.8521 -27.07263,19.6468 -48.922,21.2957 -26.41778,1.9938 -39.78926,67.0148 8.06489,65.2123 20.83805,-0.785 28.94285,22.2304 17.1004,31.6178 -14.99057,11.883 -43.53165,-2.0695 -45.88182,16.6047 -5.29431,42.0683 -11.79652,97.0093 10.86121,131.5202 10.99227,16.7427 65.55665,13.8277 89.88659,2.7642 25.76646,-17.3453 -1.27853,-252.709 4.27069,-318.824 59.75533,-6.9386 12.53508,-104.287 -45.51121,-82.7105 -13.81972,23.6399 -24.05595,-4.14 -41.56782,-24.1771 -8.30236,-9.4995 3.22433,-22.0213 10.23392,-26.038 34.15768,33.5958 -17.13838,-61.2192 -3.94179,-10.104 -8.62605,10.1818 -15.8349,21.4361 -16.69291,-13.8533 0,0 10.61958,-59.1974 26.28318,-86.9802 13.97013,-35.59529 23.06993,-89.71409 -5.35841,-113.80849 -14.37378,-12.1825 -38.84557,-14.446 -35.09409,-33.6162 15.34856,-43.4606 61.66269,36.8838 67.66326,21.115 1.75799,-4.6198 -45.04282,-43.1877 -45.04282,-43.1877 13.72403,-11.982 34.54775,-12.0736 34.54775,-12.0736 27.64459,-4.8265 69.56554,4.7527 73.02683,37.9517 16.57174,77.1256 -13.25812,212.64589 43.45289,265.34869 32.80133,20.7034 105.44446,23.6434 122.86617,-10.3828 C 784.32068,301.30594 587.35209,-16.958712 411.25875,125.24684 Z m 93.62686,-31.116199 c 61.02442,1.885903 119.89365,47.052899 146.23336,91.383499 19.69336,33.1445 40.14246,67.551 49.14341,105.7404 7.9532,33.7441 15.6524,68.09269 12.1527,102.76599 -4.6024,45.5987 -11.19892,86.6829 -61.11836,96.6151 -40.86372,8.1305 -83.84699,-6.9808 -96.18159,-47.2487 -18.1847,-60.6577 -7.53691,-125.08869 -11.94412,-187.38879 0.52177,-36.047 -11.8748,-77.3035 -54.2355,-84.6983 -28.07075,-4.9002 -47.21415,11.8456 -77.78363,9.4083 -51.55094,-4.11 -2.2731,-47.2964 16.68486,-58.8202 24.58294,-14.9431 47.91143,-27.935199 77.04887,-27.757299 z M 200.26137,124.98324 c -14.89622,7.9043 -36.15838,52.0641 -13.0816,142.9125 15.34701,60.4178 58.38275,117.24599 43.33738,182.44919 -15.01792,37.6128 -23.11245,66.2998 -55.59756,85.8341 -36.54969,21.9783 -84.893659,8.0274 -115.923029,-32.3687 -28.70837,-37.3745 -17.80151,-99.5377 -3.50543,-146.6072 19.57608,-47.58299 16.01463,-99.42899 14.7581,-149.63129 -3.36841,-40.859 27.39597,-85.5868 70.251379,-87.1994 21.57127,-3.1669 40.85852,-1.2105 59.76076,4.6108 z m 4.67177,2.6403 c 6.09072,0.1444 19.45799,5.3135 31.37559,14.0927 17.53541,12.9176 38.36185,24.2096 23.28504,33.1949 -6.29875,3.7539 -16.81632,-1.5198 -27.05839,-9.2569 -0.36287,-0.2741 -0.73793,-0.541 -1.12406,-0.8011 -10.51258,-7.0819 -33.35114,-9.1388 -38.368,-15.0254 -5.22346,-6.1291 6.51564,-22.3317 11.88982,-22.2042 z m 287.92011,12.5735 c -17.89742,-0.108 -36.43931,-0.5946 -50.67263,6.3944 -29.56506,14.5175 11.29917,1.974 23.59467,2.0407 31.31169,0.1699 45.44783,-0.8598 72.57154,8.4583 -25.04577,9.0827 3.38499,1.6627 14.47092,8.9521 -26.12315,4.2137 11.51436,10.3068 19.06408,13.4826 -17.39784,1.3996 -5.66479,1.7992 11.40989,8.1869 -14.25238,-3.0994 -34.01799,-0.044 -8.21409,5.3568 22.83346,7.0236 20.49907,13.5761 2.35513,7.7103 9.9312,4.6669 -5.13821,6.3414 9.20236,18.2058 0.31135,3.4931 63.61733,48.865 24.97117,25.1509 -35.96783,-26.6447 -8.33783,6.5961 10.63981,13.2709 31.54265,41.3335 -18.46663,6.8401 -28.60654,-1.5081 -7.2174,20.9066 18.66016,34.8094 38.44742,50.9274 -1.37725,-9.5683 3.35477,-19.0343 7.56755,6.5713 13.27064,38.80619 -49.20445,-19.6999 -28.66751,1.8064 -6.49877,-5.7454 -26.07851,-20.5408 -5.43061,4.3991 -12.11398,-1.2782 6.23531,10.3138 16.48755,20.7694 22.00436,18.64579 5.19514,15.74319 -8.18361,1.2097 -22.70337,-27.8665 -14.11865,-7.0087 -5.33435,9.03549 11.29765,15.1219 -13.91573,-7.80969 -4.69905,10.9013 6.63827,7.7985 -11.86671,-6.0612 4.43273,12.1399 -31.11358,-16.5157 10.00236,24.1082 1.17436,21.862 7.2693,4.2555 33.92446,23.6573 31.28897,14.1789 17.43077,15.2786 -33.33231,2.7652 -34.17032,-16.5629 -26.27919,-27.2818 -13.15782,34.6638 17.26565,38.3945 52.87241,6.4834 37.26014,-48.3905 33.69062,-77.1853 -3.71001,-47.33279 -15.61902,-93.69169 -36.21581,-136.34439 -13.18134,-27.1408 -33.81224,-51.0227 -61.87364,-63.6801 -20.35384,-8.8655 -43.55529,-13.9856 -66.56626,-14.1243 z m 84.57951,60.5821 c -1.5596,-0.7329 -3.71423,-1.5357 -6.71887,-2.4674 2.43578,0.995 4.67229,1.8058 6.71887,2.4674 z m -379.35235,-38.6055 c 15.52838,0.337 52.50368,8.5529 47.2471,26.0726 -9.32031,7.4971 -17.91758,4.0914 -48.12237,-9.8697 -15.28566,-8.4143 -12.82623,-16.5003 0.87527,-16.2029 z m 355.88283,7.185 c 1.52334,0.012 5.844,1.1414 14.66665,4.4295 -4.18484,2.8106 -18.55965,-4.4592 -14.66665,-4.4295 z m -284.0457,10.7874 c 3.46272,0.1371 7.17739,2.1667 10.99277,6.5777 17.92265,20.7206 10.6572,28.7768 -11.80777,34.2939 -3.48763,3.5626 -27.84138,-15.2273 -25.05253,-19.7311 8.0496,-12.9994 17.01836,-21.4908 25.86753,-21.1405 z m -45.80642,18.0726 c 8.90947,6.274 -1.6505,18.9516 -7.3638,31.6436 -9.8686,21.9228 3.93293,16.0599 9.5569,-5.9023 8.31691,-32.4785 39.96822,-2.5657 17.07152,12.3227 -18.60188,12.0958 -32.92533,36.4269 -36.89123,61.994 -15.93289,-34.4869 -31.07942,-102.0359 -19.90474,-114.8161 7.48801,-4.7666 32.13229,11.0076 37.53135,14.7581 z m 165.81439,9.6028 c -29.0859,22.3092 -25.26558,-28.6248 0.17776,-23.4127 28.04004,5.744 17.17813,10.1006 -0.17776,23.4127 z m 187.10778,-19.2784 c 0.95697,0.1083 4.21985,1.3826 11.35535,4.7761 3.65701,5.0689 -14.22625,-5.1008 -11.35535,-4.7761 z m -13.22918,8.2109 c -0.5289,0.039 -0.57709,0.3179 0.49252,1.0251 7.00266,0.8984 1.09415,-1.1422 -0.49252,-1.0251 z m 29.95738,9.7302 c 0.53417,0.03 2.79141,1.2626 8.01837,4.7118 4.28047,5.9174 -9.62089,-4.8029 -8.01837,-4.7118 z m -6.43812,2.5027 c 0.86209,0.1092 3.82567,2.5724 10.04142,9.6195 -5.67304,-1.4546 -11.68723,-9.828 -10.04142,-9.6195 z m -255.33485,5.4226 c 16.8225,-0.1756 33.65352,2.5453 49.75144,8.7243 24.05886,7.9609 57.31032,21.4529 65.19457,46.8379 16.34597,52.6295 -32.18228,112.30329 -41.02395,169.66609 -15.16741,16.2289 -0.82217,78.9678 -30.26863,57.9398 -40.20017,-5.7291 -83.31673,-4.7044 -121.02798,11.5415 -14.80891,-0.8295 3.87056,-54.0381 -13.40726,-71.3006 2.56884,-40.1841 -10.19092,-78.7924 -25.87761,-115.35509 -5.2885,-30.8937 7.90122,-69.696 36.0602,-85.624 24.54887,-13.7971 52.56173,-22.1372 80.59922,-22.4299 z m 271.7502,2.3583 c 1.54951,-0.1493 5.1098,2.7683 11.39385,11.9089 -8.47777,3.5919 -14.80277,-11.5803 -11.39385,-11.9089 z m -8.11623,29.2788 c -3.75826,-0.023 21.59411,18.7363 31.04992,26.9637 7.65753,3.0248 -10.45742,-16.8259 -13.41689,-18.1801 -11.10606,-6.3098 -16.27365,-8.7753 -17.63303,-8.7836 z m -296.60105,8.782 c -16.15776,0.4863 -16.8525,48.5313 -3.53912,61.0571 20.47493,1.72 22.18033,-40.3811 15.6116,-54.4714 -4.69858,-4.739 -8.71899,-6.6866 -12.07248,-6.5857 z m 75.48626,1.0428 c -12.61973,0.3305 -22.86068,44.0315 -9.69327,57.3431 21.19043,14.9271 22.66238,-31.5287 21.34862,-43.3374 -3.70577,-10.1431 -7.79216,-14.1068 -11.65535,-14.0057 z m 252.16311,62.2234 c 6.10724,9.2585 -0.24303,-8.3884 8.6248,-4.5434 -6.07017,-6.8049 -11.02802,-3.8523 -23.1214,-16.6961 -27.28347,-13.9063 4.95353,18.2881 14.4966,21.2395 z m -25.36262,-23.9685 c 0.26042,-0.024 1.14045,0.5743 3.03214,2.2782 3.00842,5.8538 -3.9622,-2.1916 -3.03214,-2.2782 z m 5.88462,5.4547 c 0.87461,0.072 2.23062,0.5951 3.82148,1.9573 -5.34213,-0.092 -5.74562,-2.1166 -3.82148,-1.9573 z m 11.5238,29.8772 c 2.9644,-0.1783 13.76439,6.537 21.73848,14.1773 -7.41138,-19.1364 19.32386,16.19099 -9.41894,1.5594 -12.19012,-11.2883 -14.62518,-15.5981 -12.31954,-15.7367 z m -5.62312,20.33469 c 2.26583,0.3 11.17534,6.7914 18.93252,13.8613 -5.7772,-5.8559 23.89358,-3.664 15.35331,15.2955 -9.89058,1.3236 -16.3499,-10.6128 -23.84655,-15.9806 -9.94443,-9.8974 -12.2016,-13.4096 -10.43928,-13.1762 z m -1.10217,13.3415 c 0.2003,-0.032 0.54339,0.3712 1.07649,1.5497 -0.6942,4.2371 -1.79186,-1.4346 -1.07649,-1.5497 z m 2.85087,5.1241 c 0.31323,-0.03 0.74904,0.376 1.30591,1.5594 -1.98881,4.2266 -2.42461,-1.452 -1.30591,-1.5594 z m 6.59694,5.0312 c 7.17004,0.198 31.49689,9.0479 28.59211,16.5838 l -0.2647,7.2836 c -1.9422,-10.9596 -14.075,-6.2609 -29.34133,-21.7802 -1.65692,-1.52 -0.99368,-2.1427 1.01392,-2.0872 z m -6.69159,5.9023 c 0.58076,0.1054 2.5516,1.3025 5.50761,4.0444 -4.70363,-2.5109 -6.25431,-4.18 -5.50761,-4.0444 z m -10.58688,0.1604 c 0.26286,-0.024 1.27402,0.9864 3.52468,3.8263 4.14991,9.5604 -4.46349,-3.7399 -3.52468,-3.8263 z m 7.36381,9.1398 c 0.19106,0.01 0.4239,0.043 0.70429,0.1 2.98092,4.3509 -3.57023,-0.256 -0.70429,-0.1 z m 21.23311,2.3888 c 0.47686,-0.048 1.10064,0.048 1.87223,0.3899 -3.257,2.7201 -3.93865,-0.1831 -1.87223,-0.3899 z m -12.54415,0.9546 c 4.50356,-0.1926 33.18603,6.978 27.20118,13.242 -10.96965,5.0112 -19.78465,-5.7285 -26.84181,-12.326 -1.19819,-0.5932 -1.19335,-0.8804 -0.35937,-0.916 z m -17.01858,11.6714 c 0.66916,-0.042 4.44001,2.8519 13.81958,11.4612 3.01943,7.9288 -15.5296,-11.3537 -13.81958,-11.4612 z m 11.70189,6.3001 c 0.47192,-0.041 1.57057,0.525 3.21826,2.3311 -3.05092,-0.5109 -4.0048,-2.2635 -3.21826,-2.3311 z m -208.01715,47.1637 c 2.39843,-0.281 5.60906,6.0065 8.94566,25.1942 -15.90346,19.1425 -15.07501,-24.476 -8.94566,-25.1942 z m -169.88582,0.8631 c 3.26316,0.3982 5.07911,8.7741 4.15679,30.6104 3.50836,53.3833 -19.58405,28.8 -14.30248,75.2055 -9.31625,-12.2086 -30.42557,-26.2591 -21.7112,-44.0594 5.72288,-11.6897 23.51771,-62.7742 31.85689,-61.7565 z m 165.35362,32.5644 c 2.04235,-0.071 6.02412,2.6633 11.66819,8.0809 23.67515,22.7253 39.93423,41.3589 23.93157,72.8408 -34.54566,7.5099 -7.43727,-18.7491 -13.80192,-31.6131 -20.59351,-33.2394 -26.63498,-49.1405 -21.79784,-49.3086 z m -76.84351,10.1329 c 38.02826,0.6894 93.9238,9.6483 91.55989,51.3461 -2.24245,39.5556 -152.15294,70.8152 -184.78829,6.5023 -19.07679,-37.5938 60.61285,-58.4397 93.2284,-57.8484 z m 160.43157,26.4615 c 4.16501,0.051 8.74647,0.9367 13.7955,2.8124 25.59322,9.5077 64.33856,67.7965 -1.66047,64.893 -25.56516,0.9735 -62.2984,7.943 -47.03692,-34.2121 6.62012,-18.286 16.85347,-33.7156 34.90189,-33.4933 z m -305.66065,16.2967 c 9.41318,0.075 18.00253,2.6006 23.97009,8.6039 27.44372,27.6082 0.007,43.2848 -30.93442,43.5492 -34.0238,0.2907 -67.71275,-10.5342 -43.45931,-32.9126 11.47764,-10.5902 32.45304,-19.3828 50.42364,-19.2405 z m 45.85135,29.0477 c 9.46164,0.1189 22.63389,20.1105 36.75005,24.2653 38.35894,11.2901 75.13646,7.9179 114.84173,-3.4461 24.58258,-7.0357 34.91649,-13.2064 54.1601,-16.0656 25.94434,42.0605 75.64192,-0.397 74.84453,74.6264 0.0355,75.1623 19.69597,167.1703 -0.58719,255.7888 -5.80991,25.384 -77.08332,23.242 -87.48493,3.1461 -15.18583,-29.3391 -9.41177,-78.5811 -4.56909,-115.4241 3.16199,-24.0564 41.07106,5.6438 48.31718,-31.5248 7.05415,-36.1838 -37.06036,-21.5186 -45.38128,-31.8745 -17.94519,-26.7011 -1.95838,-50.8437 15.81695,-52.3055 22.58134,-1.8572 31.70174,-1.4798 42.7133,-8.2093 11.23965,-6.8689 11.24905,-38.7796 -2.50113,-43.1689 -29.32606,-9.3616 -67.40095,-6.4063 -94.04819,13.2532 -13.70142,10.1085 -22.22321,38.8251 -25.77333,68.7321 -6.59912,55.5924 -34.1971,15.8171 -46.32372,46.5845 -8.48921,21.5387 0.35774,46.653 43.35413,44.4572 5.3394,30.5394 24.46379,106.6689 -3.42201,117.8851 -35.85396,14.4212 -78.26369,11.6742 -116.9867,12.3244 -55.06427,-2.2912 -84.93989,5.6659 -96.96324,-27.2461 -28.36129,-77.6346 -6.93277,-194.8038 -5.0215,-287.3859 8.70584,-37.7754 61.57617,0.4229 87.92291,-28.9034 2.50743,-11.5118 6.04067,-15.5629 10.34143,-15.5089 z"
       id="path3347-7-4"
       inkscape:connector-curvature="0"
       sodipodi:nodetypes="ccsssssccsccsccscccsssssssssscccsccccscsscccsccssssccsssccscssccccssssssssssccccccccccccccccccccccscccscccsccsscssscsscssscccsssscsscsscsscsscsccccccsscssccssccssccsccccscsssssccssccsssssssssccsssssssscscscsscsscsccccsssscssssccssssssscssssssssssccsssscsssssscscsccss" />
  </g>
  <g
     inkscape:groupmode="layer"
     id="layer2"
     inkscape:label="Vrstva 2"
     transform="translate(-35.224621,-89.631638)" />
</svg>
