<?xml version="1.0" encoding="UTF-8" standalone="no"?>
<!-- Created with Inkscape (http://www.inkscape.org/) -->

<svg
   xmlns:dc="http://purl.org/dc/elements/1.1/"
   xmlns:cc="http://creativecommons.org/ns#"
   xmlns:rdf="http://www.w3.org/1999/02/22-rdf-syntax-ns#"
   xmlns:svg="http://www.w3.org/2000/svg"
   xmlns="http://www.w3.org/2000/svg"
   xmlns:sodipodi="http://sodipodi.sourceforge.net/DTD/sodipodi-0.dtd"
   xmlns:inkscape="http://www.inkscape.org/namespaces/inkscape"
   id="svg3336"
   version="1.1"
   inkscape:version="0.91 r13725"
   width="166.9209"
   height="207.34247"
   viewBox="0 0 166.9209 207.34247"
   sodipodi:docname="yt.svg"
   inkscape:export-filename="E:\petra\Pictures\Vyfucek-YouTubeII.png"
   inkscape:export-xdpi="269.12231"
   inkscape:export-ydpi="269.12231">
  <metadata
     id="metadata3342">
    <rdf:RDF>
      <cc:Work
         rdf:about="">
        <dc:format>image/svg+xml</dc:format>
        <dc:type
           rdf:resource="http://purl.org/dc/dcmitype/StillImage" />
        <dc:title></dc:title>
      </cc:Work>
    </rdf:RDF>
  </metadata>
  <defs
     id="defs3340" />
  <sodipodi:namedview
     pagecolor="#ffffff"
     bordercolor="#666666"
     borderopacity="1"
     objecttolerance="10"
     gridtolerance="10"
     guidetolerance="10"
     inkscape:pageopacity="0"
     inkscape:pageshadow="2"
     inkscape:window-width="1920"
     inkscape:window-height="1145"
     id="namedview3338"
     showgrid="false"
     inkscape:zoom="2.646196"
     inkscape:cx="-3.5237653"
     inkscape:cy="111.51748"
     inkscape:window-x="0"
     inkscape:window-y="0"
     inkscape:window-maximized="1"
     inkscape:current-layer="svg3336"
     fit-margin-top="0"
     fit-margin-left="0"
     fit-margin-right="0"
     fit-margin-bottom="0" />
  <g
     id="g3524"
     transform="translate(-36.252469,-9.0940589)" />
  <path
     style="fill:#e52d27;fill-opacity:1"
     d="m 49.15074,117.6665 c -0.151984,6.46667 -12.814675,6.47915 -20.607363,6.5962 -10.737892,0.16129 -13.207501,-7.0748 -21.2031505,3.40863 0.321498,7.19591 -1.626514,25.99455 -1.387691,43.36455 0.238824,17.37 2.664484,33.31138 17.0239385,34.79278 6.339666,0.65404 -6.269504,0.15851 16.677404,-1.72206 18.724411,-1.53453 67.756062,4.03528 97.188462,-3.82183 4.4617,-1.19107 11.60706,-48.45023 2.2278,-44.557 -15.45876,6.41677 -68.868849,19.51776 -85.062555,23.92155 -3.0822,0.83819 -2.260247,-29.48085 0.227285,-35.60088 2.416679,-5.94571 27.277751,0.25609 42.884201,13.77258 0,0 0.92762,1.59481 -1.6223,4.65872 -21.31114,25.6069 45.968319,1.35793 45.800949,-7.55541 -0.59499,-31.68665 -1.44669,-37.00166 -12.94157,-39.55041 -5.9921,-1.32862 -1.98536,11.241 -10.20051,10.20583 -4.3965,-0.55399 -18.10242,0.52492 -20.719229,-8.45566 -15.16583,10.48925 -20.4457,7.60948 -38.249048,6.94447 -4.580316,-0.17109 -5.872095,-4.25536 -10.036623,-6.40206 z"
     id="path3532"
     inkscape:connector-curvature="0"
     sodipodi:nodetypes="cscsssssssssssscsc"
     inkscape:export-xdpi="269.55405"
     inkscape:export-ydpi="269.55405" />
  <path
     style="fill-opacity:1"
     d="m 26.074174,207.32068 c -12.28339,0.42627 -18.7885905,-5.40596 -19.9142305,-17.18946 -1.75167,-18.33681 -2.09351,-41.33617 -0.94581,-60.90813 0.45682,-7.79018 11.3106205,-12.48311 13.9975405,-15.4632 C 10.653414,108.76189 0.84488351,103.0276 0.49511351,91.774731 -2.4772865,76.649673 8.8685335,63.926278 9.7392235,49.333165 8.9938535,38.253298 6.8409335,18.934218 17.604584,13.542959 c 11.76031,-3.496022 35.0482,0.803514 43.07831,11.581264 5.222647,-0.702463 14.700707,2.674617 5.137347,2.007322 -8.610407,-0.600802 -0.36451,1.89237 11.28477,3.857175 8.15377,-4.406482 8.70797,-7.146153 1.42865,-5.266968 -3.94763,1.019096 -4.55319,-0.753929 5.99954,-2.411397 3.20666,-6.542608 6.37021,-14.4312409 13.6788,-18.2821989 12.665209,-8.413556 30.290609,-5.81994596 41.133249,4.44085 7.04814,5.8817799 13.65097,12.5084039 16.83308,21.3177799 8.42706,18.594429 15.56142,40.783901 6.59048,60.510565 -4.47047,12.127729 -22.65486,11.150529 -29.43512,1.78989 -10.8724,-12.88339 -9.68619,-30.65173 -9.19306,-46.410713 0.79191,-9.824815 -3.69392,-20.153664 -13.93318,-22.199059 -4.00583,-0.770101 -9.36348,0.83578 -11.514699,1.207141 -5.54105,0.956539 -0.99309,2.571715 4.694169,7.79889 4.26575,4.358682 3.30324,12.208813 0.45946,4.875225 -5.500699,-11.185766 -18.017159,-10.570928 -8.947659,-1.609731 7.538549,7.36755 10.219359,9.059765 10.425469,25.102819 0.18887,14.701308 -14.253159,23.299552 -4.36106,30.063388 2.88356,2.44973 2.82242,8.767359 -1.991899,4.8074 3.303659,9.923609 14.257289,10.055999 21.276679,14.656899 7.12897,4.53727 20.10167,0.86218 22.11063,14.44916 3.30788,22.37186 2.97508,44.05384 -0.6463,68.02562 -2.15333,14.25399 -19.45047,12.13114 -29.96872,12.32241 -29.752009,0.54104 -57.132586,0.15368 -85.669346,1.14399 z m 57.321427,-3.97258 c 16.05158,-0.88993 32.594279,0.98498 48.123589,-3.17486 9.92559,-2.65877 8.82316,-16.92718 9.09886,-25.91318 0.50534,-16.47067 0.86951,-32.59048 -1.69704,-48.96681 -0.30071,-1.91875 -0.55384,-4.19225 -5.58601,-6.27733 -13.89719,-5.75829 -2.5066,3.12996 -10.79726,6.08908 -5.41395,1.93236 -19.66034,2.87514 -24.831309,-5.80187 -3.01502,-0.64791 -8.96885,6.06306 -18.00543,7.11965 -10.56323,1.38929 -21.571527,-0.29108 -30.045197,-7.27764 -0.66989,6.07683 -7.60659,7.02325 -15.10333,6.82328 -19.92519,-0.53149 -15.48877,-2.8724 -18.26931,-4.03327 -12.0726405,0.64917 -8.1899905,21.27685 -8.3339405,34.16556 -0.14142,12.66253 -0.94661,25.52865 2.0998105,37.81473 3.11414,12.55921 20.26086,8.9295 30.57246,9.48238 14.23827,0.76342 42.774107,-0.0497 42.774107,-0.0497 z M 49.296894,158.86542 c 0.18951,-10.60888 1.79125,-22.00423 12.918181,-20.24989 10.827116,1.70707 15.859966,5.66477 26.004186,10.02863 9.41168,4.04873 15.092569,16.89096 2.94505,21.2614 -11.82631,4.25487 -23.36378,10.39975 -35.913297,11.69714 -7.76829,-0.005 -6.05707,-16.97396 -5.95412,-22.73728 z m 44.643797,4.56822 c 2.79079,-11.91757 -15.68263,-16.2896 -26.00245,-19.94686 -13.850987,-4.90867 -15.556367,2.70822 -15.429117,15.33591 0.0761,7.54714 0,0 0.59564,15.60236 0.31834,8.33879 18.840537,-0.0131 26.832017,-2.39269 5.10262,-1.97303 12.72448,-3.13513 14.00391,-8.59872 z m -8.81546,-61.06297 c -10.12592,-3.708589 -21.743515,-1.34742 -30.537147,4.56146 -5.60988,10.89836 6.239958,17.6186 17.953417,17.39728 21.12259,2.38327 27.466939,-17.9917 12.58373,-21.95874 z m 38.047159,19.69515 c 4.56071,-8.92877 -19.84318,-15.96795 -21.00902,-2.432 2.81559,6.82325 19.31655,5.74546 21.00902,2.432 z m -78.723216,0.29278 c 8.5024,-4.57235 -4.0095,-13.89321 -17.01494,-9.0911 -7.73644,2.85659 -11.15107,8.66765 -1.08599,9.27288 6.00855,0.69253 14.26539,1.88087 18.10093,-0.18178 z m 3.92636,-10.00666 c 2.97566,-4.11988 7.82929,-17.757679 2.76294,-17.532519 -0.55812,6.869079 -15.6014,13.211939 -5.85456,17.983669 1.00841,0.45546 2.23882,0.22922 3.09162,-0.45115 z m 54.869876,-0.0961 c 2.49426,-6.63281 -12.540739,-19.477729 -9.388889,-6.95418 1.59959,4.25376 3.32739,11.78175 9.388889,6.95418 z m -68.841816,-2.65019 c 14.31785,-6.90426 19.37972,-25.25862 14.50785,-39.666436 -22.20726,-49.836422 -2.18633,-45.816065 -13.74735,-54.151434 -9.85199,-2.379487 -21.09011,-3.673155 -23.78156,8.867142 -3.2660205,12.789583 4.13049,26.22213 -1.4085005,38.780405 -4.89649,11.088424 -11.06637,24.577339 -4.23721,36.214254 5.3970105,10.178699 18.1785505,13.938669 28.6667705,9.956069 z M 88.164771,98.672331 C 91.381611,84.010627 105.32142,72.506801 102.60813,56.439071 101.12543,44.945139 91.907871,33.939465 79.619641,34.063512 67.564611,31.892878 54.385064,36.528988 48.453744,47.760711 c -4.74796,15.728076 4.07175,18.785758 4.49833,33.333646 -0.31321,6.657221 0.37867,19.378583 6.0323,20.528113 16.183677,-4.591869 19.178637,-3.087259 29.180397,-2.950139 z M 64.236501,58.719643 c -10.447747,-7.275653 7.53577,-23.895185 6.93336,-7.681304 -0.38443,3.083956 -2.37454,11.262364 -6.93336,7.681304 z m 18.92415,-0.94138 c -6.87316,-5.044509 0.98709,-23.436732 6.9068,-11.419827 0.74475,3.820669 -0.94536,14.147906 -6.9068,11.419827 z M 154.5094,96.331211 c 9.89013,-6.95995 9.8977,-20.70389 9.56606,-31.620957 -1.4082,-12.36129 -6.25921,-24.097182 -11.36328,-35.302991 C 146.13249,17.688216 135.97217,7.3252691 122.95183,3.2379741 109.05446,-0.26742286 92.079601,7.4002381 88.020721,21.680645 c 6.52519,9.46446 18.887139,-6.778004 27.726379,2.383728 8.7326,4.843478 12.03139,14.777374 10.48589,24.199727 0.36279,13.383216 -0.3201,27.793569 6.14721,39.922244 4.46743,7.205067 13.91878,12.343706 22.1292,8.144867 z m -9.08891,-12.957028 c -4.4379,-2.712469 -9.68755,-13.950254 -6.83121,-15.520871 3.35406,4.11033 9.79321,14.592422 12.4977,13.011021 -3.80322,-4.260782 -12.3648,-12.716585 -10.35598,-16.242727 3.78499,2.854043 12.31633,19.07113 14.38937,8.629608 -0.18377,-9.059784 -13.52747,-15.111379 -14.18525,-21.318143 4.07608,1.74517 10.30068,14.37188 12.15602,10.805719 -4.52533,-4.229451 -14.38196,-12.631099 -13.13755,-16.248457 3.51252,3.497238 8.49099,13.276626 11.79657,11.768571 -0.48284,-4.99229 -14.00372,-12.702386 -10.20907,-13.621753 0.89993,-0.608487 -11.45869,-13.22442 -0.58602,-10.452606 -6.5128,-4.694215 -8.23906,-12.983449 -16.17762,-16.531099 -9.6192,-4.211679 -21.17798,-0.943417 -29.661919,4.499897 -1.59531,-3.885939 12.432289,-8.589156 17.505579,-8.714458 11.72343,-1.923347 21.76176,5.767781 27.6017,15.217266 6.96427,11.143337 11.64447,23.634486 15.67361,36.081051 2.47564,7.266098 1.35675,24.535514 -10.47593,18.636981 z m 2.52868,-1.50533 c -1.3123,-3.730647 -8.93101,-9.377294 -3.53943,-2.245981 0.84879,0.622156 2.31987,3.643992 3.53943,2.245981 z m 0.0282,-32.45381 c -3.64304,-4.873741 0.58375,4.321023 0,0 z m -3.51038,-3.02072 c -1.55183,-1.932047 -0.23322,1.950206 0,0 z m 1.48941,-1.62666 c -1.93373,-3.998607 -9.18394,-6.977127 -2.87923,-1.4537 0.51391,0.361947 3.39746,4.09599 2.87923,1.4537 z m -1.75727,-4.82749 c -1.25077,-4.190415 -9.06493,-5.003187 -2.68104,-1.120531 0.53328,0.191681 2.18836,2.624477 2.68104,1.120531 z m 4.1582,31.23093 c -2.86061,-2.804166 -12.1881,-11.69811 -7.14655,-11.995286 3.26211,3.690053 8.7032,7.322661 2.33606,1.198079 -3.58986,-3.171025 -7.39411,-11.327794 -1.27874,-3.443434 3.23317,4.111093 12.63732,11.681744 10.32127,14.920972 -2.68799,-2.109754 -9.16485,-7.44269 -3.71417,-1.572689 4.34289,2.495869 5.16141,7.55598 0.55118,1.980256 z M 94.270561,96.108611 c 3.58124,-9.306279 -6.29178,-2.76671 -1.07197,0.58911 z M 45.359254,47.394335 c 15.970472,-17.228093 7.27521,-17.173411 2.06107,-11.52528 -0.46365,1.089799 -4.71301,6.332322 -0.80008,-1.881922 2.12636,-3.03853 7.15325,-5.409919 3.15284,-5.977341 -1.46878,-0.208334 -2.35781,-0.963539 -7.00002,-0.05152 -4.67085,3.464843 -1.69089,14.158628 2.58619,19.436063 z M 62.309386,32.93826 c 3.000835,-8.819354 -14.512482,-3.250823 -4.462242,1.510556 l 1.629772,-0.272183 z m 29.075875,-3.862461 c -2.70372,-7.964842 -13.78606,3.814081 -3.35395,3.227071 l -1.40475,1.258129 z M 53.678734,27.636143 c -1.69371,-7.520456 -14.16753,-7.077362 -11.46915,-2.338075 6.75482,-1.33214 10.35915,4.349588 11.46915,2.338075 z m 3.53846,-1.86022 c -3.91408,-9.060823 -25.552,-13.234793 -7.78408,-4.810673 2.64819,1.294059 6.38559,8.032557 7.78408,4.810673 z"
     id="path3532-4"
     inkscape:connector-curvature="0"
     sodipodi:nodetypes="ssscccccscsccccccccscccscccsssscssssscccscsssccsssscssssscsccccscssscsccccccccccccccccccccccccccccccccccccccccccccccccccccccccccccccccccccccccccccccccscccccccccccccccc"
     inkscape:export-xdpi="269.55405"
     inkscape:export-ydpi="269.55405" />
</svg>
